G04 #@! TF.GenerationSoftware,KiCad,Pcbnew,(5.1.5-0-10_14)*
G04 #@! TF.CreationDate,2020-11-03T20:34:37-05:00*
G04 #@! TF.ProjectId,FamiCoun,46616d69-436f-4756-9e2e-6b696361645f,rev?*
G04 #@! TF.SameCoordinates,Original*
G04 #@! TF.FileFunction,Soldermask,Bot*
G04 #@! TF.FilePolarity,Negative*
%FSLAX46Y46*%
G04 Gerber Fmt 4.6, Leading zero omitted, Abs format (unit mm)*
G04 Created by KiCad (PCBNEW (5.1.5-0-10_14)) date 2020-11-03 20:34:37*
%MOMM*%
%LPD*%
G04 APERTURE LIST*
%ADD10C,0.150000*%
%ADD11C,0.100000*%
G04 APERTURE END LIST*
D10*
X160066808Y-90786494D02*
X159740237Y-90895351D01*
X159631380Y-91004208D01*
X159522522Y-91221922D01*
X159522522Y-91548494D01*
X159631380Y-91766208D01*
X159740237Y-91875065D01*
X159957951Y-91983922D01*
X160828808Y-91983922D01*
X160828808Y-89697922D01*
X160066808Y-89697922D01*
X159849094Y-89806780D01*
X159740237Y-89915637D01*
X159631380Y-90133351D01*
X159631380Y-90351065D01*
X159740237Y-90568780D01*
X159849094Y-90677637D01*
X160066808Y-90786494D01*
X160828808Y-90786494D01*
X158651665Y-91330780D02*
X157563094Y-91330780D01*
X158869380Y-91983922D02*
X158107380Y-89697922D01*
X157345380Y-91983922D01*
X155277094Y-91766208D02*
X155385951Y-91875065D01*
X155712522Y-91983922D01*
X155930237Y-91983922D01*
X156256808Y-91875065D01*
X156474522Y-91657351D01*
X156583380Y-91439637D01*
X156692237Y-91004208D01*
X156692237Y-90677637D01*
X156583380Y-90242208D01*
X156474522Y-90024494D01*
X156256808Y-89806780D01*
X155930237Y-89697922D01*
X155712522Y-89697922D01*
X155385951Y-89806780D01*
X155277094Y-89915637D01*
X154297380Y-91983922D02*
X154297380Y-89697922D01*
X152991094Y-91983922D02*
X153970808Y-90677637D01*
X152991094Y-89697922D02*
X154297380Y-91004208D01*
D11*
G36*
X220977999Y-99790040D02*
G01*
X221185612Y-99876036D01*
X221372458Y-100000883D01*
X221531357Y-100159782D01*
X221656204Y-100346628D01*
X221742200Y-100554241D01*
X221786040Y-100774641D01*
X221786040Y-100999359D01*
X221742200Y-101219759D01*
X221656204Y-101427372D01*
X221531357Y-101614218D01*
X221372458Y-101773117D01*
X221185612Y-101897964D01*
X220977999Y-101983960D01*
X220757599Y-102027800D01*
X220532881Y-102027800D01*
X220312481Y-101983960D01*
X220104868Y-101897964D01*
X219918022Y-101773117D01*
X219759123Y-101614218D01*
X219634276Y-101427372D01*
X219548280Y-101219759D01*
X219504440Y-100999359D01*
X219504440Y-100774641D01*
X219548280Y-100554241D01*
X219634276Y-100346628D01*
X219759123Y-100159782D01*
X219918022Y-100000883D01*
X220104868Y-99876036D01*
X220312481Y-99790040D01*
X220532881Y-99746200D01*
X220757599Y-99746200D01*
X220977999Y-99790040D01*
G37*
G36*
X216977999Y-99790040D02*
G01*
X217185612Y-99876036D01*
X217372458Y-100000883D01*
X217531357Y-100159782D01*
X217656204Y-100346628D01*
X217742200Y-100554241D01*
X217786040Y-100774641D01*
X217786040Y-100999359D01*
X217742200Y-101219759D01*
X217656204Y-101427372D01*
X217531357Y-101614218D01*
X217372458Y-101773117D01*
X217185612Y-101897964D01*
X216977999Y-101983960D01*
X216757599Y-102027800D01*
X216532881Y-102027800D01*
X216312481Y-101983960D01*
X216104868Y-101897964D01*
X215918022Y-101773117D01*
X215759123Y-101614218D01*
X215634276Y-101427372D01*
X215548280Y-101219759D01*
X215504440Y-100999359D01*
X215504440Y-100774641D01*
X215548280Y-100554241D01*
X215634276Y-100346628D01*
X215759123Y-100159782D01*
X215918022Y-100000883D01*
X216104868Y-99876036D01*
X216312481Y-99790040D01*
X216532881Y-99746200D01*
X216757599Y-99746200D01*
X216977999Y-99790040D01*
G37*
G36*
X212977999Y-99790040D02*
G01*
X213185612Y-99876036D01*
X213372458Y-100000883D01*
X213531357Y-100159782D01*
X213656204Y-100346628D01*
X213742200Y-100554241D01*
X213786040Y-100774641D01*
X213786040Y-100999359D01*
X213742200Y-101219759D01*
X213656204Y-101427372D01*
X213531357Y-101614218D01*
X213372458Y-101773117D01*
X213185612Y-101897964D01*
X212977999Y-101983960D01*
X212757599Y-102027800D01*
X212532881Y-102027800D01*
X212312481Y-101983960D01*
X212104868Y-101897964D01*
X211918022Y-101773117D01*
X211759123Y-101614218D01*
X211634276Y-101427372D01*
X211548280Y-101219759D01*
X211504440Y-100999359D01*
X211504440Y-100774641D01*
X211548280Y-100554241D01*
X211634276Y-100346628D01*
X211759123Y-100159782D01*
X211918022Y-100000883D01*
X212104868Y-99876036D01*
X212312481Y-99790040D01*
X212532881Y-99746200D01*
X212757599Y-99746200D01*
X212977999Y-99790040D01*
G37*
G36*
X208977999Y-99790040D02*
G01*
X209185612Y-99876036D01*
X209372458Y-100000883D01*
X209531357Y-100159782D01*
X209656204Y-100346628D01*
X209742200Y-100554241D01*
X209786040Y-100774641D01*
X209786040Y-100999359D01*
X209742200Y-101219759D01*
X209656204Y-101427372D01*
X209531357Y-101614218D01*
X209372458Y-101773117D01*
X209185612Y-101897964D01*
X208977999Y-101983960D01*
X208757599Y-102027800D01*
X208532881Y-102027800D01*
X208312481Y-101983960D01*
X208104868Y-101897964D01*
X207918022Y-101773117D01*
X207759123Y-101614218D01*
X207634276Y-101427372D01*
X207548280Y-101219759D01*
X207504440Y-100999359D01*
X207504440Y-100774641D01*
X207548280Y-100554241D01*
X207634276Y-100346628D01*
X207759123Y-100159782D01*
X207918022Y-100000883D01*
X208104868Y-99876036D01*
X208312481Y-99790040D01*
X208532881Y-99746200D01*
X208757599Y-99746200D01*
X208977999Y-99790040D01*
G37*
G36*
X106554039Y-99790040D02*
G01*
X106761652Y-99876036D01*
X106948498Y-100000883D01*
X107107397Y-100159782D01*
X107232244Y-100346628D01*
X107318240Y-100554241D01*
X107362080Y-100774641D01*
X107362080Y-100999359D01*
X107318240Y-101219759D01*
X107232244Y-101427372D01*
X107107397Y-101614218D01*
X106948498Y-101773117D01*
X106761652Y-101897964D01*
X106554039Y-101983960D01*
X106333639Y-102027800D01*
X106108921Y-102027800D01*
X105888521Y-101983960D01*
X105680908Y-101897964D01*
X105494062Y-101773117D01*
X105335163Y-101614218D01*
X105210316Y-101427372D01*
X105124320Y-101219759D01*
X105080480Y-100999359D01*
X105080480Y-100774641D01*
X105124320Y-100554241D01*
X105210316Y-100346628D01*
X105335163Y-100159782D01*
X105494062Y-100000883D01*
X105680908Y-99876036D01*
X105888521Y-99790040D01*
X106108921Y-99746200D01*
X106333639Y-99746200D01*
X106554039Y-99790040D01*
G37*
G36*
X102554039Y-99790040D02*
G01*
X102761652Y-99876036D01*
X102948498Y-100000883D01*
X103107397Y-100159782D01*
X103232244Y-100346628D01*
X103318240Y-100554241D01*
X103362080Y-100774641D01*
X103362080Y-100999359D01*
X103318240Y-101219759D01*
X103232244Y-101427372D01*
X103107397Y-101614218D01*
X102948498Y-101773117D01*
X102761652Y-101897964D01*
X102554039Y-101983960D01*
X102333639Y-102027800D01*
X102108921Y-102027800D01*
X101888521Y-101983960D01*
X101680908Y-101897964D01*
X101494062Y-101773117D01*
X101335163Y-101614218D01*
X101210316Y-101427372D01*
X101124320Y-101219759D01*
X101080480Y-100999359D01*
X101080480Y-100774641D01*
X101124320Y-100554241D01*
X101210316Y-100346628D01*
X101335163Y-100159782D01*
X101494062Y-100000883D01*
X101680908Y-99876036D01*
X101888521Y-99790040D01*
X102108921Y-99746200D01*
X102333639Y-99746200D01*
X102554039Y-99790040D01*
G37*
G36*
X98554039Y-99790040D02*
G01*
X98761652Y-99876036D01*
X98948498Y-100000883D01*
X99107397Y-100159782D01*
X99232244Y-100346628D01*
X99318240Y-100554241D01*
X99362080Y-100774641D01*
X99362080Y-100999359D01*
X99318240Y-101219759D01*
X99232244Y-101427372D01*
X99107397Y-101614218D01*
X98948498Y-101773117D01*
X98761652Y-101897964D01*
X98554039Y-101983960D01*
X98333639Y-102027800D01*
X98108921Y-102027800D01*
X97888521Y-101983960D01*
X97680908Y-101897964D01*
X97494062Y-101773117D01*
X97335163Y-101614218D01*
X97210316Y-101427372D01*
X97124320Y-101219759D01*
X97080480Y-100999359D01*
X97080480Y-100774641D01*
X97124320Y-100554241D01*
X97210316Y-100346628D01*
X97335163Y-100159782D01*
X97494062Y-100000883D01*
X97680908Y-99876036D01*
X97888521Y-99790040D01*
X98108921Y-99746200D01*
X98333639Y-99746200D01*
X98554039Y-99790040D01*
G37*
G36*
X151323059Y-97772540D02*
G01*
X151530672Y-97858536D01*
X151717518Y-97983383D01*
X151876417Y-98142282D01*
X152001264Y-98329128D01*
X152087260Y-98536741D01*
X152131100Y-98757141D01*
X152131100Y-98981859D01*
X152087260Y-99202259D01*
X152001264Y-99409872D01*
X151876417Y-99596718D01*
X151717518Y-99755617D01*
X151530672Y-99880464D01*
X151323059Y-99966460D01*
X151102659Y-100010300D01*
X150877941Y-100010300D01*
X150657541Y-99966460D01*
X150449928Y-99880464D01*
X150263082Y-99755617D01*
X150104183Y-99596718D01*
X149979336Y-99409872D01*
X149893340Y-99202259D01*
X149849500Y-98981859D01*
X149849500Y-98757141D01*
X149893340Y-98536741D01*
X149979336Y-98329128D01*
X150104183Y-98142282D01*
X150263082Y-97983383D01*
X150449928Y-97858536D01*
X150657541Y-97772540D01*
X150877941Y-97728700D01*
X151102659Y-97728700D01*
X151323059Y-97772540D01*
G37*
G36*
X147323059Y-97772540D02*
G01*
X147530672Y-97858536D01*
X147717518Y-97983383D01*
X147876417Y-98142282D01*
X148001264Y-98329128D01*
X148087260Y-98536741D01*
X148131100Y-98757141D01*
X148131100Y-98981859D01*
X148087260Y-99202259D01*
X148001264Y-99409872D01*
X147876417Y-99596718D01*
X147717518Y-99755617D01*
X147530672Y-99880464D01*
X147323059Y-99966460D01*
X147102659Y-100010300D01*
X146877941Y-100010300D01*
X146657541Y-99966460D01*
X146449928Y-99880464D01*
X146263082Y-99755617D01*
X146104183Y-99596718D01*
X145979336Y-99409872D01*
X145893340Y-99202259D01*
X145849500Y-98981859D01*
X145849500Y-98757141D01*
X145893340Y-98536741D01*
X145979336Y-98329128D01*
X146104183Y-98142282D01*
X146263082Y-97983383D01*
X146449928Y-97858536D01*
X146657541Y-97772540D01*
X146877941Y-97728700D01*
X147102659Y-97728700D01*
X147323059Y-97772540D01*
G37*
G36*
X143323059Y-97772540D02*
G01*
X143530672Y-97858536D01*
X143717518Y-97983383D01*
X143876417Y-98142282D01*
X144001264Y-98329128D01*
X144087260Y-98536741D01*
X144131100Y-98757141D01*
X144131100Y-98981859D01*
X144087260Y-99202259D01*
X144001264Y-99409872D01*
X143876417Y-99596718D01*
X143717518Y-99755617D01*
X143530672Y-99880464D01*
X143323059Y-99966460D01*
X143102659Y-100010300D01*
X142877941Y-100010300D01*
X142657541Y-99966460D01*
X142449928Y-99880464D01*
X142263082Y-99755617D01*
X142104183Y-99596718D01*
X141979336Y-99409872D01*
X141893340Y-99202259D01*
X141849500Y-98981859D01*
X141849500Y-98757141D01*
X141893340Y-98536741D01*
X141979336Y-98329128D01*
X142104183Y-98142282D01*
X142263082Y-97983383D01*
X142449928Y-97858536D01*
X142657541Y-97772540D01*
X142877941Y-97728700D01*
X143102659Y-97728700D01*
X143323059Y-97772540D01*
G37*
G36*
X139323059Y-97772540D02*
G01*
X139530672Y-97858536D01*
X139717518Y-97983383D01*
X139876417Y-98142282D01*
X140001264Y-98329128D01*
X140087260Y-98536741D01*
X140131100Y-98757141D01*
X140131100Y-98981859D01*
X140087260Y-99202259D01*
X140001264Y-99409872D01*
X139876417Y-99596718D01*
X139717518Y-99755617D01*
X139530672Y-99880464D01*
X139323059Y-99966460D01*
X139102659Y-100010300D01*
X138877941Y-100010300D01*
X138657541Y-99966460D01*
X138449928Y-99880464D01*
X138263082Y-99755617D01*
X138104183Y-99596718D01*
X137979336Y-99409872D01*
X137893340Y-99202259D01*
X137849500Y-98981859D01*
X137849500Y-98757141D01*
X137893340Y-98536741D01*
X137979336Y-98329128D01*
X138104183Y-98142282D01*
X138263082Y-97983383D01*
X138449928Y-97858536D01*
X138657541Y-97772540D01*
X138877941Y-97728700D01*
X139102659Y-97728700D01*
X139323059Y-97772540D01*
G37*
G36*
X132823059Y-97772540D02*
G01*
X133030672Y-97858536D01*
X133217518Y-97983383D01*
X133376417Y-98142282D01*
X133501264Y-98329128D01*
X133587260Y-98536741D01*
X133631100Y-98757141D01*
X133631100Y-98981859D01*
X133587260Y-99202259D01*
X133501264Y-99409872D01*
X133376417Y-99596718D01*
X133217518Y-99755617D01*
X133030672Y-99880464D01*
X132823059Y-99966460D01*
X132602659Y-100010300D01*
X132377941Y-100010300D01*
X132157541Y-99966460D01*
X131949928Y-99880464D01*
X131763082Y-99755617D01*
X131604183Y-99596718D01*
X131479336Y-99409872D01*
X131393340Y-99202259D01*
X131349500Y-98981859D01*
X131349500Y-98757141D01*
X131393340Y-98536741D01*
X131479336Y-98329128D01*
X131604183Y-98142282D01*
X131763082Y-97983383D01*
X131949928Y-97858536D01*
X132157541Y-97772540D01*
X132377941Y-97728700D01*
X132602659Y-97728700D01*
X132823059Y-97772540D01*
G37*
G36*
X128823059Y-97772540D02*
G01*
X129030672Y-97858536D01*
X129217518Y-97983383D01*
X129376417Y-98142282D01*
X129501264Y-98329128D01*
X129587260Y-98536741D01*
X129631100Y-98757141D01*
X129631100Y-98981859D01*
X129587260Y-99202259D01*
X129501264Y-99409872D01*
X129376417Y-99596718D01*
X129217518Y-99755617D01*
X129030672Y-99880464D01*
X128823059Y-99966460D01*
X128602659Y-100010300D01*
X128377941Y-100010300D01*
X128157541Y-99966460D01*
X127949928Y-99880464D01*
X127763082Y-99755617D01*
X127604183Y-99596718D01*
X127479336Y-99409872D01*
X127393340Y-99202259D01*
X127349500Y-98981859D01*
X127349500Y-98757141D01*
X127393340Y-98536741D01*
X127479336Y-98329128D01*
X127604183Y-98142282D01*
X127763082Y-97983383D01*
X127949928Y-97858536D01*
X128157541Y-97772540D01*
X128377941Y-97728700D01*
X128602659Y-97728700D01*
X128823059Y-97772540D01*
G37*
G36*
X124823059Y-97772540D02*
G01*
X125030672Y-97858536D01*
X125217518Y-97983383D01*
X125376417Y-98142282D01*
X125501264Y-98329128D01*
X125587260Y-98536741D01*
X125631100Y-98757141D01*
X125631100Y-98981859D01*
X125587260Y-99202259D01*
X125501264Y-99409872D01*
X125376417Y-99596718D01*
X125217518Y-99755617D01*
X125030672Y-99880464D01*
X124823059Y-99966460D01*
X124602659Y-100010300D01*
X124377941Y-100010300D01*
X124157541Y-99966460D01*
X123949928Y-99880464D01*
X123763082Y-99755617D01*
X123604183Y-99596718D01*
X123479336Y-99409872D01*
X123393340Y-99202259D01*
X123349500Y-98981859D01*
X123349500Y-98757141D01*
X123393340Y-98536741D01*
X123479336Y-98329128D01*
X123604183Y-98142282D01*
X123763082Y-97983383D01*
X123949928Y-97858536D01*
X124157541Y-97772540D01*
X124377941Y-97728700D01*
X124602659Y-97728700D01*
X124823059Y-97772540D01*
G37*
G36*
X168196279Y-97762380D02*
G01*
X168403892Y-97848376D01*
X168590738Y-97973223D01*
X168749637Y-98132122D01*
X168874484Y-98318968D01*
X168960480Y-98526581D01*
X169004320Y-98746981D01*
X169004320Y-98971699D01*
X168960480Y-99192099D01*
X168874484Y-99399712D01*
X168749637Y-99586558D01*
X168590738Y-99745457D01*
X168403892Y-99870304D01*
X168196279Y-99956300D01*
X167975879Y-100000140D01*
X167751161Y-100000140D01*
X167530761Y-99956300D01*
X167323148Y-99870304D01*
X167136302Y-99745457D01*
X166977403Y-99586558D01*
X166852556Y-99399712D01*
X166766560Y-99192099D01*
X166722720Y-98971699D01*
X166722720Y-98746981D01*
X166766560Y-98526581D01*
X166852556Y-98318968D01*
X166977403Y-98132122D01*
X167136302Y-97973223D01*
X167323148Y-97848376D01*
X167530761Y-97762380D01*
X167751161Y-97718540D01*
X167975879Y-97718540D01*
X168196279Y-97762380D01*
G37*
G36*
X172196279Y-97762380D02*
G01*
X172403892Y-97848376D01*
X172590738Y-97973223D01*
X172749637Y-98132122D01*
X172874484Y-98318968D01*
X172960480Y-98526581D01*
X173004320Y-98746981D01*
X173004320Y-98971699D01*
X172960480Y-99192099D01*
X172874484Y-99399712D01*
X172749637Y-99586558D01*
X172590738Y-99745457D01*
X172403892Y-99870304D01*
X172196279Y-99956300D01*
X171975879Y-100000140D01*
X171751161Y-100000140D01*
X171530761Y-99956300D01*
X171323148Y-99870304D01*
X171136302Y-99745457D01*
X170977403Y-99586558D01*
X170852556Y-99399712D01*
X170766560Y-99192099D01*
X170722720Y-98971699D01*
X170722720Y-98746981D01*
X170766560Y-98526581D01*
X170852556Y-98318968D01*
X170977403Y-98132122D01*
X171136302Y-97973223D01*
X171323148Y-97848376D01*
X171530761Y-97762380D01*
X171751161Y-97718540D01*
X171975879Y-97718540D01*
X172196279Y-97762380D01*
G37*
G36*
X176196279Y-97762380D02*
G01*
X176403892Y-97848376D01*
X176590738Y-97973223D01*
X176749637Y-98132122D01*
X176874484Y-98318968D01*
X176960480Y-98526581D01*
X177004320Y-98746981D01*
X177004320Y-98971699D01*
X176960480Y-99192099D01*
X176874484Y-99399712D01*
X176749637Y-99586558D01*
X176590738Y-99745457D01*
X176403892Y-99870304D01*
X176196279Y-99956300D01*
X175975879Y-100000140D01*
X175751161Y-100000140D01*
X175530761Y-99956300D01*
X175323148Y-99870304D01*
X175136302Y-99745457D01*
X174977403Y-99586558D01*
X174852556Y-99399712D01*
X174766560Y-99192099D01*
X174722720Y-98971699D01*
X174722720Y-98746981D01*
X174766560Y-98526581D01*
X174852556Y-98318968D01*
X174977403Y-98132122D01*
X175136302Y-97973223D01*
X175323148Y-97848376D01*
X175530761Y-97762380D01*
X175751161Y-97718540D01*
X175975879Y-97718540D01*
X176196279Y-97762380D01*
G37*
G36*
X180196279Y-97762380D02*
G01*
X180403892Y-97848376D01*
X180590738Y-97973223D01*
X180749637Y-98132122D01*
X180874484Y-98318968D01*
X180960480Y-98526581D01*
X181004320Y-98746981D01*
X181004320Y-98971699D01*
X180960480Y-99192099D01*
X180874484Y-99399712D01*
X180749637Y-99586558D01*
X180590738Y-99745457D01*
X180403892Y-99870304D01*
X180196279Y-99956300D01*
X179975879Y-100000140D01*
X179751161Y-100000140D01*
X179530761Y-99956300D01*
X179323148Y-99870304D01*
X179136302Y-99745457D01*
X178977403Y-99586558D01*
X178852556Y-99399712D01*
X178766560Y-99192099D01*
X178722720Y-98971699D01*
X178722720Y-98746981D01*
X178766560Y-98526581D01*
X178852556Y-98318968D01*
X178977403Y-98132122D01*
X179136302Y-97973223D01*
X179323148Y-97848376D01*
X179530761Y-97762380D01*
X179751161Y-97718540D01*
X179975879Y-97718540D01*
X180196279Y-97762380D01*
G37*
G36*
X186696279Y-97762380D02*
G01*
X186903892Y-97848376D01*
X187090738Y-97973223D01*
X187249637Y-98132122D01*
X187374484Y-98318968D01*
X187460480Y-98526581D01*
X187504320Y-98746981D01*
X187504320Y-98971699D01*
X187460480Y-99192099D01*
X187374484Y-99399712D01*
X187249637Y-99586558D01*
X187090738Y-99745457D01*
X186903892Y-99870304D01*
X186696279Y-99956300D01*
X186475879Y-100000140D01*
X186251161Y-100000140D01*
X186030761Y-99956300D01*
X185823148Y-99870304D01*
X185636302Y-99745457D01*
X185477403Y-99586558D01*
X185352556Y-99399712D01*
X185266560Y-99192099D01*
X185222720Y-98971699D01*
X185222720Y-98746981D01*
X185266560Y-98526581D01*
X185352556Y-98318968D01*
X185477403Y-98132122D01*
X185636302Y-97973223D01*
X185823148Y-97848376D01*
X186030761Y-97762380D01*
X186251161Y-97718540D01*
X186475879Y-97718540D01*
X186696279Y-97762380D01*
G37*
G36*
X190696279Y-97762380D02*
G01*
X190903892Y-97848376D01*
X191090738Y-97973223D01*
X191249637Y-98132122D01*
X191374484Y-98318968D01*
X191460480Y-98526581D01*
X191504320Y-98746981D01*
X191504320Y-98971699D01*
X191460480Y-99192099D01*
X191374484Y-99399712D01*
X191249637Y-99586558D01*
X191090738Y-99745457D01*
X190903892Y-99870304D01*
X190696279Y-99956300D01*
X190475879Y-100000140D01*
X190251161Y-100000140D01*
X190030761Y-99956300D01*
X189823148Y-99870304D01*
X189636302Y-99745457D01*
X189477403Y-99586558D01*
X189352556Y-99399712D01*
X189266560Y-99192099D01*
X189222720Y-98971699D01*
X189222720Y-98746981D01*
X189266560Y-98526581D01*
X189352556Y-98318968D01*
X189477403Y-98132122D01*
X189636302Y-97973223D01*
X189823148Y-97848376D01*
X190030761Y-97762380D01*
X190251161Y-97718540D01*
X190475879Y-97718540D01*
X190696279Y-97762380D01*
G37*
G36*
X194696279Y-97762380D02*
G01*
X194903892Y-97848376D01*
X195090738Y-97973223D01*
X195249637Y-98132122D01*
X195374484Y-98318968D01*
X195460480Y-98526581D01*
X195504320Y-98746981D01*
X195504320Y-98971699D01*
X195460480Y-99192099D01*
X195374484Y-99399712D01*
X195249637Y-99586558D01*
X195090738Y-99745457D01*
X194903892Y-99870304D01*
X194696279Y-99956300D01*
X194475879Y-100000140D01*
X194251161Y-100000140D01*
X194030761Y-99956300D01*
X193823148Y-99870304D01*
X193636302Y-99745457D01*
X193477403Y-99586558D01*
X193352556Y-99399712D01*
X193266560Y-99192099D01*
X193222720Y-98971699D01*
X193222720Y-98746981D01*
X193266560Y-98526581D01*
X193352556Y-98318968D01*
X193477403Y-98132122D01*
X193636302Y-97973223D01*
X193823148Y-97848376D01*
X194030761Y-97762380D01*
X194251161Y-97718540D01*
X194475879Y-97718540D01*
X194696279Y-97762380D01*
G37*
G36*
X212977999Y-95790040D02*
G01*
X213185612Y-95876036D01*
X213372458Y-96000883D01*
X213531357Y-96159782D01*
X213656204Y-96346628D01*
X213742200Y-96554241D01*
X213786040Y-96774641D01*
X213786040Y-96999359D01*
X213742200Y-97219759D01*
X213656204Y-97427372D01*
X213531357Y-97614218D01*
X213372458Y-97773117D01*
X213185612Y-97897964D01*
X212977999Y-97983960D01*
X212757599Y-98027800D01*
X212532881Y-98027800D01*
X212312481Y-97983960D01*
X212104868Y-97897964D01*
X211918022Y-97773117D01*
X211759123Y-97614218D01*
X211634276Y-97427372D01*
X211548280Y-97219759D01*
X211504440Y-96999359D01*
X211504440Y-96774641D01*
X211548280Y-96554241D01*
X211634276Y-96346628D01*
X211759123Y-96159782D01*
X211918022Y-96000883D01*
X212104868Y-95876036D01*
X212312481Y-95790040D01*
X212532881Y-95746200D01*
X212757599Y-95746200D01*
X212977999Y-95790040D01*
G37*
G36*
X216977999Y-95790040D02*
G01*
X217185612Y-95876036D01*
X217372458Y-96000883D01*
X217531357Y-96159782D01*
X217656204Y-96346628D01*
X217742200Y-96554241D01*
X217786040Y-96774641D01*
X217786040Y-96999359D01*
X217742200Y-97219759D01*
X217656204Y-97427372D01*
X217531357Y-97614218D01*
X217372458Y-97773117D01*
X217185612Y-97897964D01*
X216977999Y-97983960D01*
X216757599Y-98027800D01*
X216532881Y-98027800D01*
X216312481Y-97983960D01*
X216104868Y-97897964D01*
X215918022Y-97773117D01*
X215759123Y-97614218D01*
X215634276Y-97427372D01*
X215548280Y-97219759D01*
X215504440Y-96999359D01*
X215504440Y-96774641D01*
X215548280Y-96554241D01*
X215634276Y-96346628D01*
X215759123Y-96159782D01*
X215918022Y-96000883D01*
X216104868Y-95876036D01*
X216312481Y-95790040D01*
X216532881Y-95746200D01*
X216757599Y-95746200D01*
X216977999Y-95790040D01*
G37*
G36*
X220977999Y-95790040D02*
G01*
X221185612Y-95876036D01*
X221372458Y-96000883D01*
X221531357Y-96159782D01*
X221656204Y-96346628D01*
X221742200Y-96554241D01*
X221786040Y-96774641D01*
X221786040Y-96999359D01*
X221742200Y-97219759D01*
X221656204Y-97427372D01*
X221531357Y-97614218D01*
X221372458Y-97773117D01*
X221185612Y-97897964D01*
X220977999Y-97983960D01*
X220757599Y-98027800D01*
X220532881Y-98027800D01*
X220312481Y-97983960D01*
X220104868Y-97897964D01*
X219918022Y-97773117D01*
X219759123Y-97614218D01*
X219634276Y-97427372D01*
X219548280Y-97219759D01*
X219504440Y-96999359D01*
X219504440Y-96774641D01*
X219548280Y-96554241D01*
X219634276Y-96346628D01*
X219759123Y-96159782D01*
X219918022Y-96000883D01*
X220104868Y-95876036D01*
X220312481Y-95790040D01*
X220532881Y-95746200D01*
X220757599Y-95746200D01*
X220977999Y-95790040D01*
G37*
G36*
X110554039Y-95790040D02*
G01*
X110761652Y-95876036D01*
X110948498Y-96000883D01*
X111107397Y-96159782D01*
X111232244Y-96346628D01*
X111318240Y-96554241D01*
X111362080Y-96774641D01*
X111362080Y-96999359D01*
X111318240Y-97219759D01*
X111232244Y-97427372D01*
X111107397Y-97614218D01*
X110948498Y-97773117D01*
X110761652Y-97897964D01*
X110554039Y-97983960D01*
X110333639Y-98027800D01*
X110108921Y-98027800D01*
X109888521Y-97983960D01*
X109680908Y-97897964D01*
X109494062Y-97773117D01*
X109335163Y-97614218D01*
X109210316Y-97427372D01*
X109124320Y-97219759D01*
X109080480Y-96999359D01*
X109080480Y-96774641D01*
X109124320Y-96554241D01*
X109210316Y-96346628D01*
X109335163Y-96159782D01*
X109494062Y-96000883D01*
X109680908Y-95876036D01*
X109888521Y-95790040D01*
X110108921Y-95746200D01*
X110333639Y-95746200D01*
X110554039Y-95790040D01*
G37*
G36*
X106554039Y-95790040D02*
G01*
X106761652Y-95876036D01*
X106948498Y-96000883D01*
X107107397Y-96159782D01*
X107232244Y-96346628D01*
X107318240Y-96554241D01*
X107362080Y-96774641D01*
X107362080Y-96999359D01*
X107318240Y-97219759D01*
X107232244Y-97427372D01*
X107107397Y-97614218D01*
X106948498Y-97773117D01*
X106761652Y-97897964D01*
X106554039Y-97983960D01*
X106333639Y-98027800D01*
X106108921Y-98027800D01*
X105888521Y-97983960D01*
X105680908Y-97897964D01*
X105494062Y-97773117D01*
X105335163Y-97614218D01*
X105210316Y-97427372D01*
X105124320Y-97219759D01*
X105080480Y-96999359D01*
X105080480Y-96774641D01*
X105124320Y-96554241D01*
X105210316Y-96346628D01*
X105335163Y-96159782D01*
X105494062Y-96000883D01*
X105680908Y-95876036D01*
X105888521Y-95790040D01*
X106108921Y-95746200D01*
X106333639Y-95746200D01*
X106554039Y-95790040D01*
G37*
G36*
X102554039Y-95790040D02*
G01*
X102761652Y-95876036D01*
X102948498Y-96000883D01*
X103107397Y-96159782D01*
X103232244Y-96346628D01*
X103318240Y-96554241D01*
X103362080Y-96774641D01*
X103362080Y-96999359D01*
X103318240Y-97219759D01*
X103232244Y-97427372D01*
X103107397Y-97614218D01*
X102948498Y-97773117D01*
X102761652Y-97897964D01*
X102554039Y-97983960D01*
X102333639Y-98027800D01*
X102108921Y-98027800D01*
X101888521Y-97983960D01*
X101680908Y-97897964D01*
X101494062Y-97773117D01*
X101335163Y-97614218D01*
X101210316Y-97427372D01*
X101124320Y-97219759D01*
X101080480Y-96999359D01*
X101080480Y-96774641D01*
X101124320Y-96554241D01*
X101210316Y-96346628D01*
X101335163Y-96159782D01*
X101494062Y-96000883D01*
X101680908Y-95876036D01*
X101888521Y-95790040D01*
X102108921Y-95746200D01*
X102333639Y-95746200D01*
X102554039Y-95790040D01*
G37*
G36*
X98554039Y-95790040D02*
G01*
X98761652Y-95876036D01*
X98948498Y-96000883D01*
X99107397Y-96159782D01*
X99232244Y-96346628D01*
X99318240Y-96554241D01*
X99362080Y-96774641D01*
X99362080Y-96999359D01*
X99318240Y-97219759D01*
X99232244Y-97427372D01*
X99107397Y-97614218D01*
X98948498Y-97773117D01*
X98761652Y-97897964D01*
X98554039Y-97983960D01*
X98333639Y-98027800D01*
X98108921Y-98027800D01*
X97888521Y-97983960D01*
X97680908Y-97897964D01*
X97494062Y-97773117D01*
X97335163Y-97614218D01*
X97210316Y-97427372D01*
X97124320Y-97219759D01*
X97080480Y-96999359D01*
X97080480Y-96774641D01*
X97124320Y-96554241D01*
X97210316Y-96346628D01*
X97335163Y-96159782D01*
X97494062Y-96000883D01*
X97680908Y-95876036D01*
X97888521Y-95790040D01*
X98108921Y-95746200D01*
X98333639Y-95746200D01*
X98554039Y-95790040D01*
G37*
G36*
X171780315Y-93508122D02*
G01*
X171928538Y-93537605D01*
X172137969Y-93624354D01*
X172326453Y-93750295D01*
X172486745Y-93910587D01*
X172612686Y-94099071D01*
X172699435Y-94308502D01*
X172743660Y-94530837D01*
X172743660Y-94757523D01*
X172699435Y-94979858D01*
X172612686Y-95189289D01*
X172486745Y-95377773D01*
X172326453Y-95538065D01*
X172137969Y-95664006D01*
X171928538Y-95750755D01*
X171780315Y-95780238D01*
X171706204Y-95794980D01*
X171479516Y-95794980D01*
X171405405Y-95780238D01*
X171257182Y-95750755D01*
X171047751Y-95664006D01*
X170859267Y-95538065D01*
X170698975Y-95377773D01*
X170573034Y-95189289D01*
X170486285Y-94979858D01*
X170442060Y-94757523D01*
X170442060Y-94530837D01*
X170486285Y-94308502D01*
X170573034Y-94099071D01*
X170698975Y-93910587D01*
X170859267Y-93750295D01*
X171047751Y-93624354D01*
X171257182Y-93537605D01*
X171405405Y-93508122D01*
X171479516Y-93493380D01*
X171706204Y-93493380D01*
X171780315Y-93508122D01*
G37*
G36*
X188460315Y-93508122D02*
G01*
X188608538Y-93537605D01*
X188817969Y-93624354D01*
X189006453Y-93750295D01*
X189166745Y-93910587D01*
X189292686Y-94099071D01*
X189379435Y-94308502D01*
X189423660Y-94530837D01*
X189423660Y-94757523D01*
X189379435Y-94979858D01*
X189292686Y-95189289D01*
X189166745Y-95377773D01*
X189006453Y-95538065D01*
X188817969Y-95664006D01*
X188608538Y-95750755D01*
X188460315Y-95780238D01*
X188386204Y-95794980D01*
X188159516Y-95794980D01*
X188085405Y-95780238D01*
X187937182Y-95750755D01*
X187727751Y-95664006D01*
X187539267Y-95538065D01*
X187378975Y-95377773D01*
X187253034Y-95189289D01*
X187166285Y-94979858D01*
X187122060Y-94757523D01*
X187122060Y-94530837D01*
X187166285Y-94308502D01*
X187253034Y-94099071D01*
X187378975Y-93910587D01*
X187539267Y-93750295D01*
X187727751Y-93624354D01*
X187937182Y-93537605D01*
X188085405Y-93508122D01*
X188159516Y-93493380D01*
X188386204Y-93493380D01*
X188460315Y-93508122D01*
G37*
G36*
X185680315Y-93508122D02*
G01*
X185828538Y-93537605D01*
X186037969Y-93624354D01*
X186226453Y-93750295D01*
X186386745Y-93910587D01*
X186512686Y-94099071D01*
X186599435Y-94308502D01*
X186643660Y-94530837D01*
X186643660Y-94757523D01*
X186599435Y-94979858D01*
X186512686Y-95189289D01*
X186386745Y-95377773D01*
X186226453Y-95538065D01*
X186037969Y-95664006D01*
X185828538Y-95750755D01*
X185680315Y-95780238D01*
X185606204Y-95794980D01*
X185379516Y-95794980D01*
X185305405Y-95780238D01*
X185157182Y-95750755D01*
X184947751Y-95664006D01*
X184759267Y-95538065D01*
X184598975Y-95377773D01*
X184473034Y-95189289D01*
X184386285Y-94979858D01*
X184342060Y-94757523D01*
X184342060Y-94530837D01*
X184386285Y-94308502D01*
X184473034Y-94099071D01*
X184598975Y-93910587D01*
X184759267Y-93750295D01*
X184947751Y-93624354D01*
X185157182Y-93537605D01*
X185305405Y-93508122D01*
X185379516Y-93493380D01*
X185606204Y-93493380D01*
X185680315Y-93508122D01*
G37*
G36*
X182900315Y-93508122D02*
G01*
X183048538Y-93537605D01*
X183257969Y-93624354D01*
X183446453Y-93750295D01*
X183606745Y-93910587D01*
X183732686Y-94099071D01*
X183819435Y-94308502D01*
X183863660Y-94530837D01*
X183863660Y-94757523D01*
X183819435Y-94979858D01*
X183732686Y-95189289D01*
X183606745Y-95377773D01*
X183446453Y-95538065D01*
X183257969Y-95664006D01*
X183048538Y-95750755D01*
X182900315Y-95780238D01*
X182826204Y-95794980D01*
X182599516Y-95794980D01*
X182525405Y-95780238D01*
X182377182Y-95750755D01*
X182167751Y-95664006D01*
X181979267Y-95538065D01*
X181818975Y-95377773D01*
X181693034Y-95189289D01*
X181606285Y-94979858D01*
X181562060Y-94757523D01*
X181562060Y-94530837D01*
X181606285Y-94308502D01*
X181693034Y-94099071D01*
X181818975Y-93910587D01*
X181979267Y-93750295D01*
X182167751Y-93624354D01*
X182377182Y-93537605D01*
X182525405Y-93508122D01*
X182599516Y-93493380D01*
X182826204Y-93493380D01*
X182900315Y-93508122D01*
G37*
G36*
X180120315Y-93508122D02*
G01*
X180268538Y-93537605D01*
X180477969Y-93624354D01*
X180666453Y-93750295D01*
X180826745Y-93910587D01*
X180952686Y-94099071D01*
X181039435Y-94308502D01*
X181083660Y-94530837D01*
X181083660Y-94757523D01*
X181039435Y-94979858D01*
X180952686Y-95189289D01*
X180826745Y-95377773D01*
X180666453Y-95538065D01*
X180477969Y-95664006D01*
X180268538Y-95750755D01*
X180120315Y-95780238D01*
X180046204Y-95794980D01*
X179819516Y-95794980D01*
X179745405Y-95780238D01*
X179597182Y-95750755D01*
X179387751Y-95664006D01*
X179199267Y-95538065D01*
X179038975Y-95377773D01*
X178913034Y-95189289D01*
X178826285Y-94979858D01*
X178782060Y-94757523D01*
X178782060Y-94530837D01*
X178826285Y-94308502D01*
X178913034Y-94099071D01*
X179038975Y-93910587D01*
X179199267Y-93750295D01*
X179387751Y-93624354D01*
X179597182Y-93537605D01*
X179745405Y-93508122D01*
X179819516Y-93493380D01*
X180046204Y-93493380D01*
X180120315Y-93508122D01*
G37*
G36*
X177340315Y-93508122D02*
G01*
X177488538Y-93537605D01*
X177697969Y-93624354D01*
X177886453Y-93750295D01*
X178046745Y-93910587D01*
X178172686Y-94099071D01*
X178259435Y-94308502D01*
X178303660Y-94530837D01*
X178303660Y-94757523D01*
X178259435Y-94979858D01*
X178172686Y-95189289D01*
X178046745Y-95377773D01*
X177886453Y-95538065D01*
X177697969Y-95664006D01*
X177488538Y-95750755D01*
X177340315Y-95780238D01*
X177266204Y-95794980D01*
X177039516Y-95794980D01*
X176965405Y-95780238D01*
X176817182Y-95750755D01*
X176607751Y-95664006D01*
X176419267Y-95538065D01*
X176258975Y-95377773D01*
X176133034Y-95189289D01*
X176046285Y-94979858D01*
X176002060Y-94757523D01*
X176002060Y-94530837D01*
X176046285Y-94308502D01*
X176133034Y-94099071D01*
X176258975Y-93910587D01*
X176419267Y-93750295D01*
X176607751Y-93624354D01*
X176817182Y-93537605D01*
X176965405Y-93508122D01*
X177039516Y-93493380D01*
X177266204Y-93493380D01*
X177340315Y-93508122D01*
G37*
G36*
X174560315Y-93508122D02*
G01*
X174708538Y-93537605D01*
X174917969Y-93624354D01*
X175106453Y-93750295D01*
X175266745Y-93910587D01*
X175392686Y-94099071D01*
X175479435Y-94308502D01*
X175523660Y-94530837D01*
X175523660Y-94757523D01*
X175479435Y-94979858D01*
X175392686Y-95189289D01*
X175266745Y-95377773D01*
X175106453Y-95538065D01*
X174917969Y-95664006D01*
X174708538Y-95750755D01*
X174560315Y-95780238D01*
X174486204Y-95794980D01*
X174259516Y-95794980D01*
X174185405Y-95780238D01*
X174037182Y-95750755D01*
X173827751Y-95664006D01*
X173639267Y-95538065D01*
X173478975Y-95377773D01*
X173353034Y-95189289D01*
X173266285Y-94979858D01*
X173222060Y-94757523D01*
X173222060Y-94530837D01*
X173266285Y-94308502D01*
X173353034Y-94099071D01*
X173478975Y-93910587D01*
X173639267Y-93750295D01*
X173827751Y-93624354D01*
X174037182Y-93537605D01*
X174185405Y-93508122D01*
X174259516Y-93493380D01*
X174486204Y-93493380D01*
X174560315Y-93508122D01*
G37*
G36*
X173170315Y-90728122D02*
G01*
X173318538Y-90757605D01*
X173527969Y-90844354D01*
X173716453Y-90970295D01*
X173876745Y-91130587D01*
X174002686Y-91319071D01*
X174089435Y-91528502D01*
X174133660Y-91750837D01*
X174133660Y-91977523D01*
X174089435Y-92199858D01*
X174002686Y-92409289D01*
X173876745Y-92597773D01*
X173716453Y-92758065D01*
X173527969Y-92884006D01*
X173318538Y-92970755D01*
X173170315Y-93000238D01*
X173096204Y-93014980D01*
X172869516Y-93014980D01*
X172795405Y-93000238D01*
X172647182Y-92970755D01*
X172437751Y-92884006D01*
X172249267Y-92758065D01*
X172088975Y-92597773D01*
X171963034Y-92409289D01*
X171876285Y-92199858D01*
X171832060Y-91977523D01*
X171832060Y-91750837D01*
X171876285Y-91528502D01*
X171963034Y-91319071D01*
X172088975Y-91130587D01*
X172249267Y-90970295D01*
X172437751Y-90844354D01*
X172647182Y-90757605D01*
X172795405Y-90728122D01*
X172869516Y-90713380D01*
X173096204Y-90713380D01*
X173170315Y-90728122D01*
G37*
G36*
X175950315Y-90728122D02*
G01*
X176098538Y-90757605D01*
X176307969Y-90844354D01*
X176496453Y-90970295D01*
X176656745Y-91130587D01*
X176782686Y-91319071D01*
X176869435Y-91528502D01*
X176913660Y-91750837D01*
X176913660Y-91977523D01*
X176869435Y-92199858D01*
X176782686Y-92409289D01*
X176656745Y-92597773D01*
X176496453Y-92758065D01*
X176307969Y-92884006D01*
X176098538Y-92970755D01*
X175950315Y-93000238D01*
X175876204Y-93014980D01*
X175649516Y-93014980D01*
X175575405Y-93000238D01*
X175427182Y-92970755D01*
X175217751Y-92884006D01*
X175029267Y-92758065D01*
X174868975Y-92597773D01*
X174743034Y-92409289D01*
X174656285Y-92199858D01*
X174612060Y-91977523D01*
X174612060Y-91750837D01*
X174656285Y-91528502D01*
X174743034Y-91319071D01*
X174868975Y-91130587D01*
X175029267Y-90970295D01*
X175217751Y-90844354D01*
X175427182Y-90757605D01*
X175575405Y-90728122D01*
X175649516Y-90713380D01*
X175876204Y-90713380D01*
X175950315Y-90728122D01*
G37*
G36*
X178730315Y-90728122D02*
G01*
X178878538Y-90757605D01*
X179087969Y-90844354D01*
X179276453Y-90970295D01*
X179436745Y-91130587D01*
X179562686Y-91319071D01*
X179649435Y-91528502D01*
X179693660Y-91750837D01*
X179693660Y-91977523D01*
X179649435Y-92199858D01*
X179562686Y-92409289D01*
X179436745Y-92597773D01*
X179276453Y-92758065D01*
X179087969Y-92884006D01*
X178878538Y-92970755D01*
X178730315Y-93000238D01*
X178656204Y-93014980D01*
X178429516Y-93014980D01*
X178355405Y-93000238D01*
X178207182Y-92970755D01*
X177997751Y-92884006D01*
X177809267Y-92758065D01*
X177648975Y-92597773D01*
X177523034Y-92409289D01*
X177436285Y-92199858D01*
X177392060Y-91977523D01*
X177392060Y-91750837D01*
X177436285Y-91528502D01*
X177523034Y-91319071D01*
X177648975Y-91130587D01*
X177809267Y-90970295D01*
X177997751Y-90844354D01*
X178207182Y-90757605D01*
X178355405Y-90728122D01*
X178429516Y-90713380D01*
X178656204Y-90713380D01*
X178730315Y-90728122D01*
G37*
G36*
X181510315Y-90728122D02*
G01*
X181658538Y-90757605D01*
X181867969Y-90844354D01*
X182056453Y-90970295D01*
X182216745Y-91130587D01*
X182342686Y-91319071D01*
X182429435Y-91528502D01*
X182473660Y-91750837D01*
X182473660Y-91977523D01*
X182429435Y-92199858D01*
X182342686Y-92409289D01*
X182216745Y-92597773D01*
X182056453Y-92758065D01*
X181867969Y-92884006D01*
X181658538Y-92970755D01*
X181510315Y-93000238D01*
X181436204Y-93014980D01*
X181209516Y-93014980D01*
X181135405Y-93000238D01*
X180987182Y-92970755D01*
X180777751Y-92884006D01*
X180589267Y-92758065D01*
X180428975Y-92597773D01*
X180303034Y-92409289D01*
X180216285Y-92199858D01*
X180172060Y-91977523D01*
X180172060Y-91750837D01*
X180216285Y-91528502D01*
X180303034Y-91319071D01*
X180428975Y-91130587D01*
X180589267Y-90970295D01*
X180777751Y-90844354D01*
X180987182Y-90757605D01*
X181135405Y-90728122D01*
X181209516Y-90713380D01*
X181436204Y-90713380D01*
X181510315Y-90728122D01*
G37*
G36*
X184290315Y-90728122D02*
G01*
X184438538Y-90757605D01*
X184647969Y-90844354D01*
X184836453Y-90970295D01*
X184996745Y-91130587D01*
X185122686Y-91319071D01*
X185209435Y-91528502D01*
X185253660Y-91750837D01*
X185253660Y-91977523D01*
X185209435Y-92199858D01*
X185122686Y-92409289D01*
X184996745Y-92597773D01*
X184836453Y-92758065D01*
X184647969Y-92884006D01*
X184438538Y-92970755D01*
X184290315Y-93000238D01*
X184216204Y-93014980D01*
X183989516Y-93014980D01*
X183915405Y-93000238D01*
X183767182Y-92970755D01*
X183557751Y-92884006D01*
X183369267Y-92758065D01*
X183208975Y-92597773D01*
X183083034Y-92409289D01*
X182996285Y-92199858D01*
X182952060Y-91977523D01*
X182952060Y-91750837D01*
X182996285Y-91528502D01*
X183083034Y-91319071D01*
X183208975Y-91130587D01*
X183369267Y-90970295D01*
X183557751Y-90844354D01*
X183767182Y-90757605D01*
X183915405Y-90728122D01*
X183989516Y-90713380D01*
X184216204Y-90713380D01*
X184290315Y-90728122D01*
G37*
G36*
X187070315Y-90728122D02*
G01*
X187218538Y-90757605D01*
X187427969Y-90844354D01*
X187616453Y-90970295D01*
X187776745Y-91130587D01*
X187902686Y-91319071D01*
X187989435Y-91528502D01*
X188033660Y-91750837D01*
X188033660Y-91977523D01*
X187989435Y-92199858D01*
X187902686Y-92409289D01*
X187776745Y-92597773D01*
X187616453Y-92758065D01*
X187427969Y-92884006D01*
X187218538Y-92970755D01*
X187070315Y-93000238D01*
X186996204Y-93014980D01*
X186769516Y-93014980D01*
X186695405Y-93000238D01*
X186547182Y-92970755D01*
X186337751Y-92884006D01*
X186149267Y-92758065D01*
X185988975Y-92597773D01*
X185863034Y-92409289D01*
X185776285Y-92199858D01*
X185732060Y-91977523D01*
X185732060Y-91750837D01*
X185776285Y-91528502D01*
X185863034Y-91319071D01*
X185988975Y-91130587D01*
X186149267Y-90970295D01*
X186337751Y-90844354D01*
X186547182Y-90757605D01*
X186695405Y-90728122D01*
X186769516Y-90713380D01*
X186996204Y-90713380D01*
X187070315Y-90728122D01*
G37*
G36*
X189850315Y-90728122D02*
G01*
X189998538Y-90757605D01*
X190207969Y-90844354D01*
X190396453Y-90970295D01*
X190556745Y-91130587D01*
X190682686Y-91319071D01*
X190769435Y-91528502D01*
X190813660Y-91750837D01*
X190813660Y-91977523D01*
X190769435Y-92199858D01*
X190682686Y-92409289D01*
X190556745Y-92597773D01*
X190396453Y-92758065D01*
X190207969Y-92884006D01*
X189998538Y-92970755D01*
X189850315Y-93000238D01*
X189776204Y-93014980D01*
X189549516Y-93014980D01*
X189475405Y-93000238D01*
X189327182Y-92970755D01*
X189117751Y-92884006D01*
X188929267Y-92758065D01*
X188768975Y-92597773D01*
X188643034Y-92409289D01*
X188556285Y-92199858D01*
X188512060Y-91977523D01*
X188512060Y-91750837D01*
X188556285Y-91528502D01*
X188643034Y-91319071D01*
X188768975Y-91130587D01*
X188929267Y-90970295D01*
X189117751Y-90844354D01*
X189327182Y-90757605D01*
X189475405Y-90728122D01*
X189549516Y-90713380D01*
X189776204Y-90713380D01*
X189850315Y-90728122D01*
G37*
G36*
X170390315Y-90728122D02*
G01*
X170538538Y-90757605D01*
X170747969Y-90844354D01*
X170936453Y-90970295D01*
X171096745Y-91130587D01*
X171222686Y-91319071D01*
X171309435Y-91528502D01*
X171353660Y-91750837D01*
X171353660Y-91977523D01*
X171309435Y-92199858D01*
X171222686Y-92409289D01*
X171096745Y-92597773D01*
X170936453Y-92758065D01*
X170747969Y-92884006D01*
X170538538Y-92970755D01*
X170390315Y-93000238D01*
X170316204Y-93014980D01*
X170089516Y-93014980D01*
X170015405Y-93000238D01*
X169867182Y-92970755D01*
X169657751Y-92884006D01*
X169469267Y-92758065D01*
X169308975Y-92597773D01*
X169183034Y-92409289D01*
X169096285Y-92199858D01*
X169052060Y-91977523D01*
X169052060Y-91750837D01*
X169096285Y-91528502D01*
X169183034Y-91319071D01*
X169308975Y-91130587D01*
X169469267Y-90970295D01*
X169657751Y-90844354D01*
X169867182Y-90757605D01*
X170015405Y-90728122D01*
X170089516Y-90713380D01*
X170316204Y-90713380D01*
X170390315Y-90728122D01*
G37*
M02*
