G04 #@! TF.GenerationSoftware,KiCad,Pcbnew,(5.1.8-0-10_14)*
G04 #@! TF.CreationDate,2020-12-23T00:57:39-05:00*
G04 #@! TF.ProjectId,FamiCoun,46616d69-436f-4756-9e2e-6b696361645f,rev?*
G04 #@! TF.SameCoordinates,Original*
G04 #@! TF.FileFunction,Soldermask,Top*
G04 #@! TF.FilePolarity,Negative*
%FSLAX46Y46*%
G04 Gerber Fmt 4.6, Leading zero omitted, Abs format (unit mm)*
G04 Created by KiCad (PCBNEW (5.1.8-0-10_14)) date 2020-12-23 00:57:39*
%MOMM*%
%LPD*%
G01*
G04 APERTURE LIST*
%ADD10C,0.150000*%
%ADD11C,2.301600*%
%ADD12C,2.281600*%
G04 APERTURE END LIST*
D10*
X90601588Y-90459299D02*
X90649207Y-90411680D01*
X90744445Y-90364060D01*
X90982540Y-90364060D01*
X91077779Y-90411680D01*
X91125398Y-90459299D01*
X91173017Y-90554537D01*
X91173017Y-90649775D01*
X91125398Y-90792632D01*
X90553969Y-91364060D01*
X91173017Y-91364060D01*
X91792064Y-90364060D02*
X91887302Y-90364060D01*
X91982540Y-90411680D01*
X92030160Y-90459299D01*
X92077779Y-90554537D01*
X92125398Y-90745013D01*
X92125398Y-90983108D01*
X92077779Y-91173584D01*
X92030160Y-91268822D01*
X91982540Y-91316441D01*
X91887302Y-91364060D01*
X91792064Y-91364060D01*
X91696826Y-91316441D01*
X91649207Y-91268822D01*
X91601588Y-91173584D01*
X91553969Y-90983108D01*
X91553969Y-90745013D01*
X91601588Y-90554537D01*
X91649207Y-90459299D01*
X91696826Y-90411680D01*
X91792064Y-90364060D01*
X92506350Y-90459299D02*
X92553969Y-90411680D01*
X92649207Y-90364060D01*
X92887302Y-90364060D01*
X92982540Y-90411680D01*
X93030160Y-90459299D01*
X93077779Y-90554537D01*
X93077779Y-90649775D01*
X93030160Y-90792632D01*
X92458731Y-91364060D01*
X93077779Y-91364060D01*
X93696826Y-90364060D02*
X93792064Y-90364060D01*
X93887302Y-90411680D01*
X93934921Y-90459299D01*
X93982540Y-90554537D01*
X94030160Y-90745013D01*
X94030160Y-90983108D01*
X93982540Y-91173584D01*
X93934921Y-91268822D01*
X93887302Y-91316441D01*
X93792064Y-91364060D01*
X93696826Y-91364060D01*
X93601588Y-91316441D01*
X93553969Y-91268822D01*
X93506350Y-91173584D01*
X93458731Y-90983108D01*
X93458731Y-90745013D01*
X93506350Y-90554537D01*
X93553969Y-90459299D01*
X93601588Y-90411680D01*
X93696826Y-90364060D01*
X94458731Y-91268822D02*
X94506350Y-91316441D01*
X94458731Y-91364060D01*
X94411112Y-91316441D01*
X94458731Y-91268822D01*
X94458731Y-91364060D01*
X95982540Y-90364060D02*
X95982540Y-91078346D01*
X95934921Y-91221203D01*
X95839683Y-91316441D01*
X95696826Y-91364060D01*
X95601588Y-91364060D01*
X96839683Y-91316441D02*
X96744445Y-91364060D01*
X96553969Y-91364060D01*
X96458731Y-91316441D01*
X96411112Y-91221203D01*
X96411112Y-90840251D01*
X96458731Y-90745013D01*
X96553969Y-90697394D01*
X96744445Y-90697394D01*
X96839683Y-90745013D01*
X96887302Y-90840251D01*
X96887302Y-90935489D01*
X96411112Y-91030727D01*
X97173017Y-90697394D02*
X97553969Y-90697394D01*
X97315874Y-91364060D02*
X97315874Y-90506918D01*
X97363493Y-90411680D01*
X97458731Y-90364060D01*
X97553969Y-90364060D01*
X97744445Y-90697394D02*
X98125398Y-90697394D01*
X97887302Y-91364060D02*
X97887302Y-90506918D01*
X97934921Y-90411680D01*
X98030160Y-90364060D01*
X98125398Y-90364060D01*
X99792064Y-91268822D02*
X99744445Y-91316441D01*
X99601588Y-91364060D01*
X99506350Y-91364060D01*
X99363493Y-91316441D01*
X99268255Y-91221203D01*
X99220636Y-91125965D01*
X99173017Y-90935489D01*
X99173017Y-90792632D01*
X99220636Y-90602156D01*
X99268255Y-90506918D01*
X99363493Y-90411680D01*
X99506350Y-90364060D01*
X99601588Y-90364060D01*
X99744445Y-90411680D01*
X99792064Y-90459299D01*
X100220636Y-91364060D02*
X100220636Y-90364060D01*
X100649207Y-91364060D02*
X100649207Y-90840251D01*
X100601588Y-90745013D01*
X100506350Y-90697394D01*
X100363493Y-90697394D01*
X100268255Y-90745013D01*
X100220636Y-90792632D01*
X101506350Y-91316441D02*
X101411112Y-91364060D01*
X101220636Y-91364060D01*
X101125398Y-91316441D01*
X101077779Y-91221203D01*
X101077779Y-90840251D01*
X101125398Y-90745013D01*
X101220636Y-90697394D01*
X101411112Y-90697394D01*
X101506350Y-90745013D01*
X101553969Y-90840251D01*
X101553969Y-90935489D01*
X101077779Y-91030727D01*
X101982540Y-90697394D02*
X101982540Y-91364060D01*
X101982540Y-90792632D02*
X102030160Y-90745013D01*
X102125398Y-90697394D01*
X102268255Y-90697394D01*
X102363493Y-90745013D01*
X102411112Y-90840251D01*
X102411112Y-91364060D01*
X89880187Y-88525100D02*
X89880187Y-88715577D01*
X90261140Y-88525100D02*
X90261140Y-88715577D01*
X91023044Y-89001291D02*
X90689711Y-89001291D01*
X90689711Y-89525100D02*
X90689711Y-88525100D01*
X91165901Y-88525100D01*
X91975425Y-89525100D02*
X91975425Y-89001291D01*
X91927806Y-88906053D01*
X91832568Y-88858434D01*
X91642092Y-88858434D01*
X91546854Y-88906053D01*
X91975425Y-89477481D02*
X91880187Y-89525100D01*
X91642092Y-89525100D01*
X91546854Y-89477481D01*
X91499235Y-89382243D01*
X91499235Y-89287005D01*
X91546854Y-89191767D01*
X91642092Y-89144148D01*
X91880187Y-89144148D01*
X91975425Y-89096529D01*
X92451616Y-89525100D02*
X92451616Y-88858434D01*
X92451616Y-88953672D02*
X92499235Y-88906053D01*
X92594473Y-88858434D01*
X92737330Y-88858434D01*
X92832568Y-88906053D01*
X92880187Y-89001291D01*
X92880187Y-89525100D01*
X92880187Y-89001291D02*
X92927806Y-88906053D01*
X93023044Y-88858434D01*
X93165901Y-88858434D01*
X93261140Y-88906053D01*
X93308759Y-89001291D01*
X93308759Y-89525100D01*
X93784949Y-89525100D02*
X93784949Y-88858434D01*
X93784949Y-88525100D02*
X93737330Y-88572720D01*
X93784949Y-88620339D01*
X93832568Y-88572720D01*
X93784949Y-88525100D01*
X93784949Y-88620339D01*
X94832568Y-89429862D02*
X94784949Y-89477481D01*
X94642092Y-89525100D01*
X94546854Y-89525100D01*
X94403997Y-89477481D01*
X94308759Y-89382243D01*
X94261140Y-89287005D01*
X94213520Y-89096529D01*
X94213520Y-88953672D01*
X94261140Y-88763196D01*
X94308759Y-88667958D01*
X94403997Y-88572720D01*
X94546854Y-88525100D01*
X94642092Y-88525100D01*
X94784949Y-88572720D01*
X94832568Y-88620339D01*
X95403997Y-89525100D02*
X95308759Y-89477481D01*
X95261140Y-89429862D01*
X95213520Y-89334624D01*
X95213520Y-89048910D01*
X95261140Y-88953672D01*
X95308759Y-88906053D01*
X95403997Y-88858434D01*
X95546854Y-88858434D01*
X95642092Y-88906053D01*
X95689711Y-88953672D01*
X95737330Y-89048910D01*
X95737330Y-89334624D01*
X95689711Y-89429862D01*
X95642092Y-89477481D01*
X95546854Y-89525100D01*
X95403997Y-89525100D01*
X96594473Y-88858434D02*
X96594473Y-89525100D01*
X96165901Y-88858434D02*
X96165901Y-89382243D01*
X96213520Y-89477481D01*
X96308759Y-89525100D01*
X96451616Y-89525100D01*
X96546854Y-89477481D01*
X96594473Y-89429862D01*
X97070663Y-88858434D02*
X97070663Y-89525100D01*
X97070663Y-88953672D02*
X97118282Y-88906053D01*
X97213520Y-88858434D01*
X97356378Y-88858434D01*
X97451616Y-88906053D01*
X97499235Y-89001291D01*
X97499235Y-89525100D01*
X97927806Y-88525100D02*
X97927806Y-88715577D01*
X98308759Y-88525100D02*
X98308759Y-88715577D01*
X99832568Y-89001291D02*
X99499235Y-89001291D01*
X99499235Y-89525100D02*
X99499235Y-88525100D01*
X99975425Y-88525100D01*
X100784949Y-89525100D02*
X100784949Y-89001291D01*
X100737330Y-88906053D01*
X100642092Y-88858434D01*
X100451616Y-88858434D01*
X100356378Y-88906053D01*
X100784949Y-89477481D02*
X100689711Y-89525100D01*
X100451616Y-89525100D01*
X100356378Y-89477481D01*
X100308759Y-89382243D01*
X100308759Y-89287005D01*
X100356378Y-89191767D01*
X100451616Y-89144148D01*
X100689711Y-89144148D01*
X100784949Y-89096529D01*
X101261140Y-89525100D02*
X101261140Y-88858434D01*
X101261140Y-88953672D02*
X101308759Y-88906053D01*
X101403997Y-88858434D01*
X101546854Y-88858434D01*
X101642092Y-88906053D01*
X101689711Y-89001291D01*
X101689711Y-89525100D01*
X101689711Y-89001291D02*
X101737330Y-88906053D01*
X101832568Y-88858434D01*
X101975425Y-88858434D01*
X102070663Y-88906053D01*
X102118282Y-89001291D01*
X102118282Y-89525100D01*
X102594473Y-89525100D02*
X102594473Y-88858434D01*
X102594473Y-88525100D02*
X102546854Y-88572720D01*
X102594473Y-88620339D01*
X102642092Y-88572720D01*
X102594473Y-88525100D01*
X102594473Y-88620339D01*
X103499235Y-89477481D02*
X103403997Y-89525100D01*
X103213520Y-89525100D01*
X103118282Y-89477481D01*
X103070663Y-89429862D01*
X103023044Y-89334624D01*
X103023044Y-89048910D01*
X103070663Y-88953672D01*
X103118282Y-88906053D01*
X103213520Y-88858434D01*
X103403997Y-88858434D01*
X103499235Y-88906053D01*
X104070663Y-89525100D02*
X103975425Y-89477481D01*
X103927806Y-89429862D01*
X103880187Y-89334624D01*
X103880187Y-89048910D01*
X103927806Y-88953672D01*
X103975425Y-88906053D01*
X104070663Y-88858434D01*
X104213520Y-88858434D01*
X104308759Y-88906053D01*
X104356378Y-88953672D01*
X104403997Y-89048910D01*
X104403997Y-89334624D01*
X104356378Y-89429862D01*
X104308759Y-89477481D01*
X104213520Y-89525100D01*
X104070663Y-89525100D01*
X104832568Y-89525100D02*
X104832568Y-88858434D01*
X104832568Y-88953672D02*
X104880187Y-88906053D01*
X104975425Y-88858434D01*
X105118282Y-88858434D01*
X105213520Y-88906053D01*
X105261140Y-89001291D01*
X105261140Y-89525100D01*
X105261140Y-89001291D02*
X105308759Y-88906053D01*
X105403997Y-88858434D01*
X105546854Y-88858434D01*
X105642092Y-88906053D01*
X105689711Y-89001291D01*
X105689711Y-89525100D01*
X107261140Y-89001291D02*
X106927806Y-89001291D01*
X106927806Y-89525100D02*
X106927806Y-88525100D01*
X107403997Y-88525100D01*
X107784949Y-89525100D02*
X107784949Y-88858434D01*
X107784949Y-89048910D02*
X107832568Y-88953672D01*
X107880187Y-88906053D01*
X107975425Y-88858434D01*
X108070663Y-88858434D01*
X108546854Y-89525100D02*
X108451616Y-89477481D01*
X108403997Y-89429862D01*
X108356378Y-89334624D01*
X108356378Y-89048910D01*
X108403997Y-88953672D01*
X108451616Y-88906053D01*
X108546854Y-88858434D01*
X108689711Y-88858434D01*
X108784949Y-88906053D01*
X108832568Y-88953672D01*
X108880187Y-89048910D01*
X108880187Y-89334624D01*
X108832568Y-89429862D01*
X108784949Y-89477481D01*
X108689711Y-89525100D01*
X108546854Y-89525100D01*
X109308759Y-88858434D02*
X109308759Y-89525100D01*
X109308759Y-88953672D02*
X109356378Y-88906053D01*
X109451616Y-88858434D01*
X109594473Y-88858434D01*
X109689711Y-88906053D01*
X109737330Y-89001291D01*
X109737330Y-89525100D01*
X110070663Y-88858434D02*
X110451616Y-88858434D01*
X110213520Y-88525100D02*
X110213520Y-89382243D01*
X110261140Y-89477481D01*
X110356378Y-89525100D01*
X110451616Y-89525100D01*
X111546854Y-89001291D02*
X111880187Y-89001291D01*
X112023044Y-89525100D02*
X111546854Y-89525100D01*
X111546854Y-88525100D01*
X112023044Y-88525100D01*
X112356378Y-89525100D02*
X112880187Y-88858434D01*
X112356378Y-88858434D02*
X112880187Y-89525100D01*
X113261140Y-88858434D02*
X113261140Y-89858434D01*
X113261140Y-88906053D02*
X113356378Y-88858434D01*
X113546854Y-88858434D01*
X113642092Y-88906053D01*
X113689711Y-88953672D01*
X113737330Y-89048910D01*
X113737330Y-89334624D01*
X113689711Y-89429862D01*
X113642092Y-89477481D01*
X113546854Y-89525100D01*
X113356378Y-89525100D01*
X113261140Y-89477481D01*
X114594473Y-89525100D02*
X114594473Y-89001291D01*
X114546854Y-88906053D01*
X114451616Y-88858434D01*
X114261140Y-88858434D01*
X114165901Y-88906053D01*
X114594473Y-89477481D02*
X114499235Y-89525100D01*
X114261140Y-89525100D01*
X114165901Y-89477481D01*
X114118282Y-89382243D01*
X114118282Y-89287005D01*
X114165901Y-89191767D01*
X114261140Y-89144148D01*
X114499235Y-89144148D01*
X114594473Y-89096529D01*
X115070663Y-88858434D02*
X115070663Y-89525100D01*
X115070663Y-88953672D02*
X115118282Y-88906053D01*
X115213520Y-88858434D01*
X115356378Y-88858434D01*
X115451616Y-88906053D01*
X115499235Y-89001291D01*
X115499235Y-89525100D01*
X115927806Y-89477481D02*
X116023044Y-89525100D01*
X116213520Y-89525100D01*
X116308759Y-89477481D01*
X116356378Y-89382243D01*
X116356378Y-89334624D01*
X116308759Y-89239386D01*
X116213520Y-89191767D01*
X116070663Y-89191767D01*
X115975425Y-89144148D01*
X115927806Y-89048910D01*
X115927806Y-89001291D01*
X115975425Y-88906053D01*
X116070663Y-88858434D01*
X116213520Y-88858434D01*
X116308759Y-88906053D01*
X116784949Y-89525100D02*
X116784949Y-88858434D01*
X116784949Y-88525100D02*
X116737330Y-88572720D01*
X116784949Y-88620339D01*
X116832568Y-88572720D01*
X116784949Y-88525100D01*
X116784949Y-88620339D01*
X117403997Y-89525100D02*
X117308759Y-89477481D01*
X117261140Y-89429862D01*
X117213520Y-89334624D01*
X117213520Y-89048910D01*
X117261140Y-88953672D01*
X117308759Y-88906053D01*
X117403997Y-88858434D01*
X117546854Y-88858434D01*
X117642092Y-88906053D01*
X117689711Y-88953672D01*
X117737330Y-89048910D01*
X117737330Y-89334624D01*
X117689711Y-89429862D01*
X117642092Y-89477481D01*
X117546854Y-89525100D01*
X117403997Y-89525100D01*
X118165901Y-88858434D02*
X118165901Y-89525100D01*
X118165901Y-88953672D02*
X118213520Y-88906053D01*
X118308759Y-88858434D01*
X118451616Y-88858434D01*
X118546854Y-88906053D01*
X118594473Y-89001291D01*
X118594473Y-89525100D01*
X119689711Y-88858434D02*
X120070663Y-88858434D01*
X119832568Y-88525100D02*
X119832568Y-89382243D01*
X119880187Y-89477481D01*
X119975425Y-89525100D01*
X120070663Y-89525100D01*
X120546854Y-89525100D02*
X120451616Y-89477481D01*
X120403997Y-89429862D01*
X120356378Y-89334624D01*
X120356378Y-89048910D01*
X120403997Y-88953672D01*
X120451616Y-88906053D01*
X120546854Y-88858434D01*
X120689711Y-88858434D01*
X120784949Y-88906053D01*
X120832568Y-88953672D01*
X120880187Y-89048910D01*
X120880187Y-89334624D01*
X120832568Y-89429862D01*
X120784949Y-89477481D01*
X120689711Y-89525100D01*
X120546854Y-89525100D01*
X122070663Y-89525100D02*
X122070663Y-88525100D01*
X122642092Y-89525100D01*
X122642092Y-88525100D01*
X123118282Y-89001291D02*
X123451616Y-89001291D01*
X123594473Y-89525100D02*
X123118282Y-89525100D01*
X123118282Y-88525100D01*
X123594473Y-88525100D01*
X123975425Y-89477481D02*
X124118282Y-89525100D01*
X124356378Y-89525100D01*
X124451616Y-89477481D01*
X124499235Y-89429862D01*
X124546854Y-89334624D01*
X124546854Y-89239386D01*
X124499235Y-89144148D01*
X124451616Y-89096529D01*
X124356378Y-89048910D01*
X124165901Y-89001291D01*
X124070663Y-88953672D01*
X124023044Y-88906053D01*
X123975425Y-88810815D01*
X123975425Y-88715577D01*
X124023044Y-88620339D01*
X124070663Y-88572720D01*
X124165901Y-88525100D01*
X124403997Y-88525100D01*
X124546854Y-88572720D01*
X125689711Y-88477481D02*
X124832568Y-89763196D01*
X125975425Y-89477481D02*
X126118282Y-89525100D01*
X126356378Y-89525100D01*
X126451616Y-89477481D01*
X126499235Y-89429862D01*
X126546854Y-89334624D01*
X126546854Y-89239386D01*
X126499235Y-89144148D01*
X126451616Y-89096529D01*
X126356378Y-89048910D01*
X126165901Y-89001291D01*
X126070663Y-88953672D01*
X126023044Y-88906053D01*
X125975425Y-88810815D01*
X125975425Y-88715577D01*
X126023044Y-88620339D01*
X126070663Y-88572720D01*
X126165901Y-88525100D01*
X126403997Y-88525100D01*
X126546854Y-88572720D01*
X126975425Y-89525100D02*
X126975425Y-88525100D01*
X127546854Y-89525100D01*
X127546854Y-88525100D01*
X128023044Y-89001291D02*
X128356378Y-89001291D01*
X128499235Y-89525100D02*
X128023044Y-89525100D01*
X128023044Y-88525100D01*
X128499235Y-88525100D01*
X128880187Y-89477481D02*
X129023044Y-89525100D01*
X129261139Y-89525100D01*
X129356378Y-89477481D01*
X129403997Y-89429862D01*
X129451616Y-89334624D01*
X129451616Y-89239386D01*
X129403997Y-89144148D01*
X129356378Y-89096529D01*
X129261139Y-89048910D01*
X129070663Y-89001291D01*
X128975425Y-88953672D01*
X128927806Y-88906053D01*
X128880187Y-88810815D01*
X128880187Y-88715577D01*
X128927806Y-88620339D01*
X128975425Y-88572720D01*
X129070663Y-88525100D01*
X129308759Y-88525100D01*
X129451616Y-88572720D01*
X130642092Y-89001291D02*
X130975425Y-89001291D01*
X131118282Y-89525100D02*
X130642092Y-89525100D01*
X130642092Y-88525100D01*
X131118282Y-88525100D01*
X131451616Y-89525100D02*
X131975425Y-88858434D01*
X131451616Y-88858434D02*
X131975425Y-89525100D01*
X132213520Y-88858434D02*
X132594473Y-88858434D01*
X132356378Y-88525100D02*
X132356378Y-89382243D01*
X132403997Y-89477481D01*
X132499235Y-89525100D01*
X132594473Y-89525100D01*
X133308759Y-89477481D02*
X133213520Y-89525100D01*
X133023044Y-89525100D01*
X132927806Y-89477481D01*
X132880187Y-89382243D01*
X132880187Y-89001291D01*
X132927806Y-88906053D01*
X133023044Y-88858434D01*
X133213520Y-88858434D01*
X133308759Y-88906053D01*
X133356378Y-89001291D01*
X133356378Y-89096529D01*
X132880187Y-89191767D01*
X133784949Y-88858434D02*
X133784949Y-89525100D01*
X133784949Y-88953672D02*
X133832568Y-88906053D01*
X133927806Y-88858434D01*
X134070663Y-88858434D01*
X134165901Y-88906053D01*
X134213520Y-89001291D01*
X134213520Y-89525100D01*
X135118282Y-89525100D02*
X135118282Y-88525100D01*
X135118282Y-89477481D02*
X135023044Y-89525100D01*
X134832568Y-89525100D01*
X134737330Y-89477481D01*
X134689711Y-89429862D01*
X134642092Y-89334624D01*
X134642092Y-89048910D01*
X134689711Y-88953672D01*
X134737330Y-88906053D01*
X134832568Y-88858434D01*
X135023044Y-88858434D01*
X135118282Y-88906053D01*
X135975425Y-89477481D02*
X135880187Y-89525100D01*
X135689711Y-89525100D01*
X135594473Y-89477481D01*
X135546854Y-89382243D01*
X135546854Y-89001291D01*
X135594473Y-88906053D01*
X135689711Y-88858434D01*
X135880187Y-88858434D01*
X135975425Y-88906053D01*
X136023044Y-89001291D01*
X136023044Y-89096529D01*
X135546854Y-89191767D01*
X136451616Y-89525100D02*
X136451616Y-88858434D01*
X136451616Y-89048910D02*
X136499235Y-88953672D01*
X136546854Y-88906053D01*
X136642092Y-88858434D01*
X136737330Y-88858434D01*
X152818737Y-90794114D02*
X152056737Y-90794114D01*
X152056737Y-91991542D02*
X152056737Y-89705542D01*
X153145308Y-89705542D01*
X155322451Y-91991542D02*
X154560451Y-90902971D01*
X154016165Y-91991542D02*
X154016165Y-89705542D01*
X154887022Y-89705542D01*
X155104737Y-89814400D01*
X155213594Y-89923257D01*
X155322451Y-90140971D01*
X155322451Y-90467542D01*
X155213594Y-90685257D01*
X155104737Y-90794114D01*
X154887022Y-90902971D01*
X154016165Y-90902971D01*
X156737594Y-89705542D02*
X157173022Y-89705542D01*
X157390737Y-89814400D01*
X157608451Y-90032114D01*
X157717308Y-90467542D01*
X157717308Y-91229542D01*
X157608451Y-91664971D01*
X157390737Y-91882685D01*
X157173022Y-91991542D01*
X156737594Y-91991542D01*
X156519880Y-91882685D01*
X156302165Y-91664971D01*
X156193308Y-91229542D01*
X156193308Y-90467542D01*
X156302165Y-90032114D01*
X156519880Y-89814400D01*
X156737594Y-89705542D01*
X158697022Y-91991542D02*
X158697022Y-89705542D01*
X160003308Y-91991542D01*
X160003308Y-89705542D01*
X160765308Y-89705542D02*
X162071594Y-89705542D01*
X161418451Y-91991542D02*
X161418451Y-89705542D01*
X90601588Y-90459299D02*
X90649207Y-90411680D01*
X90744445Y-90364060D01*
X90982540Y-90364060D01*
X91077779Y-90411680D01*
X91125398Y-90459299D01*
X91173017Y-90554537D01*
X91173017Y-90649775D01*
X91125398Y-90792632D01*
X90553969Y-91364060D01*
X91173017Y-91364060D01*
X91792064Y-90364060D02*
X91887302Y-90364060D01*
X91982540Y-90411680D01*
X92030160Y-90459299D01*
X92077779Y-90554537D01*
X92125398Y-90745013D01*
X92125398Y-90983108D01*
X92077779Y-91173584D01*
X92030160Y-91268822D01*
X91982540Y-91316441D01*
X91887302Y-91364060D01*
X91792064Y-91364060D01*
X91696826Y-91316441D01*
X91649207Y-91268822D01*
X91601588Y-91173584D01*
X91553969Y-90983108D01*
X91553969Y-90745013D01*
X91601588Y-90554537D01*
X91649207Y-90459299D01*
X91696826Y-90411680D01*
X91792064Y-90364060D01*
X92506350Y-90459299D02*
X92553969Y-90411680D01*
X92649207Y-90364060D01*
X92887302Y-90364060D01*
X92982540Y-90411680D01*
X93030160Y-90459299D01*
X93077779Y-90554537D01*
X93077779Y-90649775D01*
X93030160Y-90792632D01*
X92458731Y-91364060D01*
X93077779Y-91364060D01*
X93696826Y-90364060D02*
X93792064Y-90364060D01*
X93887302Y-90411680D01*
X93934921Y-90459299D01*
X93982540Y-90554537D01*
X94030160Y-90745013D01*
X94030160Y-90983108D01*
X93982540Y-91173584D01*
X93934921Y-91268822D01*
X93887302Y-91316441D01*
X93792064Y-91364060D01*
X93696826Y-91364060D01*
X93601588Y-91316441D01*
X93553969Y-91268822D01*
X93506350Y-91173584D01*
X93458731Y-90983108D01*
X93458731Y-90745013D01*
X93506350Y-90554537D01*
X93553969Y-90459299D01*
X93601588Y-90411680D01*
X93696826Y-90364060D01*
X94458731Y-91268822D02*
X94506350Y-91316441D01*
X94458731Y-91364060D01*
X94411112Y-91316441D01*
X94458731Y-91268822D01*
X94458731Y-91364060D01*
X95982540Y-90364060D02*
X95982540Y-91078346D01*
X95934921Y-91221203D01*
X95839683Y-91316441D01*
X95696826Y-91364060D01*
X95601588Y-91364060D01*
X96839683Y-91316441D02*
X96744445Y-91364060D01*
X96553969Y-91364060D01*
X96458731Y-91316441D01*
X96411112Y-91221203D01*
X96411112Y-90840251D01*
X96458731Y-90745013D01*
X96553969Y-90697394D01*
X96744445Y-90697394D01*
X96839683Y-90745013D01*
X96887302Y-90840251D01*
X96887302Y-90935489D01*
X96411112Y-91030727D01*
X97173017Y-90697394D02*
X97553969Y-90697394D01*
X97315874Y-91364060D02*
X97315874Y-90506918D01*
X97363493Y-90411680D01*
X97458731Y-90364060D01*
X97553969Y-90364060D01*
X97744445Y-90697394D02*
X98125398Y-90697394D01*
X97887302Y-91364060D02*
X97887302Y-90506918D01*
X97934921Y-90411680D01*
X98030160Y-90364060D01*
X98125398Y-90364060D01*
X99792064Y-91268822D02*
X99744445Y-91316441D01*
X99601588Y-91364060D01*
X99506350Y-91364060D01*
X99363493Y-91316441D01*
X99268255Y-91221203D01*
X99220636Y-91125965D01*
X99173017Y-90935489D01*
X99173017Y-90792632D01*
X99220636Y-90602156D01*
X99268255Y-90506918D01*
X99363493Y-90411680D01*
X99506350Y-90364060D01*
X99601588Y-90364060D01*
X99744445Y-90411680D01*
X99792064Y-90459299D01*
X100220636Y-91364060D02*
X100220636Y-90364060D01*
X100649207Y-91364060D02*
X100649207Y-90840251D01*
X100601588Y-90745013D01*
X100506350Y-90697394D01*
X100363493Y-90697394D01*
X100268255Y-90745013D01*
X100220636Y-90792632D01*
X101506350Y-91316441D02*
X101411112Y-91364060D01*
X101220636Y-91364060D01*
X101125398Y-91316441D01*
X101077779Y-91221203D01*
X101077779Y-90840251D01*
X101125398Y-90745013D01*
X101220636Y-90697394D01*
X101411112Y-90697394D01*
X101506350Y-90745013D01*
X101553969Y-90840251D01*
X101553969Y-90935489D01*
X101077779Y-91030727D01*
X101982540Y-90697394D02*
X101982540Y-91364060D01*
X101982540Y-90792632D02*
X102030160Y-90745013D01*
X102125398Y-90697394D01*
X102268255Y-90697394D01*
X102363493Y-90745013D01*
X102411112Y-90840251D01*
X102411112Y-91364060D01*
X89880187Y-88525100D02*
X89880187Y-88715577D01*
X90261140Y-88525100D02*
X90261140Y-88715577D01*
X91023044Y-89001291D02*
X90689711Y-89001291D01*
X90689711Y-89525100D02*
X90689711Y-88525100D01*
X91165901Y-88525100D01*
X91975425Y-89525100D02*
X91975425Y-89001291D01*
X91927806Y-88906053D01*
X91832568Y-88858434D01*
X91642092Y-88858434D01*
X91546854Y-88906053D01*
X91975425Y-89477481D02*
X91880187Y-89525100D01*
X91642092Y-89525100D01*
X91546854Y-89477481D01*
X91499235Y-89382243D01*
X91499235Y-89287005D01*
X91546854Y-89191767D01*
X91642092Y-89144148D01*
X91880187Y-89144148D01*
X91975425Y-89096529D01*
X92451616Y-89525100D02*
X92451616Y-88858434D01*
X92451616Y-88953672D02*
X92499235Y-88906053D01*
X92594473Y-88858434D01*
X92737330Y-88858434D01*
X92832568Y-88906053D01*
X92880187Y-89001291D01*
X92880187Y-89525100D01*
X92880187Y-89001291D02*
X92927806Y-88906053D01*
X93023044Y-88858434D01*
X93165901Y-88858434D01*
X93261140Y-88906053D01*
X93308759Y-89001291D01*
X93308759Y-89525100D01*
X93784949Y-89525100D02*
X93784949Y-88858434D01*
X93784949Y-88525100D02*
X93737330Y-88572720D01*
X93784949Y-88620339D01*
X93832568Y-88572720D01*
X93784949Y-88525100D01*
X93784949Y-88620339D01*
X94832568Y-89429862D02*
X94784949Y-89477481D01*
X94642092Y-89525100D01*
X94546854Y-89525100D01*
X94403997Y-89477481D01*
X94308759Y-89382243D01*
X94261140Y-89287005D01*
X94213520Y-89096529D01*
X94213520Y-88953672D01*
X94261140Y-88763196D01*
X94308759Y-88667958D01*
X94403997Y-88572720D01*
X94546854Y-88525100D01*
X94642092Y-88525100D01*
X94784949Y-88572720D01*
X94832568Y-88620339D01*
X95403997Y-89525100D02*
X95308759Y-89477481D01*
X95261140Y-89429862D01*
X95213520Y-89334624D01*
X95213520Y-89048910D01*
X95261140Y-88953672D01*
X95308759Y-88906053D01*
X95403997Y-88858434D01*
X95546854Y-88858434D01*
X95642092Y-88906053D01*
X95689711Y-88953672D01*
X95737330Y-89048910D01*
X95737330Y-89334624D01*
X95689711Y-89429862D01*
X95642092Y-89477481D01*
X95546854Y-89525100D01*
X95403997Y-89525100D01*
X96594473Y-88858434D02*
X96594473Y-89525100D01*
X96165901Y-88858434D02*
X96165901Y-89382243D01*
X96213520Y-89477481D01*
X96308759Y-89525100D01*
X96451616Y-89525100D01*
X96546854Y-89477481D01*
X96594473Y-89429862D01*
X97070663Y-88858434D02*
X97070663Y-89525100D01*
X97070663Y-88953672D02*
X97118282Y-88906053D01*
X97213520Y-88858434D01*
X97356378Y-88858434D01*
X97451616Y-88906053D01*
X97499235Y-89001291D01*
X97499235Y-89525100D01*
X97927806Y-88525100D02*
X97927806Y-88715577D01*
X98308759Y-88525100D02*
X98308759Y-88715577D01*
X99832568Y-89001291D02*
X99499235Y-89001291D01*
X99499235Y-89525100D02*
X99499235Y-88525100D01*
X99975425Y-88525100D01*
X100784949Y-89525100D02*
X100784949Y-89001291D01*
X100737330Y-88906053D01*
X100642092Y-88858434D01*
X100451616Y-88858434D01*
X100356378Y-88906053D01*
X100784949Y-89477481D02*
X100689711Y-89525100D01*
X100451616Y-89525100D01*
X100356378Y-89477481D01*
X100308759Y-89382243D01*
X100308759Y-89287005D01*
X100356378Y-89191767D01*
X100451616Y-89144148D01*
X100689711Y-89144148D01*
X100784949Y-89096529D01*
X101261140Y-89525100D02*
X101261140Y-88858434D01*
X101261140Y-88953672D02*
X101308759Y-88906053D01*
X101403997Y-88858434D01*
X101546854Y-88858434D01*
X101642092Y-88906053D01*
X101689711Y-89001291D01*
X101689711Y-89525100D01*
X101689711Y-89001291D02*
X101737330Y-88906053D01*
X101832568Y-88858434D01*
X101975425Y-88858434D01*
X102070663Y-88906053D01*
X102118282Y-89001291D01*
X102118282Y-89525100D01*
X102594473Y-89525100D02*
X102594473Y-88858434D01*
X102594473Y-88525100D02*
X102546854Y-88572720D01*
X102594473Y-88620339D01*
X102642092Y-88572720D01*
X102594473Y-88525100D01*
X102594473Y-88620339D01*
X103499235Y-89477481D02*
X103403997Y-89525100D01*
X103213520Y-89525100D01*
X103118282Y-89477481D01*
X103070663Y-89429862D01*
X103023044Y-89334624D01*
X103023044Y-89048910D01*
X103070663Y-88953672D01*
X103118282Y-88906053D01*
X103213520Y-88858434D01*
X103403997Y-88858434D01*
X103499235Y-88906053D01*
X104070663Y-89525100D02*
X103975425Y-89477481D01*
X103927806Y-89429862D01*
X103880187Y-89334624D01*
X103880187Y-89048910D01*
X103927806Y-88953672D01*
X103975425Y-88906053D01*
X104070663Y-88858434D01*
X104213520Y-88858434D01*
X104308759Y-88906053D01*
X104356378Y-88953672D01*
X104403997Y-89048910D01*
X104403997Y-89334624D01*
X104356378Y-89429862D01*
X104308759Y-89477481D01*
X104213520Y-89525100D01*
X104070663Y-89525100D01*
X104832568Y-89525100D02*
X104832568Y-88858434D01*
X104832568Y-88953672D02*
X104880187Y-88906053D01*
X104975425Y-88858434D01*
X105118282Y-88858434D01*
X105213520Y-88906053D01*
X105261140Y-89001291D01*
X105261140Y-89525100D01*
X105261140Y-89001291D02*
X105308759Y-88906053D01*
X105403997Y-88858434D01*
X105546854Y-88858434D01*
X105642092Y-88906053D01*
X105689711Y-89001291D01*
X105689711Y-89525100D01*
X107261140Y-89001291D02*
X106927806Y-89001291D01*
X106927806Y-89525100D02*
X106927806Y-88525100D01*
X107403997Y-88525100D01*
X107784949Y-89525100D02*
X107784949Y-88858434D01*
X107784949Y-89048910D02*
X107832568Y-88953672D01*
X107880187Y-88906053D01*
X107975425Y-88858434D01*
X108070663Y-88858434D01*
X108546854Y-89525100D02*
X108451616Y-89477481D01*
X108403997Y-89429862D01*
X108356378Y-89334624D01*
X108356378Y-89048910D01*
X108403997Y-88953672D01*
X108451616Y-88906053D01*
X108546854Y-88858434D01*
X108689711Y-88858434D01*
X108784949Y-88906053D01*
X108832568Y-88953672D01*
X108880187Y-89048910D01*
X108880187Y-89334624D01*
X108832568Y-89429862D01*
X108784949Y-89477481D01*
X108689711Y-89525100D01*
X108546854Y-89525100D01*
X109308759Y-88858434D02*
X109308759Y-89525100D01*
X109308759Y-88953672D02*
X109356378Y-88906053D01*
X109451616Y-88858434D01*
X109594473Y-88858434D01*
X109689711Y-88906053D01*
X109737330Y-89001291D01*
X109737330Y-89525100D01*
X110070663Y-88858434D02*
X110451616Y-88858434D01*
X110213520Y-88525100D02*
X110213520Y-89382243D01*
X110261140Y-89477481D01*
X110356378Y-89525100D01*
X110451616Y-89525100D01*
X111546854Y-89001291D02*
X111880187Y-89001291D01*
X112023044Y-89525100D02*
X111546854Y-89525100D01*
X111546854Y-88525100D01*
X112023044Y-88525100D01*
X112356378Y-89525100D02*
X112880187Y-88858434D01*
X112356378Y-88858434D02*
X112880187Y-89525100D01*
X113261140Y-88858434D02*
X113261140Y-89858434D01*
X113261140Y-88906053D02*
X113356378Y-88858434D01*
X113546854Y-88858434D01*
X113642092Y-88906053D01*
X113689711Y-88953672D01*
X113737330Y-89048910D01*
X113737330Y-89334624D01*
X113689711Y-89429862D01*
X113642092Y-89477481D01*
X113546854Y-89525100D01*
X113356378Y-89525100D01*
X113261140Y-89477481D01*
X114594473Y-89525100D02*
X114594473Y-89001291D01*
X114546854Y-88906053D01*
X114451616Y-88858434D01*
X114261140Y-88858434D01*
X114165901Y-88906053D01*
X114594473Y-89477481D02*
X114499235Y-89525100D01*
X114261140Y-89525100D01*
X114165901Y-89477481D01*
X114118282Y-89382243D01*
X114118282Y-89287005D01*
X114165901Y-89191767D01*
X114261140Y-89144148D01*
X114499235Y-89144148D01*
X114594473Y-89096529D01*
X115070663Y-88858434D02*
X115070663Y-89525100D01*
X115070663Y-88953672D02*
X115118282Y-88906053D01*
X115213520Y-88858434D01*
X115356378Y-88858434D01*
X115451616Y-88906053D01*
X115499235Y-89001291D01*
X115499235Y-89525100D01*
X115927806Y-89477481D02*
X116023044Y-89525100D01*
X116213520Y-89525100D01*
X116308759Y-89477481D01*
X116356378Y-89382243D01*
X116356378Y-89334624D01*
X116308759Y-89239386D01*
X116213520Y-89191767D01*
X116070663Y-89191767D01*
X115975425Y-89144148D01*
X115927806Y-89048910D01*
X115927806Y-89001291D01*
X115975425Y-88906053D01*
X116070663Y-88858434D01*
X116213520Y-88858434D01*
X116308759Y-88906053D01*
X116784949Y-89525100D02*
X116784949Y-88858434D01*
X116784949Y-88525100D02*
X116737330Y-88572720D01*
X116784949Y-88620339D01*
X116832568Y-88572720D01*
X116784949Y-88525100D01*
X116784949Y-88620339D01*
X117403997Y-89525100D02*
X117308759Y-89477481D01*
X117261140Y-89429862D01*
X117213520Y-89334624D01*
X117213520Y-89048910D01*
X117261140Y-88953672D01*
X117308759Y-88906053D01*
X117403997Y-88858434D01*
X117546854Y-88858434D01*
X117642092Y-88906053D01*
X117689711Y-88953672D01*
X117737330Y-89048910D01*
X117737330Y-89334624D01*
X117689711Y-89429862D01*
X117642092Y-89477481D01*
X117546854Y-89525100D01*
X117403997Y-89525100D01*
X118165901Y-88858434D02*
X118165901Y-89525100D01*
X118165901Y-88953672D02*
X118213520Y-88906053D01*
X118308759Y-88858434D01*
X118451616Y-88858434D01*
X118546854Y-88906053D01*
X118594473Y-89001291D01*
X118594473Y-89525100D01*
X119689711Y-88858434D02*
X120070663Y-88858434D01*
X119832568Y-88525100D02*
X119832568Y-89382243D01*
X119880187Y-89477481D01*
X119975425Y-89525100D01*
X120070663Y-89525100D01*
X120546854Y-89525100D02*
X120451616Y-89477481D01*
X120403997Y-89429862D01*
X120356378Y-89334624D01*
X120356378Y-89048910D01*
X120403997Y-88953672D01*
X120451616Y-88906053D01*
X120546854Y-88858434D01*
X120689711Y-88858434D01*
X120784949Y-88906053D01*
X120832568Y-88953672D01*
X120880187Y-89048910D01*
X120880187Y-89334624D01*
X120832568Y-89429862D01*
X120784949Y-89477481D01*
X120689711Y-89525100D01*
X120546854Y-89525100D01*
X122070663Y-89525100D02*
X122070663Y-88525100D01*
X122642092Y-89525100D01*
X122642092Y-88525100D01*
X123118282Y-89001291D02*
X123451616Y-89001291D01*
X123594473Y-89525100D02*
X123118282Y-89525100D01*
X123118282Y-88525100D01*
X123594473Y-88525100D01*
X123975425Y-89477481D02*
X124118282Y-89525100D01*
X124356378Y-89525100D01*
X124451616Y-89477481D01*
X124499235Y-89429862D01*
X124546854Y-89334624D01*
X124546854Y-89239386D01*
X124499235Y-89144148D01*
X124451616Y-89096529D01*
X124356378Y-89048910D01*
X124165901Y-89001291D01*
X124070663Y-88953672D01*
X124023044Y-88906053D01*
X123975425Y-88810815D01*
X123975425Y-88715577D01*
X124023044Y-88620339D01*
X124070663Y-88572720D01*
X124165901Y-88525100D01*
X124403997Y-88525100D01*
X124546854Y-88572720D01*
X125689711Y-88477481D02*
X124832568Y-89763196D01*
X125975425Y-89477481D02*
X126118282Y-89525100D01*
X126356378Y-89525100D01*
X126451616Y-89477481D01*
X126499235Y-89429862D01*
X126546854Y-89334624D01*
X126546854Y-89239386D01*
X126499235Y-89144148D01*
X126451616Y-89096529D01*
X126356378Y-89048910D01*
X126165901Y-89001291D01*
X126070663Y-88953672D01*
X126023044Y-88906053D01*
X125975425Y-88810815D01*
X125975425Y-88715577D01*
X126023044Y-88620339D01*
X126070663Y-88572720D01*
X126165901Y-88525100D01*
X126403997Y-88525100D01*
X126546854Y-88572720D01*
X126975425Y-89525100D02*
X126975425Y-88525100D01*
X127546854Y-89525100D01*
X127546854Y-88525100D01*
X128023044Y-89001291D02*
X128356378Y-89001291D01*
X128499235Y-89525100D02*
X128023044Y-89525100D01*
X128023044Y-88525100D01*
X128499235Y-88525100D01*
X128880187Y-89477481D02*
X129023044Y-89525100D01*
X129261139Y-89525100D01*
X129356378Y-89477481D01*
X129403997Y-89429862D01*
X129451616Y-89334624D01*
X129451616Y-89239386D01*
X129403997Y-89144148D01*
X129356378Y-89096529D01*
X129261139Y-89048910D01*
X129070663Y-89001291D01*
X128975425Y-88953672D01*
X128927806Y-88906053D01*
X128880187Y-88810815D01*
X128880187Y-88715577D01*
X128927806Y-88620339D01*
X128975425Y-88572720D01*
X129070663Y-88525100D01*
X129308759Y-88525100D01*
X129451616Y-88572720D01*
X130642092Y-89001291D02*
X130975425Y-89001291D01*
X131118282Y-89525100D02*
X130642092Y-89525100D01*
X130642092Y-88525100D01*
X131118282Y-88525100D01*
X131451616Y-89525100D02*
X131975425Y-88858434D01*
X131451616Y-88858434D02*
X131975425Y-89525100D01*
X132213520Y-88858434D02*
X132594473Y-88858434D01*
X132356378Y-88525100D02*
X132356378Y-89382243D01*
X132403997Y-89477481D01*
X132499235Y-89525100D01*
X132594473Y-89525100D01*
X133308759Y-89477481D02*
X133213520Y-89525100D01*
X133023044Y-89525100D01*
X132927806Y-89477481D01*
X132880187Y-89382243D01*
X132880187Y-89001291D01*
X132927806Y-88906053D01*
X133023044Y-88858434D01*
X133213520Y-88858434D01*
X133308759Y-88906053D01*
X133356378Y-89001291D01*
X133356378Y-89096529D01*
X132880187Y-89191767D01*
X133784949Y-88858434D02*
X133784949Y-89525100D01*
X133784949Y-88953672D02*
X133832568Y-88906053D01*
X133927806Y-88858434D01*
X134070663Y-88858434D01*
X134165901Y-88906053D01*
X134213520Y-89001291D01*
X134213520Y-89525100D01*
X135118282Y-89525100D02*
X135118282Y-88525100D01*
X135118282Y-89477481D02*
X135023044Y-89525100D01*
X134832568Y-89525100D01*
X134737330Y-89477481D01*
X134689711Y-89429862D01*
X134642092Y-89334624D01*
X134642092Y-89048910D01*
X134689711Y-88953672D01*
X134737330Y-88906053D01*
X134832568Y-88858434D01*
X135023044Y-88858434D01*
X135118282Y-88906053D01*
X135975425Y-89477481D02*
X135880187Y-89525100D01*
X135689711Y-89525100D01*
X135594473Y-89477481D01*
X135546854Y-89382243D01*
X135546854Y-89001291D01*
X135594473Y-88906053D01*
X135689711Y-88858434D01*
X135880187Y-88858434D01*
X135975425Y-88906053D01*
X136023044Y-89001291D01*
X136023044Y-89096529D01*
X135546854Y-89191767D01*
X136451616Y-89525100D02*
X136451616Y-88858434D01*
X136451616Y-89048910D02*
X136499235Y-88953672D01*
X136546854Y-88906053D01*
X136642092Y-88858434D01*
X136737330Y-88858434D01*
X152818737Y-90794114D02*
X152056737Y-90794114D01*
X152056737Y-91991542D02*
X152056737Y-89705542D01*
X153145308Y-89705542D01*
X155322451Y-91991542D02*
X154560451Y-90902971D01*
X154016165Y-91991542D02*
X154016165Y-89705542D01*
X154887022Y-89705542D01*
X155104737Y-89814400D01*
X155213594Y-89923257D01*
X155322451Y-90140971D01*
X155322451Y-90467542D01*
X155213594Y-90685257D01*
X155104737Y-90794114D01*
X154887022Y-90902971D01*
X154016165Y-90902971D01*
X156737594Y-89705542D02*
X157173022Y-89705542D01*
X157390737Y-89814400D01*
X157608451Y-90032114D01*
X157717308Y-90467542D01*
X157717308Y-91229542D01*
X157608451Y-91664971D01*
X157390737Y-91882685D01*
X157173022Y-91991542D01*
X156737594Y-91991542D01*
X156519880Y-91882685D01*
X156302165Y-91664971D01*
X156193308Y-91229542D01*
X156193308Y-90467542D01*
X156302165Y-90032114D01*
X156519880Y-89814400D01*
X156737594Y-89705542D01*
X158697022Y-91991542D02*
X158697022Y-89705542D01*
X160003308Y-91991542D01*
X160003308Y-89705542D01*
X160765308Y-89705542D02*
X162071594Y-89705542D01*
X161418451Y-91991542D02*
X161418451Y-89705542D01*
D11*
X171592860Y-94644180D03*
X174372860Y-94644180D03*
X177152860Y-94644180D03*
X179932860Y-94644180D03*
X182712860Y-94644180D03*
X185492860Y-94644180D03*
X188272860Y-94644180D03*
X189662860Y-91864180D03*
X186882860Y-91864180D03*
X184102860Y-91864180D03*
X181322860Y-91864180D03*
X178542860Y-91864180D03*
X175762860Y-91864180D03*
X172982860Y-91864180D03*
X170202860Y-91864180D03*
D12*
X106272080Y-100900000D03*
X102272080Y-100900000D03*
X98272080Y-100900000D03*
X98272080Y-96900000D03*
X102272080Y-96900000D03*
X106272080Y-96900000D03*
X110272080Y-96900000D03*
X208627460Y-100900000D03*
X212627460Y-100900000D03*
X216627460Y-100900000D03*
X220627460Y-100900000D03*
X220627460Y-96900000D03*
X216627460Y-96900000D03*
X212627460Y-96900000D03*
X150251160Y-98880000D03*
X146251160Y-98880000D03*
X142251160Y-98880000D03*
X138251160Y-98880000D03*
X131751160Y-98880000D03*
X127751160Y-98880000D03*
X123751160Y-98880000D03*
X195145840Y-98880000D03*
X191145840Y-98880000D03*
X187145840Y-98880000D03*
X180645840Y-98880000D03*
X176645840Y-98880000D03*
X172645840Y-98880000D03*
X168645840Y-98880000D03*
M02*
