G04 #@! TF.GenerationSoftware,KiCad,Pcbnew,(5.1.5-0-10_14)*
G04 #@! TF.CreationDate,2020-11-03T20:34:37-05:00*
G04 #@! TF.ProjectId,FamiCoun,46616d69-436f-4756-9e2e-6b696361645f,rev?*
G04 #@! TF.SameCoordinates,Original*
G04 #@! TF.FileFunction,Copper,L1,Top*
G04 #@! TF.FilePolarity,Positive*
%FSLAX46Y46*%
G04 Gerber Fmt 4.6, Leading zero omitted, Abs format (unit mm)*
G04 Created by KiCad (PCBNEW (5.1.5-0-10_14)) date 2020-11-03 20:34:37*
%MOMM*%
%LPD*%
G04 APERTURE LIST*
%ADD10C,2.200000*%
%ADD11C,2.180000*%
%ADD12C,0.800000*%
%ADD13C,0.300000*%
%ADD14C,0.450000*%
%ADD15C,0.254000*%
G04 APERTURE END LIST*
D10*
X171592860Y-94644180D03*
X174372860Y-94644180D03*
X177152860Y-94644180D03*
X179932860Y-94644180D03*
X182712860Y-94644180D03*
X185492860Y-94644180D03*
X188272860Y-94644180D03*
X189662860Y-91864180D03*
X186882860Y-91864180D03*
X184102860Y-91864180D03*
X181322860Y-91864180D03*
X178542860Y-91864180D03*
X175762860Y-91864180D03*
X172982860Y-91864180D03*
X170202860Y-91864180D03*
D11*
X106221280Y-100887000D03*
X102221280Y-100887000D03*
X98221280Y-100887000D03*
X98221280Y-96887000D03*
X102221280Y-96887000D03*
X106221280Y-96887000D03*
X110221280Y-96887000D03*
X208645240Y-100887000D03*
X212645240Y-100887000D03*
X216645240Y-100887000D03*
X220645240Y-100887000D03*
X220645240Y-96887000D03*
X216645240Y-96887000D03*
X212645240Y-96887000D03*
X150990300Y-98869500D03*
X146990300Y-98869500D03*
X142990300Y-98869500D03*
X138990300Y-98869500D03*
X132490300Y-98869500D03*
X128490300Y-98869500D03*
X124490300Y-98869500D03*
X194363520Y-98859340D03*
X190363520Y-98859340D03*
X186363520Y-98859340D03*
X179863520Y-98859340D03*
X175863520Y-98859340D03*
X171863520Y-98859340D03*
X167863520Y-98859340D03*
D12*
X120258840Y-105069640D03*
X199971660Y-90345260D03*
X198391780Y-90345260D03*
X201480420Y-90345260D03*
X110533180Y-88041480D03*
X113013913Y-88041480D03*
X118798340Y-90860880D03*
X128643380Y-90860880D03*
X123720860Y-90860880D03*
X133565900Y-90860880D03*
X221467680Y-88005920D03*
X215084660Y-92821760D03*
X218653360Y-92806520D03*
X218699080Y-103327200D03*
X169900600Y-100037900D03*
X180748940Y-96761300D03*
X198427340Y-92984320D03*
X200007220Y-92984320D03*
X201515980Y-92984320D03*
X198417180Y-87790020D03*
X199997060Y-87790020D03*
X201576940Y-87790020D03*
X194149980Y-93022420D03*
X197053200Y-96334580D03*
X183972200Y-102489000D03*
X187309760Y-102489000D03*
X190748920Y-102489000D03*
X203525120Y-96179640D03*
X229801420Y-90147140D03*
X229801420Y-91660980D03*
X229801420Y-93207840D03*
X228185980Y-99565460D03*
X226537520Y-100606860D03*
X225125280Y-101648260D03*
X222234760Y-89811860D03*
X210106260Y-92791280D03*
X207383380Y-92758260D03*
X217177620Y-89964260D03*
X154350720Y-97759520D03*
X157073600Y-97759520D03*
X159420560Y-99910900D03*
X156778960Y-99951540D03*
X158887160Y-102831900D03*
X161734500Y-102872540D03*
X179956460Y-90258900D03*
X176705260Y-87881460D03*
X174932340Y-87881460D03*
X173159420Y-87881460D03*
X154950160Y-95531940D03*
X152186640Y-95531940D03*
X148948140Y-100459540D03*
X144947640Y-100459540D03*
X141069060Y-100459540D03*
X137728960Y-101780340D03*
X138719560Y-96624140D03*
X141523720Y-95181420D03*
X144203420Y-93819980D03*
X136037320Y-98110040D03*
X133604000Y-94653100D03*
X123758960Y-94653100D03*
X118836440Y-94653100D03*
X128681480Y-94653100D03*
X163083240Y-97746820D03*
X165168580Y-99923600D03*
X170167300Y-102709980D03*
X191183260Y-93388180D03*
X188310520Y-97134680D03*
X191183260Y-96260920D03*
X88882220Y-90436700D03*
X88882220Y-91904820D03*
X88882220Y-93370400D03*
X90609420Y-99692460D03*
X91988640Y-100690680D03*
X93319600Y-101655880D03*
X112732820Y-104970580D03*
X115176300Y-105003600D03*
X117751860Y-105036620D03*
X115494646Y-88041480D03*
X117975380Y-88041480D03*
X115277900Y-101808280D03*
X117619780Y-101808280D03*
X129143760Y-101808280D03*
X131361180Y-101808280D03*
X109364780Y-100637340D03*
X104434640Y-95120460D03*
X218655900Y-98877120D03*
X214668100Y-98877120D03*
X222056960Y-94429580D03*
X224995740Y-94470220D03*
X175879760Y-96654620D03*
X118788180Y-98173540D03*
X167081200Y-95531940D03*
X165122860Y-95531940D03*
X207373220Y-96179640D03*
X199298560Y-99405440D03*
X203118720Y-99405440D03*
X194073780Y-105153460D03*
X196337766Y-105153460D03*
X198601752Y-105153460D03*
X200865740Y-105153460D03*
X152354280Y-105112820D03*
X154825700Y-105112820D03*
X157297120Y-105112820D03*
X159768540Y-105112820D03*
X162239960Y-105112820D03*
X141387830Y-88028780D03*
X139105640Y-88028780D03*
X143670020Y-88028780D03*
X219024200Y-88968578D03*
X179011580Y-88938100D03*
X199059800Y-101282499D03*
X203502260Y-101282501D03*
X153159460Y-101727000D03*
X176530000Y-101937820D03*
X164635180Y-102143560D03*
X175620680Y-102798882D03*
X198962040Y-94644180D03*
X167764460Y-102730300D03*
D13*
X219424199Y-89368577D02*
X219024200Y-88968578D01*
X220667580Y-96766380D02*
X220667580Y-90611958D01*
X220667580Y-90611958D02*
X219424199Y-89368577D01*
X178542860Y-91864180D02*
X178542860Y-89406820D01*
X178542860Y-89406820D02*
X179011580Y-88938100D01*
X212940900Y-88661240D02*
X216631520Y-92351860D01*
X182970166Y-88661240D02*
X212940900Y-88661240D01*
X181322860Y-90308546D02*
X182970166Y-88661240D01*
X216631520Y-92351860D02*
X216631520Y-96898460D01*
X181322860Y-91864180D02*
X181322860Y-90308546D01*
X171869100Y-102201980D02*
X171869100Y-96476054D01*
X173332140Y-103665020D02*
X171869100Y-102201980D01*
X171592860Y-96199814D02*
X171592860Y-94644180D01*
X190306960Y-103624380D02*
X173332140Y-103665020D01*
X196923660Y-101869240D02*
X195168520Y-103624380D01*
X171869100Y-96476054D02*
X171592860Y-96199814D01*
X195168520Y-103624380D02*
X190306960Y-103624380D01*
X196923660Y-99278440D02*
X196923660Y-101869240D01*
X212645240Y-100887000D02*
X209459340Y-97701100D01*
X198501000Y-97701100D02*
X196923660Y-99278440D01*
X209459340Y-97701100D02*
X198501000Y-97701100D01*
X178832861Y-95744179D02*
X178832861Y-95911319D01*
X179932860Y-94644180D02*
X178832861Y-95744179D01*
X178832861Y-95911319D02*
X175905160Y-98839020D01*
X199059800Y-101282499D02*
X203502258Y-101282499D01*
X203502258Y-101282499D02*
X203502260Y-101282501D01*
X139004040Y-100672900D02*
X139004040Y-98882200D01*
X140058140Y-101727000D02*
X139004040Y-100672900D01*
X153159460Y-101727000D02*
X140058140Y-101727000D01*
X177095685Y-101937820D02*
X176530000Y-101937820D01*
X182712860Y-99636080D02*
X180411120Y-101937820D01*
X182712860Y-94644180D02*
X182712860Y-99636080D01*
X180411120Y-101937820D02*
X177095685Y-101937820D01*
X100215700Y-98833940D02*
X98440240Y-97058480D01*
X113400840Y-98833940D02*
X100215700Y-98833940D01*
X116024660Y-96210120D02*
X113400840Y-98833940D01*
X136330920Y-96210120D02*
X116024660Y-96210120D01*
X138990300Y-98869500D02*
X136330920Y-96210120D01*
X146966940Y-98894900D02*
X149186900Y-96674940D01*
X149186900Y-96674940D02*
X159166560Y-96674940D01*
X159166560Y-96674940D02*
X164235181Y-101743561D01*
X164235181Y-101743561D02*
X164635180Y-102143560D01*
X183481980Y-100162360D02*
X180845458Y-102798882D01*
X176186365Y-102798882D02*
X175620680Y-102798882D01*
X180845458Y-102798882D02*
X176186365Y-102798882D01*
X185492860Y-94644180D02*
X183481980Y-96655060D01*
X183481980Y-96655060D02*
X183481980Y-100162360D01*
X110352840Y-92763340D02*
X106245660Y-96870520D01*
X140884140Y-92763340D02*
X110352840Y-92763340D01*
X146990300Y-98869500D02*
X140884140Y-92763340D01*
D14*
X210488500Y-94644180D02*
X212686900Y-96842580D01*
X188272860Y-94644180D02*
X198962040Y-94644180D01*
X198962040Y-94644180D02*
X210488500Y-94644180D01*
X167769540Y-98861880D02*
X167764460Y-98866960D01*
X167764460Y-102164615D02*
X167764460Y-102730300D01*
X167764460Y-98866960D02*
X167764460Y-102164615D01*
D15*
G36*
X229471659Y-87755059D02*
G01*
X229696791Y-87825036D01*
X229904049Y-87937411D01*
X230085530Y-88087901D01*
X230234325Y-88270777D01*
X230344766Y-88479069D01*
X230414757Y-88711870D01*
X230436821Y-88897004D01*
X230436820Y-94323300D01*
X229598821Y-94323300D01*
X229565701Y-94326562D01*
X229550734Y-94326562D01*
X229541569Y-94327525D01*
X229317915Y-94352612D01*
X229259426Y-94365045D01*
X229200723Y-94376668D01*
X229191920Y-94379393D01*
X228977397Y-94447444D01*
X228922412Y-94471011D01*
X228867111Y-94493804D01*
X228859009Y-94498186D01*
X228859004Y-94498188D01*
X228859000Y-94498191D01*
X228661786Y-94606610D01*
X228612467Y-94640379D01*
X228562603Y-94673508D01*
X228555503Y-94679383D01*
X228383099Y-94824046D01*
X228341252Y-94866779D01*
X228298800Y-94908936D01*
X228292976Y-94916077D01*
X228151954Y-95091473D01*
X228119226Y-95141487D01*
X228085748Y-95191120D01*
X228081422Y-95199257D01*
X227977154Y-95398704D01*
X227954749Y-95454160D01*
X227931565Y-95509311D01*
X227928902Y-95518133D01*
X227865359Y-95734033D01*
X227854157Y-95792759D01*
X227842121Y-95851389D01*
X227841222Y-95860561D01*
X227820824Y-96084692D01*
X227821242Y-96144510D01*
X227820824Y-96204329D01*
X227821724Y-96213500D01*
X227845249Y-96437324D01*
X227857270Y-96495887D01*
X227868485Y-96554680D01*
X227871149Y-96563502D01*
X227937700Y-96778494D01*
X227960880Y-96833637D01*
X227983289Y-96889102D01*
X227987616Y-96897239D01*
X228094659Y-97095211D01*
X228128108Y-97144801D01*
X228160863Y-97194857D01*
X228166688Y-97201998D01*
X228310145Y-97375409D01*
X228352585Y-97417553D01*
X228394446Y-97460300D01*
X228401546Y-97466174D01*
X228575953Y-97608416D01*
X228625759Y-97641506D01*
X228675131Y-97675313D01*
X228683238Y-97679695D01*
X228881952Y-97785354D01*
X228937228Y-97808138D01*
X228992243Y-97831717D01*
X229001046Y-97834442D01*
X229216498Y-97899489D01*
X229275157Y-97911104D01*
X229333687Y-97923545D01*
X229342851Y-97924508D01*
X229566834Y-97946470D01*
X229566838Y-97946470D01*
X229598821Y-97949620D01*
X230436099Y-97949620D01*
X230435842Y-98184081D01*
X230410849Y-98438980D01*
X230346298Y-98652782D01*
X230241454Y-98849967D01*
X230095215Y-99029273D01*
X229968734Y-99139170D01*
X220932474Y-105191043D01*
X220775385Y-105261089D01*
X220610523Y-105298643D01*
X220439537Y-105306259D01*
X98555420Y-105306261D01*
X98285228Y-105279403D01*
X98054694Y-105209464D01*
X97819914Y-105084226D01*
X97806685Y-105074987D01*
X97802713Y-105071695D01*
X91354905Y-100717102D01*
X96496280Y-100717102D01*
X96496280Y-101056898D01*
X96562570Y-101390164D01*
X96692604Y-101704094D01*
X96881385Y-101986624D01*
X97121656Y-102226895D01*
X97404186Y-102415676D01*
X97718116Y-102545710D01*
X98051382Y-102612000D01*
X98391178Y-102612000D01*
X98724444Y-102545710D01*
X99038374Y-102415676D01*
X99320904Y-102226895D01*
X99561175Y-101986624D01*
X99749956Y-101704094D01*
X99879990Y-101390164D01*
X99946280Y-101056898D01*
X99946280Y-100717102D01*
X99879990Y-100383836D01*
X99749956Y-100069906D01*
X99561175Y-99787376D01*
X99320904Y-99547105D01*
X99038374Y-99358324D01*
X98724444Y-99228290D01*
X98391178Y-99162000D01*
X98051382Y-99162000D01*
X97718116Y-99228290D01*
X97404186Y-99358324D01*
X97121656Y-99547105D01*
X96881385Y-99787376D01*
X96692604Y-100069906D01*
X96562570Y-100383836D01*
X96496280Y-100717102D01*
X91354905Y-100717102D01*
X88907761Y-99064399D01*
X88728303Y-98899680D01*
X88593471Y-98715808D01*
X88496926Y-98509259D01*
X88439900Y-98278004D01*
X88427160Y-98112597D01*
X88427160Y-97926760D01*
X89247379Y-97926760D01*
X89280489Y-97923499D01*
X89295216Y-97923499D01*
X89304381Y-97922536D01*
X89524588Y-97897836D01*
X89583123Y-97885394D01*
X89641779Y-97873780D01*
X89650580Y-97871056D01*
X89650586Y-97871054D01*
X89861797Y-97804054D01*
X89916755Y-97780499D01*
X89972087Y-97757693D01*
X89980193Y-97753309D01*
X90174371Y-97646559D01*
X90223733Y-97612759D01*
X90273550Y-97579662D01*
X90280650Y-97573788D01*
X90450396Y-97431355D01*
X90492260Y-97388605D01*
X90534698Y-97346462D01*
X90540522Y-97339321D01*
X90679369Y-97166629D01*
X90712117Y-97116585D01*
X90745572Y-97066986D01*
X90749898Y-97058849D01*
X90852559Y-96862478D01*
X90874961Y-96807030D01*
X90898150Y-96751867D01*
X90900813Y-96743045D01*
X90908448Y-96717102D01*
X96496280Y-96717102D01*
X96496280Y-97056898D01*
X96562570Y-97390164D01*
X96692604Y-97704094D01*
X96881385Y-97986624D01*
X97121656Y-98226895D01*
X97404186Y-98415676D01*
X97718116Y-98545710D01*
X98051382Y-98612000D01*
X98391178Y-98612000D01*
X98724444Y-98545710D01*
X98790112Y-98518509D01*
X99633353Y-99361750D01*
X99657936Y-99391704D01*
X99777467Y-99489802D01*
X99913503Y-99562514D01*
X99913840Y-99562694D01*
X100061813Y-99607582D01*
X100136726Y-99614960D01*
X100177139Y-99618940D01*
X100177144Y-99618940D01*
X100215700Y-99622737D01*
X100254256Y-99618940D01*
X101049821Y-99618940D01*
X100881385Y-99787376D01*
X100692604Y-100069906D01*
X100562570Y-100383836D01*
X100496280Y-100717102D01*
X100496280Y-101056898D01*
X100562570Y-101390164D01*
X100692604Y-101704094D01*
X100881385Y-101986624D01*
X101121656Y-102226895D01*
X101404186Y-102415676D01*
X101718116Y-102545710D01*
X102051382Y-102612000D01*
X102391178Y-102612000D01*
X102724444Y-102545710D01*
X103038374Y-102415676D01*
X103320904Y-102226895D01*
X103561175Y-101986624D01*
X103749956Y-101704094D01*
X103879990Y-101390164D01*
X103946280Y-101056898D01*
X103946280Y-100717102D01*
X103879990Y-100383836D01*
X103749956Y-100069906D01*
X103561175Y-99787376D01*
X103392739Y-99618940D01*
X105049821Y-99618940D01*
X104881385Y-99787376D01*
X104692604Y-100069906D01*
X104562570Y-100383836D01*
X104496280Y-100717102D01*
X104496280Y-101056898D01*
X104562570Y-101390164D01*
X104692604Y-101704094D01*
X104881385Y-101986624D01*
X105121656Y-102226895D01*
X105404186Y-102415676D01*
X105718116Y-102545710D01*
X106051382Y-102612000D01*
X106391178Y-102612000D01*
X106724444Y-102545710D01*
X107038374Y-102415676D01*
X107320904Y-102226895D01*
X107561175Y-101986624D01*
X107749956Y-101704094D01*
X107879990Y-101390164D01*
X107946280Y-101056898D01*
X107946280Y-100717102D01*
X107879990Y-100383836D01*
X107749956Y-100069906D01*
X107749407Y-100069083D01*
X123470322Y-100069083D01*
X123576948Y-100342687D01*
X123881902Y-100492566D01*
X124210238Y-100580072D01*
X124549335Y-100601841D01*
X124886164Y-100557037D01*
X125207779Y-100447383D01*
X125403652Y-100342687D01*
X125510278Y-100069083D01*
X124490300Y-99049105D01*
X123470322Y-100069083D01*
X107749407Y-100069083D01*
X107561175Y-99787376D01*
X107392739Y-99618940D01*
X113362287Y-99618940D01*
X113400840Y-99622737D01*
X113439393Y-99618940D01*
X113439401Y-99618940D01*
X113554727Y-99607581D01*
X113702700Y-99562694D01*
X113839073Y-99489802D01*
X113958604Y-99391704D01*
X113983187Y-99361750D01*
X114416402Y-98928535D01*
X122757959Y-98928535D01*
X122802763Y-99265364D01*
X122912417Y-99586979D01*
X123017113Y-99782852D01*
X123290717Y-99889478D01*
X124310695Y-98869500D01*
X124669905Y-98869500D01*
X125689883Y-99889478D01*
X125963487Y-99782852D01*
X126113366Y-99477898D01*
X126200872Y-99149562D01*
X126222641Y-98810465D01*
X126207895Y-98699602D01*
X126765300Y-98699602D01*
X126765300Y-99039398D01*
X126831590Y-99372664D01*
X126961624Y-99686594D01*
X127150405Y-99969124D01*
X127390676Y-100209395D01*
X127673206Y-100398176D01*
X127987136Y-100528210D01*
X128320402Y-100594500D01*
X128660198Y-100594500D01*
X128993464Y-100528210D01*
X129307394Y-100398176D01*
X129589924Y-100209395D01*
X129830195Y-99969124D01*
X130018976Y-99686594D01*
X130149010Y-99372664D01*
X130215300Y-99039398D01*
X130215300Y-98699602D01*
X130765300Y-98699602D01*
X130765300Y-99039398D01*
X130831590Y-99372664D01*
X130961624Y-99686594D01*
X131150405Y-99969124D01*
X131390676Y-100209395D01*
X131673206Y-100398176D01*
X131987136Y-100528210D01*
X132320402Y-100594500D01*
X132660198Y-100594500D01*
X132993464Y-100528210D01*
X133307394Y-100398176D01*
X133589924Y-100209395D01*
X133830195Y-99969124D01*
X134018976Y-99686594D01*
X134149010Y-99372664D01*
X134215300Y-99039398D01*
X134215300Y-98699602D01*
X134149010Y-98366336D01*
X134018976Y-98052406D01*
X133830195Y-97769876D01*
X133589924Y-97529605D01*
X133307394Y-97340824D01*
X132993464Y-97210790D01*
X132660198Y-97144500D01*
X132320402Y-97144500D01*
X131987136Y-97210790D01*
X131673206Y-97340824D01*
X131390676Y-97529605D01*
X131150405Y-97769876D01*
X130961624Y-98052406D01*
X130831590Y-98366336D01*
X130765300Y-98699602D01*
X130215300Y-98699602D01*
X130149010Y-98366336D01*
X130018976Y-98052406D01*
X129830195Y-97769876D01*
X129589924Y-97529605D01*
X129307394Y-97340824D01*
X128993464Y-97210790D01*
X128660198Y-97144500D01*
X128320402Y-97144500D01*
X127987136Y-97210790D01*
X127673206Y-97340824D01*
X127390676Y-97529605D01*
X127150405Y-97769876D01*
X126961624Y-98052406D01*
X126831590Y-98366336D01*
X126765300Y-98699602D01*
X126207895Y-98699602D01*
X126177837Y-98473636D01*
X126068183Y-98152021D01*
X125963487Y-97956148D01*
X125689883Y-97849522D01*
X124669905Y-98869500D01*
X124310695Y-98869500D01*
X123290717Y-97849522D01*
X123017113Y-97956148D01*
X122867234Y-98261102D01*
X122779728Y-98589438D01*
X122757959Y-98928535D01*
X114416402Y-98928535D01*
X115675020Y-97669917D01*
X123470322Y-97669917D01*
X124490300Y-98689895D01*
X125510278Y-97669917D01*
X125403652Y-97396313D01*
X125098698Y-97246434D01*
X124770362Y-97158928D01*
X124431265Y-97137159D01*
X124094436Y-97181963D01*
X123772821Y-97291617D01*
X123576948Y-97396313D01*
X123470322Y-97669917D01*
X115675020Y-97669917D01*
X116349817Y-96995120D01*
X136005763Y-96995120D01*
X137344884Y-98334242D01*
X137331590Y-98366336D01*
X137265300Y-98699602D01*
X137265300Y-99039398D01*
X137331590Y-99372664D01*
X137461624Y-99686594D01*
X137650405Y-99969124D01*
X137890676Y-100209395D01*
X138173206Y-100398176D01*
X138219040Y-100417161D01*
X138219040Y-100634347D01*
X138215243Y-100672900D01*
X138219040Y-100711453D01*
X138219040Y-100711460D01*
X138230399Y-100826786D01*
X138275286Y-100974759D01*
X138348178Y-101111132D01*
X138446276Y-101230664D01*
X138476230Y-101255247D01*
X139475793Y-102254810D01*
X139500376Y-102284764D01*
X139619907Y-102382862D01*
X139756280Y-102455754D01*
X139904253Y-102500642D01*
X139979166Y-102508020D01*
X140019579Y-102512000D01*
X140019584Y-102512000D01*
X140058140Y-102515797D01*
X140096696Y-102512000D01*
X152480749Y-102512000D01*
X152499686Y-102530937D01*
X152669204Y-102644205D01*
X152857562Y-102722226D01*
X153057521Y-102762000D01*
X153261399Y-102762000D01*
X153461358Y-102722226D01*
X153649716Y-102644205D01*
X153819234Y-102530937D01*
X153963397Y-102386774D01*
X154076665Y-102217256D01*
X154154686Y-102028898D01*
X154194460Y-101828939D01*
X154194460Y-101625061D01*
X154154686Y-101425102D01*
X154076665Y-101236744D01*
X153963397Y-101067226D01*
X153819234Y-100923063D01*
X153649716Y-100809795D01*
X153461358Y-100731774D01*
X153261399Y-100692000D01*
X153057521Y-100692000D01*
X152857562Y-100731774D01*
X152669204Y-100809795D01*
X152499686Y-100923063D01*
X152480749Y-100942000D01*
X140383297Y-100942000D01*
X139826624Y-100385327D01*
X140089924Y-100209395D01*
X140330195Y-99969124D01*
X140518976Y-99686594D01*
X140649010Y-99372664D01*
X140715300Y-99039398D01*
X140715300Y-98699602D01*
X141265300Y-98699602D01*
X141265300Y-99039398D01*
X141331590Y-99372664D01*
X141461624Y-99686594D01*
X141650405Y-99969124D01*
X141890676Y-100209395D01*
X142173206Y-100398176D01*
X142487136Y-100528210D01*
X142820402Y-100594500D01*
X143160198Y-100594500D01*
X143493464Y-100528210D01*
X143807394Y-100398176D01*
X144089924Y-100209395D01*
X144330195Y-99969124D01*
X144518976Y-99686594D01*
X144649010Y-99372664D01*
X144715300Y-99039398D01*
X144715300Y-98699602D01*
X144649010Y-98366336D01*
X144518976Y-98052406D01*
X144330195Y-97769876D01*
X144089924Y-97529605D01*
X143807394Y-97340824D01*
X143493464Y-97210790D01*
X143160198Y-97144500D01*
X142820402Y-97144500D01*
X142487136Y-97210790D01*
X142173206Y-97340824D01*
X141890676Y-97529605D01*
X141650405Y-97769876D01*
X141461624Y-98052406D01*
X141331590Y-98366336D01*
X141265300Y-98699602D01*
X140715300Y-98699602D01*
X140649010Y-98366336D01*
X140518976Y-98052406D01*
X140330195Y-97769876D01*
X140089924Y-97529605D01*
X139807394Y-97340824D01*
X139493464Y-97210790D01*
X139160198Y-97144500D01*
X138820402Y-97144500D01*
X138487136Y-97210790D01*
X138455042Y-97224084D01*
X136913267Y-95682310D01*
X136888684Y-95652356D01*
X136769153Y-95554258D01*
X136632780Y-95481366D01*
X136484807Y-95436479D01*
X136369481Y-95425120D01*
X136369473Y-95425120D01*
X136330920Y-95421323D01*
X136292367Y-95425120D01*
X116063216Y-95425120D01*
X116024660Y-95421323D01*
X115986104Y-95425120D01*
X115986099Y-95425120D01*
X115945686Y-95429100D01*
X115870773Y-95436478D01*
X115722800Y-95481366D01*
X115586427Y-95554258D01*
X115466896Y-95652356D01*
X115442313Y-95682310D01*
X113075683Y-98048940D01*
X111509794Y-98048940D01*
X111536311Y-98022423D01*
X111420865Y-97906977D01*
X111694467Y-97800352D01*
X111844346Y-97495398D01*
X111931852Y-97167062D01*
X111953621Y-96827965D01*
X111908817Y-96491136D01*
X111799163Y-96169521D01*
X111694467Y-95973648D01*
X111420863Y-95867022D01*
X110400885Y-96887000D01*
X110415028Y-96901143D01*
X110235423Y-97080748D01*
X110221280Y-97066605D01*
X110207138Y-97080748D01*
X110027533Y-96901143D01*
X110041675Y-96887000D01*
X109021697Y-95867022D01*
X108748093Y-95973648D01*
X108598214Y-96278602D01*
X108510708Y-96606938D01*
X108488939Y-96946035D01*
X108533743Y-97282864D01*
X108643397Y-97604479D01*
X108748093Y-97800352D01*
X109021695Y-97906977D01*
X108906249Y-98022423D01*
X108932766Y-98048940D01*
X107498859Y-98048940D01*
X107561175Y-97986624D01*
X107749956Y-97704094D01*
X107879990Y-97390164D01*
X107946280Y-97056898D01*
X107946280Y-96717102D01*
X107879990Y-96383836D01*
X107869010Y-96357327D01*
X108538920Y-95687417D01*
X109201302Y-95687417D01*
X110221280Y-96707395D01*
X111241258Y-95687417D01*
X111134632Y-95413813D01*
X110829678Y-95263934D01*
X110501342Y-95176428D01*
X110162245Y-95154659D01*
X109825416Y-95199463D01*
X109503801Y-95309117D01*
X109307928Y-95413813D01*
X109201302Y-95687417D01*
X108538920Y-95687417D01*
X110677997Y-93548340D01*
X140558983Y-93548340D01*
X145344884Y-98334242D01*
X145331590Y-98366336D01*
X145265300Y-98699602D01*
X145265300Y-99039398D01*
X145331590Y-99372664D01*
X145461624Y-99686594D01*
X145650405Y-99969124D01*
X145890676Y-100209395D01*
X146173206Y-100398176D01*
X146487136Y-100528210D01*
X146820402Y-100594500D01*
X147160198Y-100594500D01*
X147493464Y-100528210D01*
X147807394Y-100398176D01*
X148089924Y-100209395D01*
X148330195Y-99969124D01*
X148518976Y-99686594D01*
X148649010Y-99372664D01*
X148715300Y-99039398D01*
X148715300Y-98699602D01*
X148649010Y-98366336D01*
X148636313Y-98335684D01*
X149512057Y-97459940D01*
X149994937Y-97459940D01*
X149890676Y-97529605D01*
X149650405Y-97769876D01*
X149461624Y-98052406D01*
X149331590Y-98366336D01*
X149265300Y-98699602D01*
X149265300Y-99039398D01*
X149331590Y-99372664D01*
X149461624Y-99686594D01*
X149650405Y-99969124D01*
X149890676Y-100209395D01*
X150173206Y-100398176D01*
X150487136Y-100528210D01*
X150820402Y-100594500D01*
X151160198Y-100594500D01*
X151493464Y-100528210D01*
X151807394Y-100398176D01*
X152089924Y-100209395D01*
X152330195Y-99969124D01*
X152518976Y-99686594D01*
X152649010Y-99372664D01*
X152715300Y-99039398D01*
X152715300Y-98699602D01*
X152649010Y-98366336D01*
X152518976Y-98052406D01*
X152330195Y-97769876D01*
X152089924Y-97529605D01*
X151985663Y-97459940D01*
X158841403Y-97459940D01*
X163600180Y-102218717D01*
X163600180Y-102245499D01*
X163639954Y-102445458D01*
X163717975Y-102633816D01*
X163831243Y-102803334D01*
X163975406Y-102947497D01*
X164144924Y-103060765D01*
X164333282Y-103138786D01*
X164533241Y-103178560D01*
X164737119Y-103178560D01*
X164937078Y-103138786D01*
X165125436Y-103060765D01*
X165294954Y-102947497D01*
X165439117Y-102803334D01*
X165552385Y-102633816D01*
X165630406Y-102445458D01*
X165670180Y-102245499D01*
X165670180Y-102041621D01*
X165630406Y-101841662D01*
X165552385Y-101653304D01*
X165439117Y-101483786D01*
X165294954Y-101339623D01*
X165125436Y-101226355D01*
X164937078Y-101148334D01*
X164737119Y-101108560D01*
X164710337Y-101108560D01*
X162291219Y-98689442D01*
X166138520Y-98689442D01*
X166138520Y-99029238D01*
X166204810Y-99362504D01*
X166334844Y-99676434D01*
X166523625Y-99958964D01*
X166763896Y-100199235D01*
X166904460Y-100293157D01*
X166904461Y-102122360D01*
X166904460Y-102122370D01*
X166904460Y-102154430D01*
X166847255Y-102240044D01*
X166769234Y-102428402D01*
X166729460Y-102628361D01*
X166729460Y-102832239D01*
X166769234Y-103032198D01*
X166847255Y-103220556D01*
X166960523Y-103390074D01*
X167104686Y-103534237D01*
X167274204Y-103647505D01*
X167462562Y-103725526D01*
X167662521Y-103765300D01*
X167866399Y-103765300D01*
X168066358Y-103725526D01*
X168254716Y-103647505D01*
X168424234Y-103534237D01*
X168568397Y-103390074D01*
X168681665Y-103220556D01*
X168759686Y-103032198D01*
X168799460Y-102832239D01*
X168799460Y-102628361D01*
X168759686Y-102428402D01*
X168681665Y-102240044D01*
X168624460Y-102154430D01*
X168624460Y-100411276D01*
X168680614Y-100388016D01*
X168963144Y-100199235D01*
X169203415Y-99958964D01*
X169392196Y-99676434D01*
X169522230Y-99362504D01*
X169588520Y-99029238D01*
X169588520Y-98689442D01*
X169522230Y-98356176D01*
X169392196Y-98042246D01*
X169203415Y-97759716D01*
X168963144Y-97519445D01*
X168680614Y-97330664D01*
X168366684Y-97200630D01*
X168033418Y-97134340D01*
X167693622Y-97134340D01*
X167360356Y-97200630D01*
X167046426Y-97330664D01*
X166763896Y-97519445D01*
X166523625Y-97759716D01*
X166334844Y-98042246D01*
X166204810Y-98356176D01*
X166138520Y-98689442D01*
X162291219Y-98689442D01*
X159748907Y-96147130D01*
X159724324Y-96117176D01*
X159604793Y-96019078D01*
X159468420Y-95946186D01*
X159320447Y-95901299D01*
X159205121Y-95889940D01*
X159205113Y-95889940D01*
X159166560Y-95886143D01*
X159128007Y-95889940D01*
X149225456Y-95889940D01*
X149186900Y-95886143D01*
X149148344Y-95889940D01*
X149148339Y-95889940D01*
X149107926Y-95893920D01*
X149033013Y-95901298D01*
X148885040Y-95946186D01*
X148748667Y-96019078D01*
X148629136Y-96117176D01*
X148604553Y-96147130D01*
X147527001Y-97224682D01*
X147493464Y-97210790D01*
X147160198Y-97144500D01*
X146820402Y-97144500D01*
X146487136Y-97210790D01*
X146455042Y-97224084D01*
X142301850Y-93070892D01*
X169175753Y-93070892D01*
X169283586Y-93345518D01*
X169590244Y-93496396D01*
X169920445Y-93584549D01*
X170202056Y-93602748D01*
X170055323Y-93822349D01*
X169924535Y-94138099D01*
X169857860Y-94473297D01*
X169857860Y-94815063D01*
X169924535Y-95150261D01*
X170055323Y-95466011D01*
X170245197Y-95750178D01*
X170486862Y-95991843D01*
X170771029Y-96181717D01*
X170804481Y-96195573D01*
X170804063Y-96199814D01*
X170807860Y-96238367D01*
X170807860Y-96238374D01*
X170819219Y-96353700D01*
X170864106Y-96501673D01*
X170936998Y-96638046D01*
X171035096Y-96757578D01*
X171065050Y-96782161D01*
X171084101Y-96801212D01*
X171084101Y-97315059D01*
X171046426Y-97330664D01*
X170763896Y-97519445D01*
X170523625Y-97759716D01*
X170334844Y-98042246D01*
X170204810Y-98356176D01*
X170138520Y-98689442D01*
X170138520Y-99029238D01*
X170204810Y-99362504D01*
X170334844Y-99676434D01*
X170523625Y-99958964D01*
X170763896Y-100199235D01*
X171046426Y-100388016D01*
X171084100Y-100403621D01*
X171084100Y-102163427D01*
X171080303Y-102201980D01*
X171084100Y-102240533D01*
X171084100Y-102240540D01*
X171095459Y-102355866D01*
X171140346Y-102503839D01*
X171213238Y-102640212D01*
X171311336Y-102759744D01*
X171341290Y-102784327D01*
X172750469Y-104193507D01*
X172775713Y-104224117D01*
X172834676Y-104272272D01*
X172893907Y-104320881D01*
X172894743Y-104321328D01*
X172895479Y-104321929D01*
X172962859Y-104357737D01*
X173030280Y-104393774D01*
X173031191Y-104394050D01*
X173032026Y-104394494D01*
X173104966Y-104416430D01*
X173178253Y-104438661D01*
X173179199Y-104438754D01*
X173180106Y-104439027D01*
X173256263Y-104446344D01*
X173332139Y-104453817D01*
X173371630Y-104449928D01*
X190307720Y-104409380D01*
X195129967Y-104409380D01*
X195168520Y-104413177D01*
X195207073Y-104409380D01*
X195207081Y-104409380D01*
X195322407Y-104398021D01*
X195470380Y-104353134D01*
X195606753Y-104280242D01*
X195726284Y-104182144D01*
X195750867Y-104152190D01*
X197451470Y-102451587D01*
X197481424Y-102427004D01*
X197579522Y-102307473D01*
X197652414Y-102171100D01*
X197654194Y-102165232D01*
X197697302Y-102023127D01*
X197705703Y-101937820D01*
X197708660Y-101907801D01*
X197708660Y-101907796D01*
X197712457Y-101869240D01*
X197708660Y-101830684D01*
X197708660Y-101180560D01*
X198024800Y-101180560D01*
X198024800Y-101384438D01*
X198064574Y-101584397D01*
X198142595Y-101772755D01*
X198255863Y-101942273D01*
X198400026Y-102086436D01*
X198569544Y-102199704D01*
X198757902Y-102277725D01*
X198957861Y-102317499D01*
X199161739Y-102317499D01*
X199361698Y-102277725D01*
X199550056Y-102199704D01*
X199719574Y-102086436D01*
X199738511Y-102067499D01*
X202823547Y-102067499D01*
X202842486Y-102086438D01*
X203012004Y-102199706D01*
X203200362Y-102277727D01*
X203400321Y-102317501D01*
X203604199Y-102317501D01*
X203804158Y-102277727D01*
X203992516Y-102199706D01*
X204161816Y-102086583D01*
X207625262Y-102086583D01*
X207731888Y-102360187D01*
X208036842Y-102510066D01*
X208365178Y-102597572D01*
X208704275Y-102619341D01*
X209041104Y-102574537D01*
X209362719Y-102464883D01*
X209558592Y-102360187D01*
X209665218Y-102086583D01*
X208645240Y-101066605D01*
X207625262Y-102086583D01*
X204161816Y-102086583D01*
X204162034Y-102086438D01*
X204306197Y-101942275D01*
X204419465Y-101772757D01*
X204497486Y-101584399D01*
X204537260Y-101384440D01*
X204537260Y-101180562D01*
X204497486Y-100980603D01*
X204483168Y-100946035D01*
X206912899Y-100946035D01*
X206957703Y-101282864D01*
X207067357Y-101604479D01*
X207172053Y-101800352D01*
X207445657Y-101906978D01*
X208465635Y-100887000D01*
X208824845Y-100887000D01*
X209844823Y-101906978D01*
X210118427Y-101800352D01*
X210268306Y-101495398D01*
X210355812Y-101167062D01*
X210377581Y-100827965D01*
X210332777Y-100491136D01*
X210223123Y-100169521D01*
X210118427Y-99973648D01*
X209844823Y-99867022D01*
X208824845Y-100887000D01*
X208465635Y-100887000D01*
X207445657Y-99867022D01*
X207172053Y-99973648D01*
X207022174Y-100278602D01*
X206934668Y-100606938D01*
X206912899Y-100946035D01*
X204483168Y-100946035D01*
X204419465Y-100792245D01*
X204306197Y-100622727D01*
X204162034Y-100478564D01*
X203992516Y-100365296D01*
X203804158Y-100287275D01*
X203604199Y-100247501D01*
X203400321Y-100247501D01*
X203200362Y-100287275D01*
X203012004Y-100365296D01*
X202842486Y-100478564D01*
X202823551Y-100497499D01*
X199738511Y-100497499D01*
X199719574Y-100478562D01*
X199550056Y-100365294D01*
X199361698Y-100287273D01*
X199161739Y-100247499D01*
X198957861Y-100247499D01*
X198757902Y-100287273D01*
X198569544Y-100365294D01*
X198400026Y-100478562D01*
X198255863Y-100622725D01*
X198142595Y-100792243D01*
X198064574Y-100980601D01*
X198024800Y-101180560D01*
X197708660Y-101180560D01*
X197708660Y-99687417D01*
X207625262Y-99687417D01*
X208645240Y-100707395D01*
X209665218Y-99687417D01*
X209558592Y-99413813D01*
X209253638Y-99263934D01*
X208925302Y-99176428D01*
X208586205Y-99154659D01*
X208249376Y-99199463D01*
X207927761Y-99309117D01*
X207731888Y-99413813D01*
X207625262Y-99687417D01*
X197708660Y-99687417D01*
X197708660Y-99603597D01*
X198826157Y-98486100D01*
X209134183Y-98486100D01*
X210999824Y-100351742D01*
X210986530Y-100383836D01*
X210920240Y-100717102D01*
X210920240Y-101056898D01*
X210986530Y-101390164D01*
X211116564Y-101704094D01*
X211305345Y-101986624D01*
X211545616Y-102226895D01*
X211828146Y-102415676D01*
X212142076Y-102545710D01*
X212475342Y-102612000D01*
X212815138Y-102612000D01*
X213148404Y-102545710D01*
X213462334Y-102415676D01*
X213744864Y-102226895D01*
X213985135Y-101986624D01*
X214173916Y-101704094D01*
X214303950Y-101390164D01*
X214370240Y-101056898D01*
X214370240Y-100717102D01*
X214920240Y-100717102D01*
X214920240Y-101056898D01*
X214986530Y-101390164D01*
X215116564Y-101704094D01*
X215305345Y-101986624D01*
X215545616Y-102226895D01*
X215828146Y-102415676D01*
X216142076Y-102545710D01*
X216475342Y-102612000D01*
X216815138Y-102612000D01*
X217148404Y-102545710D01*
X217462334Y-102415676D01*
X217744864Y-102226895D01*
X217985135Y-101986624D01*
X218173916Y-101704094D01*
X218303950Y-101390164D01*
X218370240Y-101056898D01*
X218370240Y-100717102D01*
X218920240Y-100717102D01*
X218920240Y-101056898D01*
X218986530Y-101390164D01*
X219116564Y-101704094D01*
X219305345Y-101986624D01*
X219545616Y-102226895D01*
X219828146Y-102415676D01*
X220142076Y-102545710D01*
X220475342Y-102612000D01*
X220815138Y-102612000D01*
X221148404Y-102545710D01*
X221462334Y-102415676D01*
X221744864Y-102226895D01*
X221985135Y-101986624D01*
X222173916Y-101704094D01*
X222303950Y-101390164D01*
X222370240Y-101056898D01*
X222370240Y-100717102D01*
X222303950Y-100383836D01*
X222173916Y-100069906D01*
X221985135Y-99787376D01*
X221744864Y-99547105D01*
X221462334Y-99358324D01*
X221148404Y-99228290D01*
X220815138Y-99162000D01*
X220475342Y-99162000D01*
X220142076Y-99228290D01*
X219828146Y-99358324D01*
X219545616Y-99547105D01*
X219305345Y-99787376D01*
X219116564Y-100069906D01*
X218986530Y-100383836D01*
X218920240Y-100717102D01*
X218370240Y-100717102D01*
X218303950Y-100383836D01*
X218173916Y-100069906D01*
X217985135Y-99787376D01*
X217744864Y-99547105D01*
X217462334Y-99358324D01*
X217148404Y-99228290D01*
X216815138Y-99162000D01*
X216475342Y-99162000D01*
X216142076Y-99228290D01*
X215828146Y-99358324D01*
X215545616Y-99547105D01*
X215305345Y-99787376D01*
X215116564Y-100069906D01*
X214986530Y-100383836D01*
X214920240Y-100717102D01*
X214370240Y-100717102D01*
X214303950Y-100383836D01*
X214173916Y-100069906D01*
X213985135Y-99787376D01*
X213744864Y-99547105D01*
X213462334Y-99358324D01*
X213148404Y-99228290D01*
X212815138Y-99162000D01*
X212475342Y-99162000D01*
X212142076Y-99228290D01*
X212109982Y-99241584D01*
X210041687Y-97173290D01*
X210017104Y-97143336D01*
X209897573Y-97045238D01*
X209761200Y-96972346D01*
X209613227Y-96927459D01*
X209497901Y-96916100D01*
X209497893Y-96916100D01*
X209459340Y-96912303D01*
X209420787Y-96916100D01*
X198539556Y-96916100D01*
X198501000Y-96912303D01*
X198462444Y-96916100D01*
X198462439Y-96916100D01*
X198422026Y-96920080D01*
X198347113Y-96927458D01*
X198199140Y-96972346D01*
X198062767Y-97045238D01*
X197943236Y-97143336D01*
X197918653Y-97173290D01*
X196395850Y-98696093D01*
X196365896Y-98720676D01*
X196267798Y-98840208D01*
X196194906Y-98976581D01*
X196150019Y-99124554D01*
X196138660Y-99239880D01*
X196138660Y-99239887D01*
X196134863Y-99278440D01*
X196138660Y-99316993D01*
X196138661Y-101544082D01*
X194843363Y-102839380D01*
X190344578Y-102839380D01*
X190343641Y-102839290D01*
X190306049Y-102839380D01*
X190268399Y-102839380D01*
X190267461Y-102839472D01*
X181894980Y-102859517D01*
X184009796Y-100744702D01*
X184039744Y-100720124D01*
X184078501Y-100672900D01*
X184116467Y-100626638D01*
X184137842Y-100600593D01*
X184210734Y-100464220D01*
X184235118Y-100383836D01*
X184255621Y-100316248D01*
X184258015Y-100291942D01*
X184266980Y-100200921D01*
X184266980Y-100200914D01*
X184270777Y-100162361D01*
X184266980Y-100123808D01*
X184266980Y-98689442D01*
X184638520Y-98689442D01*
X184638520Y-99029238D01*
X184704810Y-99362504D01*
X184834844Y-99676434D01*
X185023625Y-99958964D01*
X185263896Y-100199235D01*
X185546426Y-100388016D01*
X185860356Y-100518050D01*
X186193622Y-100584340D01*
X186533418Y-100584340D01*
X186866684Y-100518050D01*
X187180614Y-100388016D01*
X187463144Y-100199235D01*
X187703415Y-99958964D01*
X187892196Y-99676434D01*
X188022230Y-99362504D01*
X188088520Y-99029238D01*
X188088520Y-98689442D01*
X188638520Y-98689442D01*
X188638520Y-99029238D01*
X188704810Y-99362504D01*
X188834844Y-99676434D01*
X189023625Y-99958964D01*
X189263896Y-100199235D01*
X189546426Y-100388016D01*
X189860356Y-100518050D01*
X190193622Y-100584340D01*
X190533418Y-100584340D01*
X190866684Y-100518050D01*
X191180614Y-100388016D01*
X191463144Y-100199235D01*
X191603456Y-100058923D01*
X193343542Y-100058923D01*
X193450168Y-100332527D01*
X193755122Y-100482406D01*
X194083458Y-100569912D01*
X194422555Y-100591681D01*
X194759384Y-100546877D01*
X195080999Y-100437223D01*
X195276872Y-100332527D01*
X195383498Y-100058923D01*
X194363520Y-99038945D01*
X193343542Y-100058923D01*
X191603456Y-100058923D01*
X191703415Y-99958964D01*
X191892196Y-99676434D01*
X192022230Y-99362504D01*
X192088520Y-99029238D01*
X192088520Y-98918375D01*
X192631179Y-98918375D01*
X192675983Y-99255204D01*
X192785637Y-99576819D01*
X192890333Y-99772692D01*
X193163937Y-99879318D01*
X194183915Y-98859340D01*
X194543125Y-98859340D01*
X195563103Y-99879318D01*
X195836707Y-99772692D01*
X195986586Y-99467738D01*
X196074092Y-99139402D01*
X196095861Y-98800305D01*
X196051057Y-98463476D01*
X195941403Y-98141861D01*
X195836707Y-97945988D01*
X195563103Y-97839362D01*
X194543125Y-98859340D01*
X194183915Y-98859340D01*
X193163937Y-97839362D01*
X192890333Y-97945988D01*
X192740454Y-98250942D01*
X192652948Y-98579278D01*
X192631179Y-98918375D01*
X192088520Y-98918375D01*
X192088520Y-98689442D01*
X192022230Y-98356176D01*
X191892196Y-98042246D01*
X191703415Y-97759716D01*
X191603456Y-97659757D01*
X193343542Y-97659757D01*
X194363520Y-98679735D01*
X195383498Y-97659757D01*
X195276872Y-97386153D01*
X194971918Y-97236274D01*
X194643582Y-97148768D01*
X194304485Y-97126999D01*
X193967656Y-97171803D01*
X193646041Y-97281457D01*
X193450168Y-97386153D01*
X193343542Y-97659757D01*
X191603456Y-97659757D01*
X191463144Y-97519445D01*
X191180614Y-97330664D01*
X190866684Y-97200630D01*
X190533418Y-97134340D01*
X190193622Y-97134340D01*
X189860356Y-97200630D01*
X189546426Y-97330664D01*
X189263896Y-97519445D01*
X189023625Y-97759716D01*
X188834844Y-98042246D01*
X188704810Y-98356176D01*
X188638520Y-98689442D01*
X188088520Y-98689442D01*
X188022230Y-98356176D01*
X187892196Y-98042246D01*
X187703415Y-97759716D01*
X187463144Y-97519445D01*
X187180614Y-97330664D01*
X186866684Y-97200630D01*
X186533418Y-97134340D01*
X186193622Y-97134340D01*
X185860356Y-97200630D01*
X185546426Y-97330664D01*
X185263896Y-97519445D01*
X185023625Y-97759716D01*
X184834844Y-98042246D01*
X184704810Y-98356176D01*
X184638520Y-98689442D01*
X184266980Y-98689442D01*
X184266980Y-96980217D01*
X184949948Y-96297249D01*
X184986779Y-96312505D01*
X185321977Y-96379180D01*
X185663743Y-96379180D01*
X185998941Y-96312505D01*
X186314691Y-96181717D01*
X186598858Y-95991843D01*
X186840523Y-95750178D01*
X186882860Y-95686816D01*
X186925197Y-95750178D01*
X187166862Y-95991843D01*
X187451029Y-96181717D01*
X187766779Y-96312505D01*
X188101977Y-96379180D01*
X188443743Y-96379180D01*
X188778941Y-96312505D01*
X189094691Y-96181717D01*
X189378858Y-95991843D01*
X189620523Y-95750178D01*
X189784893Y-95504180D01*
X198386170Y-95504180D01*
X198471784Y-95561385D01*
X198660142Y-95639406D01*
X198860101Y-95679180D01*
X199063979Y-95679180D01*
X199263938Y-95639406D01*
X199452296Y-95561385D01*
X199537910Y-95504180D01*
X210132277Y-95504180D01*
X210993970Y-96365874D01*
X210986530Y-96383836D01*
X210920240Y-96717102D01*
X210920240Y-97056898D01*
X210986530Y-97390164D01*
X211116564Y-97704094D01*
X211305345Y-97986624D01*
X211545616Y-98226895D01*
X211828146Y-98415676D01*
X212142076Y-98545710D01*
X212475342Y-98612000D01*
X212815138Y-98612000D01*
X213148404Y-98545710D01*
X213462334Y-98415676D01*
X213744864Y-98226895D01*
X213985135Y-97986624D01*
X214173916Y-97704094D01*
X214303950Y-97390164D01*
X214370240Y-97056898D01*
X214370240Y-96717102D01*
X214303950Y-96383836D01*
X214173916Y-96069906D01*
X213985135Y-95787376D01*
X213744864Y-95547105D01*
X213462334Y-95358324D01*
X213148404Y-95228290D01*
X212815138Y-95162000D01*
X212475342Y-95162000D01*
X212264485Y-95203942D01*
X211126488Y-94065945D01*
X211099554Y-94033126D01*
X210968602Y-93925656D01*
X210819200Y-93845799D01*
X210657089Y-93796624D01*
X210530746Y-93784180D01*
X210530739Y-93784180D01*
X210488500Y-93780020D01*
X210446261Y-93784180D01*
X199537910Y-93784180D01*
X199452296Y-93726975D01*
X199263938Y-93648954D01*
X199063979Y-93609180D01*
X198860101Y-93609180D01*
X198660142Y-93648954D01*
X198471784Y-93726975D01*
X198386170Y-93784180D01*
X189784893Y-93784180D01*
X189661280Y-93599180D01*
X189833743Y-93599180D01*
X190168941Y-93532505D01*
X190484691Y-93401717D01*
X190768858Y-93211843D01*
X191010523Y-92970178D01*
X191200397Y-92686011D01*
X191331185Y-92370261D01*
X191397860Y-92035063D01*
X191397860Y-91693297D01*
X191331185Y-91358099D01*
X191200397Y-91042349D01*
X191010523Y-90758182D01*
X190768858Y-90516517D01*
X190484691Y-90326643D01*
X190168941Y-90195855D01*
X189833743Y-90129180D01*
X189491977Y-90129180D01*
X189156779Y-90195855D01*
X188841029Y-90326643D01*
X188556862Y-90516517D01*
X188315197Y-90758182D01*
X188272860Y-90821544D01*
X188230523Y-90758182D01*
X187988858Y-90516517D01*
X187704691Y-90326643D01*
X187388941Y-90195855D01*
X187053743Y-90129180D01*
X186711977Y-90129180D01*
X186376779Y-90195855D01*
X186061029Y-90326643D01*
X185776862Y-90516517D01*
X185535197Y-90758182D01*
X185492860Y-90821544D01*
X185450523Y-90758182D01*
X185208858Y-90516517D01*
X184924691Y-90326643D01*
X184608941Y-90195855D01*
X184273743Y-90129180D01*
X183931977Y-90129180D01*
X183596779Y-90195855D01*
X183281029Y-90326643D01*
X182996862Y-90516517D01*
X182755197Y-90758182D01*
X182712860Y-90821544D01*
X182670523Y-90758182D01*
X182428858Y-90516517D01*
X182306682Y-90434882D01*
X183295324Y-89446240D01*
X212615743Y-89446240D01*
X215846520Y-92677017D01*
X215846521Y-95350713D01*
X215828146Y-95358324D01*
X215545616Y-95547105D01*
X215305345Y-95787376D01*
X215116564Y-96069906D01*
X214986530Y-96383836D01*
X214920240Y-96717102D01*
X214920240Y-97056898D01*
X214986530Y-97390164D01*
X215116564Y-97704094D01*
X215305345Y-97986624D01*
X215545616Y-98226895D01*
X215828146Y-98415676D01*
X216142076Y-98545710D01*
X216475342Y-98612000D01*
X216815138Y-98612000D01*
X217148404Y-98545710D01*
X217462334Y-98415676D01*
X217744864Y-98226895D01*
X217985135Y-97986624D01*
X218173916Y-97704094D01*
X218303950Y-97390164D01*
X218370240Y-97056898D01*
X218370240Y-96717102D01*
X218303950Y-96383836D01*
X218173916Y-96069906D01*
X217985135Y-95787376D01*
X217744864Y-95547105D01*
X217462334Y-95358324D01*
X217416520Y-95339347D01*
X217416520Y-92390416D01*
X217420317Y-92351860D01*
X217416520Y-92313300D01*
X217416520Y-92313299D01*
X217411430Y-92261619D01*
X217405162Y-92197973D01*
X217360274Y-92050000D01*
X217352035Y-92034586D01*
X217287382Y-91913627D01*
X217189284Y-91794096D01*
X217159331Y-91769514D01*
X214256456Y-88866639D01*
X217989200Y-88866639D01*
X217989200Y-89070517D01*
X218028974Y-89270476D01*
X218106995Y-89458834D01*
X218220263Y-89628352D01*
X218364426Y-89772515D01*
X218533944Y-89885783D01*
X218722302Y-89963804D01*
X218922261Y-90003578D01*
X218949043Y-90003578D01*
X219882581Y-90937117D01*
X219882580Y-95335777D01*
X219828146Y-95358324D01*
X219545616Y-95547105D01*
X219305345Y-95787376D01*
X219116564Y-96069906D01*
X218986530Y-96383836D01*
X218920240Y-96717102D01*
X218920240Y-97056898D01*
X218986530Y-97390164D01*
X219116564Y-97704094D01*
X219305345Y-97986624D01*
X219545616Y-98226895D01*
X219828146Y-98415676D01*
X220142076Y-98545710D01*
X220475342Y-98612000D01*
X220815138Y-98612000D01*
X221148404Y-98545710D01*
X221462334Y-98415676D01*
X221744864Y-98226895D01*
X221985135Y-97986624D01*
X222173916Y-97704094D01*
X222303950Y-97390164D01*
X222370240Y-97056898D01*
X222370240Y-96717102D01*
X222303950Y-96383836D01*
X222173916Y-96069906D01*
X221985135Y-95787376D01*
X221744864Y-95547105D01*
X221462334Y-95358324D01*
X221452580Y-95354284D01*
X221452580Y-90650510D01*
X221456377Y-90611957D01*
X221452580Y-90573404D01*
X221452580Y-90573397D01*
X221441221Y-90458071D01*
X221396334Y-90310098D01*
X221323442Y-90173725D01*
X221225344Y-90054194D01*
X221195395Y-90029616D01*
X220059200Y-88893421D01*
X220059200Y-88866639D01*
X220019426Y-88666680D01*
X219941405Y-88478322D01*
X219828137Y-88308804D01*
X219683974Y-88164641D01*
X219514456Y-88051373D01*
X219326098Y-87973352D01*
X219126139Y-87933578D01*
X218922261Y-87933578D01*
X218722302Y-87973352D01*
X218533944Y-88051373D01*
X218364426Y-88164641D01*
X218220263Y-88308804D01*
X218106995Y-88478322D01*
X218028974Y-88666680D01*
X217989200Y-88866639D01*
X214256456Y-88866639D01*
X213523247Y-88133430D01*
X213498664Y-88103476D01*
X213379133Y-88005378D01*
X213242760Y-87932486D01*
X213094787Y-87887599D01*
X212979461Y-87876240D01*
X212979453Y-87876240D01*
X212940900Y-87872443D01*
X212902347Y-87876240D01*
X183008718Y-87876240D01*
X182970165Y-87872443D01*
X182931612Y-87876240D01*
X182931605Y-87876240D01*
X182830656Y-87886183D01*
X182816278Y-87887599D01*
X182797353Y-87893340D01*
X182668306Y-87932486D01*
X182531933Y-88005378D01*
X182482452Y-88045987D01*
X182442353Y-88078895D01*
X182442350Y-88078898D01*
X182412402Y-88103476D01*
X182387824Y-88133424D01*
X180795045Y-89726204D01*
X180765097Y-89750782D01*
X180740519Y-89780730D01*
X180740515Y-89780734D01*
X180719116Y-89806809D01*
X180666999Y-89870313D01*
X180637052Y-89926341D01*
X180594106Y-90006687D01*
X180549219Y-90154660D01*
X180534063Y-90308546D01*
X180534481Y-90312787D01*
X180501029Y-90326643D01*
X180216862Y-90516517D01*
X179975197Y-90758182D01*
X179932860Y-90821544D01*
X179890523Y-90758182D01*
X179648858Y-90516517D01*
X179364691Y-90326643D01*
X179327860Y-90311387D01*
X179327860Y-89927369D01*
X179501836Y-89855305D01*
X179671354Y-89742037D01*
X179815517Y-89597874D01*
X179928785Y-89428356D01*
X180006806Y-89239998D01*
X180046580Y-89040039D01*
X180046580Y-88836161D01*
X180006806Y-88636202D01*
X179928785Y-88447844D01*
X179815517Y-88278326D01*
X179671354Y-88134163D01*
X179501836Y-88020895D01*
X179313478Y-87942874D01*
X179113519Y-87903100D01*
X178909641Y-87903100D01*
X178709682Y-87942874D01*
X178521324Y-88020895D01*
X178351806Y-88134163D01*
X178207643Y-88278326D01*
X178094375Y-88447844D01*
X178016354Y-88636202D01*
X177976580Y-88836161D01*
X177976580Y-88859434D01*
X177960519Y-88879004D01*
X177960515Y-88879008D01*
X177928790Y-88917665D01*
X177886999Y-88968587D01*
X177848808Y-89040039D01*
X177814106Y-89104961D01*
X177769219Y-89252934D01*
X177754063Y-89406820D01*
X177757861Y-89445383D01*
X177757861Y-90311387D01*
X177721029Y-90326643D01*
X177436862Y-90516517D01*
X177195197Y-90758182D01*
X177152860Y-90821544D01*
X177110523Y-90758182D01*
X176868858Y-90516517D01*
X176584691Y-90326643D01*
X176268941Y-90195855D01*
X175933743Y-90129180D01*
X175591977Y-90129180D01*
X175256779Y-90195855D01*
X174941029Y-90326643D01*
X174656862Y-90516517D01*
X174415197Y-90758182D01*
X174372860Y-90821544D01*
X174330523Y-90758182D01*
X174088858Y-90516517D01*
X173804691Y-90326643D01*
X173488941Y-90195855D01*
X173153743Y-90129180D01*
X172811977Y-90129180D01*
X172476779Y-90195855D01*
X172161029Y-90326643D01*
X171876862Y-90516517D01*
X171635197Y-90758182D01*
X171546547Y-90890857D01*
X171409572Y-90837073D01*
X170382465Y-91864180D01*
X170396608Y-91878323D01*
X170217003Y-92057928D01*
X170202860Y-92043785D01*
X169175753Y-93070892D01*
X142301850Y-93070892D01*
X141466487Y-92235530D01*
X141441904Y-92205576D01*
X141322373Y-92107478D01*
X141186000Y-92034586D01*
X141038027Y-91989699D01*
X140922701Y-91978340D01*
X140922693Y-91978340D01*
X140884140Y-91974543D01*
X140845587Y-91978340D01*
X110391396Y-91978340D01*
X110352840Y-91974543D01*
X110314284Y-91978340D01*
X110314279Y-91978340D01*
X110273866Y-91982320D01*
X110198953Y-91989698D01*
X110050980Y-92034586D01*
X109914607Y-92107478D01*
X109795076Y-92205576D01*
X109770493Y-92235530D01*
X106762125Y-95243898D01*
X106724444Y-95228290D01*
X106391178Y-95162000D01*
X106051382Y-95162000D01*
X105718116Y-95228290D01*
X105404186Y-95358324D01*
X105121656Y-95547105D01*
X104881385Y-95787376D01*
X104692604Y-96069906D01*
X104562570Y-96383836D01*
X104496280Y-96717102D01*
X104496280Y-97056898D01*
X104562570Y-97390164D01*
X104692604Y-97704094D01*
X104881385Y-97986624D01*
X104943701Y-98048940D01*
X103498859Y-98048940D01*
X103561175Y-97986624D01*
X103749956Y-97704094D01*
X103879990Y-97390164D01*
X103946280Y-97056898D01*
X103946280Y-96717102D01*
X103879990Y-96383836D01*
X103749956Y-96069906D01*
X103561175Y-95787376D01*
X103320904Y-95547105D01*
X103038374Y-95358324D01*
X102724444Y-95228290D01*
X102391178Y-95162000D01*
X102051382Y-95162000D01*
X101718116Y-95228290D01*
X101404186Y-95358324D01*
X101121656Y-95547105D01*
X100881385Y-95787376D01*
X100692604Y-96069906D01*
X100562570Y-96383836D01*
X100496280Y-96717102D01*
X100496280Y-97056898D01*
X100562570Y-97390164D01*
X100692604Y-97704094D01*
X100881385Y-97986624D01*
X100943701Y-98048940D01*
X100540857Y-98048940D01*
X99880337Y-97388420D01*
X99946280Y-97056898D01*
X99946280Y-96717102D01*
X99879990Y-96383836D01*
X99749956Y-96069906D01*
X99561175Y-95787376D01*
X99320904Y-95547105D01*
X99038374Y-95358324D01*
X98724444Y-95228290D01*
X98391178Y-95162000D01*
X98051382Y-95162000D01*
X97718116Y-95228290D01*
X97404186Y-95358324D01*
X97121656Y-95547105D01*
X96881385Y-95787376D01*
X96692604Y-96069906D01*
X96562570Y-96383836D01*
X96496280Y-96717102D01*
X90908448Y-96717102D01*
X90963376Y-96530474D01*
X90974577Y-96471755D01*
X90986614Y-96413118D01*
X90987513Y-96403947D01*
X91007596Y-96183271D01*
X91007178Y-96123454D01*
X91007596Y-96063637D01*
X91006697Y-96054466D01*
X90983535Y-95834092D01*
X90971508Y-95775505D01*
X90960298Y-95716735D01*
X90957634Y-95707913D01*
X90892109Y-95496236D01*
X90868924Y-95441081D01*
X90846520Y-95385628D01*
X90842193Y-95377492D01*
X90842193Y-95377491D01*
X90842190Y-95377487D01*
X90736801Y-95182573D01*
X90703363Y-95132999D01*
X90670596Y-95082925D01*
X90664772Y-95075784D01*
X90523527Y-94905048D01*
X90481092Y-94862909D01*
X90439229Y-94820159D01*
X90432128Y-94814285D01*
X90260410Y-94674235D01*
X90210599Y-94641141D01*
X90161227Y-94607335D01*
X90153121Y-94602952D01*
X89957471Y-94498924D01*
X89902191Y-94476139D01*
X89847185Y-94452563D01*
X89838382Y-94449838D01*
X89626251Y-94385792D01*
X89567542Y-94374167D01*
X89509059Y-94361736D01*
X89499895Y-94360773D01*
X89280522Y-94339264D01*
X89249674Y-94336117D01*
X88414733Y-94333213D01*
X88415733Y-91922819D01*
X168460451Y-91922819D01*
X168505371Y-92261619D01*
X168615524Y-92585146D01*
X168721522Y-92783454D01*
X168996148Y-92891287D01*
X170023255Y-91864180D01*
X168996148Y-90837073D01*
X168721522Y-90944906D01*
X168570644Y-91251564D01*
X168482491Y-91581765D01*
X168460451Y-91922819D01*
X88415733Y-91922819D01*
X88416258Y-90657468D01*
X169175753Y-90657468D01*
X170202860Y-91684575D01*
X171229967Y-90657468D01*
X171122134Y-90382842D01*
X170815476Y-90231964D01*
X170485275Y-90143811D01*
X170144221Y-90121771D01*
X169805421Y-90166691D01*
X169481894Y-90276844D01*
X169283586Y-90382842D01*
X169175753Y-90657468D01*
X88416258Y-90657468D01*
X88416986Y-88907020D01*
X88441929Y-88652633D01*
X88506392Y-88439121D01*
X88611096Y-88242201D01*
X88752062Y-88069360D01*
X88923908Y-87927197D01*
X89120099Y-87821117D01*
X89333154Y-87755165D01*
X89585342Y-87728659D01*
X229207642Y-87726999D01*
X229471659Y-87755059D01*
G37*
X229471659Y-87755059D02*
X229696791Y-87825036D01*
X229904049Y-87937411D01*
X230085530Y-88087901D01*
X230234325Y-88270777D01*
X230344766Y-88479069D01*
X230414757Y-88711870D01*
X230436821Y-88897004D01*
X230436820Y-94323300D01*
X229598821Y-94323300D01*
X229565701Y-94326562D01*
X229550734Y-94326562D01*
X229541569Y-94327525D01*
X229317915Y-94352612D01*
X229259426Y-94365045D01*
X229200723Y-94376668D01*
X229191920Y-94379393D01*
X228977397Y-94447444D01*
X228922412Y-94471011D01*
X228867111Y-94493804D01*
X228859009Y-94498186D01*
X228859004Y-94498188D01*
X228859000Y-94498191D01*
X228661786Y-94606610D01*
X228612467Y-94640379D01*
X228562603Y-94673508D01*
X228555503Y-94679383D01*
X228383099Y-94824046D01*
X228341252Y-94866779D01*
X228298800Y-94908936D01*
X228292976Y-94916077D01*
X228151954Y-95091473D01*
X228119226Y-95141487D01*
X228085748Y-95191120D01*
X228081422Y-95199257D01*
X227977154Y-95398704D01*
X227954749Y-95454160D01*
X227931565Y-95509311D01*
X227928902Y-95518133D01*
X227865359Y-95734033D01*
X227854157Y-95792759D01*
X227842121Y-95851389D01*
X227841222Y-95860561D01*
X227820824Y-96084692D01*
X227821242Y-96144510D01*
X227820824Y-96204329D01*
X227821724Y-96213500D01*
X227845249Y-96437324D01*
X227857270Y-96495887D01*
X227868485Y-96554680D01*
X227871149Y-96563502D01*
X227937700Y-96778494D01*
X227960880Y-96833637D01*
X227983289Y-96889102D01*
X227987616Y-96897239D01*
X228094659Y-97095211D01*
X228128108Y-97144801D01*
X228160863Y-97194857D01*
X228166688Y-97201998D01*
X228310145Y-97375409D01*
X228352585Y-97417553D01*
X228394446Y-97460300D01*
X228401546Y-97466174D01*
X228575953Y-97608416D01*
X228625759Y-97641506D01*
X228675131Y-97675313D01*
X228683238Y-97679695D01*
X228881952Y-97785354D01*
X228937228Y-97808138D01*
X228992243Y-97831717D01*
X229001046Y-97834442D01*
X229216498Y-97899489D01*
X229275157Y-97911104D01*
X229333687Y-97923545D01*
X229342851Y-97924508D01*
X229566834Y-97946470D01*
X229566838Y-97946470D01*
X229598821Y-97949620D01*
X230436099Y-97949620D01*
X230435842Y-98184081D01*
X230410849Y-98438980D01*
X230346298Y-98652782D01*
X230241454Y-98849967D01*
X230095215Y-99029273D01*
X229968734Y-99139170D01*
X220932474Y-105191043D01*
X220775385Y-105261089D01*
X220610523Y-105298643D01*
X220439537Y-105306259D01*
X98555420Y-105306261D01*
X98285228Y-105279403D01*
X98054694Y-105209464D01*
X97819914Y-105084226D01*
X97806685Y-105074987D01*
X97802713Y-105071695D01*
X91354905Y-100717102D01*
X96496280Y-100717102D01*
X96496280Y-101056898D01*
X96562570Y-101390164D01*
X96692604Y-101704094D01*
X96881385Y-101986624D01*
X97121656Y-102226895D01*
X97404186Y-102415676D01*
X97718116Y-102545710D01*
X98051382Y-102612000D01*
X98391178Y-102612000D01*
X98724444Y-102545710D01*
X99038374Y-102415676D01*
X99320904Y-102226895D01*
X99561175Y-101986624D01*
X99749956Y-101704094D01*
X99879990Y-101390164D01*
X99946280Y-101056898D01*
X99946280Y-100717102D01*
X99879990Y-100383836D01*
X99749956Y-100069906D01*
X99561175Y-99787376D01*
X99320904Y-99547105D01*
X99038374Y-99358324D01*
X98724444Y-99228290D01*
X98391178Y-99162000D01*
X98051382Y-99162000D01*
X97718116Y-99228290D01*
X97404186Y-99358324D01*
X97121656Y-99547105D01*
X96881385Y-99787376D01*
X96692604Y-100069906D01*
X96562570Y-100383836D01*
X96496280Y-100717102D01*
X91354905Y-100717102D01*
X88907761Y-99064399D01*
X88728303Y-98899680D01*
X88593471Y-98715808D01*
X88496926Y-98509259D01*
X88439900Y-98278004D01*
X88427160Y-98112597D01*
X88427160Y-97926760D01*
X89247379Y-97926760D01*
X89280489Y-97923499D01*
X89295216Y-97923499D01*
X89304381Y-97922536D01*
X89524588Y-97897836D01*
X89583123Y-97885394D01*
X89641779Y-97873780D01*
X89650580Y-97871056D01*
X89650586Y-97871054D01*
X89861797Y-97804054D01*
X89916755Y-97780499D01*
X89972087Y-97757693D01*
X89980193Y-97753309D01*
X90174371Y-97646559D01*
X90223733Y-97612759D01*
X90273550Y-97579662D01*
X90280650Y-97573788D01*
X90450396Y-97431355D01*
X90492260Y-97388605D01*
X90534698Y-97346462D01*
X90540522Y-97339321D01*
X90679369Y-97166629D01*
X90712117Y-97116585D01*
X90745572Y-97066986D01*
X90749898Y-97058849D01*
X90852559Y-96862478D01*
X90874961Y-96807030D01*
X90898150Y-96751867D01*
X90900813Y-96743045D01*
X90908448Y-96717102D01*
X96496280Y-96717102D01*
X96496280Y-97056898D01*
X96562570Y-97390164D01*
X96692604Y-97704094D01*
X96881385Y-97986624D01*
X97121656Y-98226895D01*
X97404186Y-98415676D01*
X97718116Y-98545710D01*
X98051382Y-98612000D01*
X98391178Y-98612000D01*
X98724444Y-98545710D01*
X98790112Y-98518509D01*
X99633353Y-99361750D01*
X99657936Y-99391704D01*
X99777467Y-99489802D01*
X99913503Y-99562514D01*
X99913840Y-99562694D01*
X100061813Y-99607582D01*
X100136726Y-99614960D01*
X100177139Y-99618940D01*
X100177144Y-99618940D01*
X100215700Y-99622737D01*
X100254256Y-99618940D01*
X101049821Y-99618940D01*
X100881385Y-99787376D01*
X100692604Y-100069906D01*
X100562570Y-100383836D01*
X100496280Y-100717102D01*
X100496280Y-101056898D01*
X100562570Y-101390164D01*
X100692604Y-101704094D01*
X100881385Y-101986624D01*
X101121656Y-102226895D01*
X101404186Y-102415676D01*
X101718116Y-102545710D01*
X102051382Y-102612000D01*
X102391178Y-102612000D01*
X102724444Y-102545710D01*
X103038374Y-102415676D01*
X103320904Y-102226895D01*
X103561175Y-101986624D01*
X103749956Y-101704094D01*
X103879990Y-101390164D01*
X103946280Y-101056898D01*
X103946280Y-100717102D01*
X103879990Y-100383836D01*
X103749956Y-100069906D01*
X103561175Y-99787376D01*
X103392739Y-99618940D01*
X105049821Y-99618940D01*
X104881385Y-99787376D01*
X104692604Y-100069906D01*
X104562570Y-100383836D01*
X104496280Y-100717102D01*
X104496280Y-101056898D01*
X104562570Y-101390164D01*
X104692604Y-101704094D01*
X104881385Y-101986624D01*
X105121656Y-102226895D01*
X105404186Y-102415676D01*
X105718116Y-102545710D01*
X106051382Y-102612000D01*
X106391178Y-102612000D01*
X106724444Y-102545710D01*
X107038374Y-102415676D01*
X107320904Y-102226895D01*
X107561175Y-101986624D01*
X107749956Y-101704094D01*
X107879990Y-101390164D01*
X107946280Y-101056898D01*
X107946280Y-100717102D01*
X107879990Y-100383836D01*
X107749956Y-100069906D01*
X107749407Y-100069083D01*
X123470322Y-100069083D01*
X123576948Y-100342687D01*
X123881902Y-100492566D01*
X124210238Y-100580072D01*
X124549335Y-100601841D01*
X124886164Y-100557037D01*
X125207779Y-100447383D01*
X125403652Y-100342687D01*
X125510278Y-100069083D01*
X124490300Y-99049105D01*
X123470322Y-100069083D01*
X107749407Y-100069083D01*
X107561175Y-99787376D01*
X107392739Y-99618940D01*
X113362287Y-99618940D01*
X113400840Y-99622737D01*
X113439393Y-99618940D01*
X113439401Y-99618940D01*
X113554727Y-99607581D01*
X113702700Y-99562694D01*
X113839073Y-99489802D01*
X113958604Y-99391704D01*
X113983187Y-99361750D01*
X114416402Y-98928535D01*
X122757959Y-98928535D01*
X122802763Y-99265364D01*
X122912417Y-99586979D01*
X123017113Y-99782852D01*
X123290717Y-99889478D01*
X124310695Y-98869500D01*
X124669905Y-98869500D01*
X125689883Y-99889478D01*
X125963487Y-99782852D01*
X126113366Y-99477898D01*
X126200872Y-99149562D01*
X126222641Y-98810465D01*
X126207895Y-98699602D01*
X126765300Y-98699602D01*
X126765300Y-99039398D01*
X126831590Y-99372664D01*
X126961624Y-99686594D01*
X127150405Y-99969124D01*
X127390676Y-100209395D01*
X127673206Y-100398176D01*
X127987136Y-100528210D01*
X128320402Y-100594500D01*
X128660198Y-100594500D01*
X128993464Y-100528210D01*
X129307394Y-100398176D01*
X129589924Y-100209395D01*
X129830195Y-99969124D01*
X130018976Y-99686594D01*
X130149010Y-99372664D01*
X130215300Y-99039398D01*
X130215300Y-98699602D01*
X130765300Y-98699602D01*
X130765300Y-99039398D01*
X130831590Y-99372664D01*
X130961624Y-99686594D01*
X131150405Y-99969124D01*
X131390676Y-100209395D01*
X131673206Y-100398176D01*
X131987136Y-100528210D01*
X132320402Y-100594500D01*
X132660198Y-100594500D01*
X132993464Y-100528210D01*
X133307394Y-100398176D01*
X133589924Y-100209395D01*
X133830195Y-99969124D01*
X134018976Y-99686594D01*
X134149010Y-99372664D01*
X134215300Y-99039398D01*
X134215300Y-98699602D01*
X134149010Y-98366336D01*
X134018976Y-98052406D01*
X133830195Y-97769876D01*
X133589924Y-97529605D01*
X133307394Y-97340824D01*
X132993464Y-97210790D01*
X132660198Y-97144500D01*
X132320402Y-97144500D01*
X131987136Y-97210790D01*
X131673206Y-97340824D01*
X131390676Y-97529605D01*
X131150405Y-97769876D01*
X130961624Y-98052406D01*
X130831590Y-98366336D01*
X130765300Y-98699602D01*
X130215300Y-98699602D01*
X130149010Y-98366336D01*
X130018976Y-98052406D01*
X129830195Y-97769876D01*
X129589924Y-97529605D01*
X129307394Y-97340824D01*
X128993464Y-97210790D01*
X128660198Y-97144500D01*
X128320402Y-97144500D01*
X127987136Y-97210790D01*
X127673206Y-97340824D01*
X127390676Y-97529605D01*
X127150405Y-97769876D01*
X126961624Y-98052406D01*
X126831590Y-98366336D01*
X126765300Y-98699602D01*
X126207895Y-98699602D01*
X126177837Y-98473636D01*
X126068183Y-98152021D01*
X125963487Y-97956148D01*
X125689883Y-97849522D01*
X124669905Y-98869500D01*
X124310695Y-98869500D01*
X123290717Y-97849522D01*
X123017113Y-97956148D01*
X122867234Y-98261102D01*
X122779728Y-98589438D01*
X122757959Y-98928535D01*
X114416402Y-98928535D01*
X115675020Y-97669917D01*
X123470322Y-97669917D01*
X124490300Y-98689895D01*
X125510278Y-97669917D01*
X125403652Y-97396313D01*
X125098698Y-97246434D01*
X124770362Y-97158928D01*
X124431265Y-97137159D01*
X124094436Y-97181963D01*
X123772821Y-97291617D01*
X123576948Y-97396313D01*
X123470322Y-97669917D01*
X115675020Y-97669917D01*
X116349817Y-96995120D01*
X136005763Y-96995120D01*
X137344884Y-98334242D01*
X137331590Y-98366336D01*
X137265300Y-98699602D01*
X137265300Y-99039398D01*
X137331590Y-99372664D01*
X137461624Y-99686594D01*
X137650405Y-99969124D01*
X137890676Y-100209395D01*
X138173206Y-100398176D01*
X138219040Y-100417161D01*
X138219040Y-100634347D01*
X138215243Y-100672900D01*
X138219040Y-100711453D01*
X138219040Y-100711460D01*
X138230399Y-100826786D01*
X138275286Y-100974759D01*
X138348178Y-101111132D01*
X138446276Y-101230664D01*
X138476230Y-101255247D01*
X139475793Y-102254810D01*
X139500376Y-102284764D01*
X139619907Y-102382862D01*
X139756280Y-102455754D01*
X139904253Y-102500642D01*
X139979166Y-102508020D01*
X140019579Y-102512000D01*
X140019584Y-102512000D01*
X140058140Y-102515797D01*
X140096696Y-102512000D01*
X152480749Y-102512000D01*
X152499686Y-102530937D01*
X152669204Y-102644205D01*
X152857562Y-102722226D01*
X153057521Y-102762000D01*
X153261399Y-102762000D01*
X153461358Y-102722226D01*
X153649716Y-102644205D01*
X153819234Y-102530937D01*
X153963397Y-102386774D01*
X154076665Y-102217256D01*
X154154686Y-102028898D01*
X154194460Y-101828939D01*
X154194460Y-101625061D01*
X154154686Y-101425102D01*
X154076665Y-101236744D01*
X153963397Y-101067226D01*
X153819234Y-100923063D01*
X153649716Y-100809795D01*
X153461358Y-100731774D01*
X153261399Y-100692000D01*
X153057521Y-100692000D01*
X152857562Y-100731774D01*
X152669204Y-100809795D01*
X152499686Y-100923063D01*
X152480749Y-100942000D01*
X140383297Y-100942000D01*
X139826624Y-100385327D01*
X140089924Y-100209395D01*
X140330195Y-99969124D01*
X140518976Y-99686594D01*
X140649010Y-99372664D01*
X140715300Y-99039398D01*
X140715300Y-98699602D01*
X141265300Y-98699602D01*
X141265300Y-99039398D01*
X141331590Y-99372664D01*
X141461624Y-99686594D01*
X141650405Y-99969124D01*
X141890676Y-100209395D01*
X142173206Y-100398176D01*
X142487136Y-100528210D01*
X142820402Y-100594500D01*
X143160198Y-100594500D01*
X143493464Y-100528210D01*
X143807394Y-100398176D01*
X144089924Y-100209395D01*
X144330195Y-99969124D01*
X144518976Y-99686594D01*
X144649010Y-99372664D01*
X144715300Y-99039398D01*
X144715300Y-98699602D01*
X144649010Y-98366336D01*
X144518976Y-98052406D01*
X144330195Y-97769876D01*
X144089924Y-97529605D01*
X143807394Y-97340824D01*
X143493464Y-97210790D01*
X143160198Y-97144500D01*
X142820402Y-97144500D01*
X142487136Y-97210790D01*
X142173206Y-97340824D01*
X141890676Y-97529605D01*
X141650405Y-97769876D01*
X141461624Y-98052406D01*
X141331590Y-98366336D01*
X141265300Y-98699602D01*
X140715300Y-98699602D01*
X140649010Y-98366336D01*
X140518976Y-98052406D01*
X140330195Y-97769876D01*
X140089924Y-97529605D01*
X139807394Y-97340824D01*
X139493464Y-97210790D01*
X139160198Y-97144500D01*
X138820402Y-97144500D01*
X138487136Y-97210790D01*
X138455042Y-97224084D01*
X136913267Y-95682310D01*
X136888684Y-95652356D01*
X136769153Y-95554258D01*
X136632780Y-95481366D01*
X136484807Y-95436479D01*
X136369481Y-95425120D01*
X136369473Y-95425120D01*
X136330920Y-95421323D01*
X136292367Y-95425120D01*
X116063216Y-95425120D01*
X116024660Y-95421323D01*
X115986104Y-95425120D01*
X115986099Y-95425120D01*
X115945686Y-95429100D01*
X115870773Y-95436478D01*
X115722800Y-95481366D01*
X115586427Y-95554258D01*
X115466896Y-95652356D01*
X115442313Y-95682310D01*
X113075683Y-98048940D01*
X111509794Y-98048940D01*
X111536311Y-98022423D01*
X111420865Y-97906977D01*
X111694467Y-97800352D01*
X111844346Y-97495398D01*
X111931852Y-97167062D01*
X111953621Y-96827965D01*
X111908817Y-96491136D01*
X111799163Y-96169521D01*
X111694467Y-95973648D01*
X111420863Y-95867022D01*
X110400885Y-96887000D01*
X110415028Y-96901143D01*
X110235423Y-97080748D01*
X110221280Y-97066605D01*
X110207138Y-97080748D01*
X110027533Y-96901143D01*
X110041675Y-96887000D01*
X109021697Y-95867022D01*
X108748093Y-95973648D01*
X108598214Y-96278602D01*
X108510708Y-96606938D01*
X108488939Y-96946035D01*
X108533743Y-97282864D01*
X108643397Y-97604479D01*
X108748093Y-97800352D01*
X109021695Y-97906977D01*
X108906249Y-98022423D01*
X108932766Y-98048940D01*
X107498859Y-98048940D01*
X107561175Y-97986624D01*
X107749956Y-97704094D01*
X107879990Y-97390164D01*
X107946280Y-97056898D01*
X107946280Y-96717102D01*
X107879990Y-96383836D01*
X107869010Y-96357327D01*
X108538920Y-95687417D01*
X109201302Y-95687417D01*
X110221280Y-96707395D01*
X111241258Y-95687417D01*
X111134632Y-95413813D01*
X110829678Y-95263934D01*
X110501342Y-95176428D01*
X110162245Y-95154659D01*
X109825416Y-95199463D01*
X109503801Y-95309117D01*
X109307928Y-95413813D01*
X109201302Y-95687417D01*
X108538920Y-95687417D01*
X110677997Y-93548340D01*
X140558983Y-93548340D01*
X145344884Y-98334242D01*
X145331590Y-98366336D01*
X145265300Y-98699602D01*
X145265300Y-99039398D01*
X145331590Y-99372664D01*
X145461624Y-99686594D01*
X145650405Y-99969124D01*
X145890676Y-100209395D01*
X146173206Y-100398176D01*
X146487136Y-100528210D01*
X146820402Y-100594500D01*
X147160198Y-100594500D01*
X147493464Y-100528210D01*
X147807394Y-100398176D01*
X148089924Y-100209395D01*
X148330195Y-99969124D01*
X148518976Y-99686594D01*
X148649010Y-99372664D01*
X148715300Y-99039398D01*
X148715300Y-98699602D01*
X148649010Y-98366336D01*
X148636313Y-98335684D01*
X149512057Y-97459940D01*
X149994937Y-97459940D01*
X149890676Y-97529605D01*
X149650405Y-97769876D01*
X149461624Y-98052406D01*
X149331590Y-98366336D01*
X149265300Y-98699602D01*
X149265300Y-99039398D01*
X149331590Y-99372664D01*
X149461624Y-99686594D01*
X149650405Y-99969124D01*
X149890676Y-100209395D01*
X150173206Y-100398176D01*
X150487136Y-100528210D01*
X150820402Y-100594500D01*
X151160198Y-100594500D01*
X151493464Y-100528210D01*
X151807394Y-100398176D01*
X152089924Y-100209395D01*
X152330195Y-99969124D01*
X152518976Y-99686594D01*
X152649010Y-99372664D01*
X152715300Y-99039398D01*
X152715300Y-98699602D01*
X152649010Y-98366336D01*
X152518976Y-98052406D01*
X152330195Y-97769876D01*
X152089924Y-97529605D01*
X151985663Y-97459940D01*
X158841403Y-97459940D01*
X163600180Y-102218717D01*
X163600180Y-102245499D01*
X163639954Y-102445458D01*
X163717975Y-102633816D01*
X163831243Y-102803334D01*
X163975406Y-102947497D01*
X164144924Y-103060765D01*
X164333282Y-103138786D01*
X164533241Y-103178560D01*
X164737119Y-103178560D01*
X164937078Y-103138786D01*
X165125436Y-103060765D01*
X165294954Y-102947497D01*
X165439117Y-102803334D01*
X165552385Y-102633816D01*
X165630406Y-102445458D01*
X165670180Y-102245499D01*
X165670180Y-102041621D01*
X165630406Y-101841662D01*
X165552385Y-101653304D01*
X165439117Y-101483786D01*
X165294954Y-101339623D01*
X165125436Y-101226355D01*
X164937078Y-101148334D01*
X164737119Y-101108560D01*
X164710337Y-101108560D01*
X162291219Y-98689442D01*
X166138520Y-98689442D01*
X166138520Y-99029238D01*
X166204810Y-99362504D01*
X166334844Y-99676434D01*
X166523625Y-99958964D01*
X166763896Y-100199235D01*
X166904460Y-100293157D01*
X166904461Y-102122360D01*
X166904460Y-102122370D01*
X166904460Y-102154430D01*
X166847255Y-102240044D01*
X166769234Y-102428402D01*
X166729460Y-102628361D01*
X166729460Y-102832239D01*
X166769234Y-103032198D01*
X166847255Y-103220556D01*
X166960523Y-103390074D01*
X167104686Y-103534237D01*
X167274204Y-103647505D01*
X167462562Y-103725526D01*
X167662521Y-103765300D01*
X167866399Y-103765300D01*
X168066358Y-103725526D01*
X168254716Y-103647505D01*
X168424234Y-103534237D01*
X168568397Y-103390074D01*
X168681665Y-103220556D01*
X168759686Y-103032198D01*
X168799460Y-102832239D01*
X168799460Y-102628361D01*
X168759686Y-102428402D01*
X168681665Y-102240044D01*
X168624460Y-102154430D01*
X168624460Y-100411276D01*
X168680614Y-100388016D01*
X168963144Y-100199235D01*
X169203415Y-99958964D01*
X169392196Y-99676434D01*
X169522230Y-99362504D01*
X169588520Y-99029238D01*
X169588520Y-98689442D01*
X169522230Y-98356176D01*
X169392196Y-98042246D01*
X169203415Y-97759716D01*
X168963144Y-97519445D01*
X168680614Y-97330664D01*
X168366684Y-97200630D01*
X168033418Y-97134340D01*
X167693622Y-97134340D01*
X167360356Y-97200630D01*
X167046426Y-97330664D01*
X166763896Y-97519445D01*
X166523625Y-97759716D01*
X166334844Y-98042246D01*
X166204810Y-98356176D01*
X166138520Y-98689442D01*
X162291219Y-98689442D01*
X159748907Y-96147130D01*
X159724324Y-96117176D01*
X159604793Y-96019078D01*
X159468420Y-95946186D01*
X159320447Y-95901299D01*
X159205121Y-95889940D01*
X159205113Y-95889940D01*
X159166560Y-95886143D01*
X159128007Y-95889940D01*
X149225456Y-95889940D01*
X149186900Y-95886143D01*
X149148344Y-95889940D01*
X149148339Y-95889940D01*
X149107926Y-95893920D01*
X149033013Y-95901298D01*
X148885040Y-95946186D01*
X148748667Y-96019078D01*
X148629136Y-96117176D01*
X148604553Y-96147130D01*
X147527001Y-97224682D01*
X147493464Y-97210790D01*
X147160198Y-97144500D01*
X146820402Y-97144500D01*
X146487136Y-97210790D01*
X146455042Y-97224084D01*
X142301850Y-93070892D01*
X169175753Y-93070892D01*
X169283586Y-93345518D01*
X169590244Y-93496396D01*
X169920445Y-93584549D01*
X170202056Y-93602748D01*
X170055323Y-93822349D01*
X169924535Y-94138099D01*
X169857860Y-94473297D01*
X169857860Y-94815063D01*
X169924535Y-95150261D01*
X170055323Y-95466011D01*
X170245197Y-95750178D01*
X170486862Y-95991843D01*
X170771029Y-96181717D01*
X170804481Y-96195573D01*
X170804063Y-96199814D01*
X170807860Y-96238367D01*
X170807860Y-96238374D01*
X170819219Y-96353700D01*
X170864106Y-96501673D01*
X170936998Y-96638046D01*
X171035096Y-96757578D01*
X171065050Y-96782161D01*
X171084101Y-96801212D01*
X171084101Y-97315059D01*
X171046426Y-97330664D01*
X170763896Y-97519445D01*
X170523625Y-97759716D01*
X170334844Y-98042246D01*
X170204810Y-98356176D01*
X170138520Y-98689442D01*
X170138520Y-99029238D01*
X170204810Y-99362504D01*
X170334844Y-99676434D01*
X170523625Y-99958964D01*
X170763896Y-100199235D01*
X171046426Y-100388016D01*
X171084100Y-100403621D01*
X171084100Y-102163427D01*
X171080303Y-102201980D01*
X171084100Y-102240533D01*
X171084100Y-102240540D01*
X171095459Y-102355866D01*
X171140346Y-102503839D01*
X171213238Y-102640212D01*
X171311336Y-102759744D01*
X171341290Y-102784327D01*
X172750469Y-104193507D01*
X172775713Y-104224117D01*
X172834676Y-104272272D01*
X172893907Y-104320881D01*
X172894743Y-104321328D01*
X172895479Y-104321929D01*
X172962859Y-104357737D01*
X173030280Y-104393774D01*
X173031191Y-104394050D01*
X173032026Y-104394494D01*
X173104966Y-104416430D01*
X173178253Y-104438661D01*
X173179199Y-104438754D01*
X173180106Y-104439027D01*
X173256263Y-104446344D01*
X173332139Y-104453817D01*
X173371630Y-104449928D01*
X190307720Y-104409380D01*
X195129967Y-104409380D01*
X195168520Y-104413177D01*
X195207073Y-104409380D01*
X195207081Y-104409380D01*
X195322407Y-104398021D01*
X195470380Y-104353134D01*
X195606753Y-104280242D01*
X195726284Y-104182144D01*
X195750867Y-104152190D01*
X197451470Y-102451587D01*
X197481424Y-102427004D01*
X197579522Y-102307473D01*
X197652414Y-102171100D01*
X197654194Y-102165232D01*
X197697302Y-102023127D01*
X197705703Y-101937820D01*
X197708660Y-101907801D01*
X197708660Y-101907796D01*
X197712457Y-101869240D01*
X197708660Y-101830684D01*
X197708660Y-101180560D01*
X198024800Y-101180560D01*
X198024800Y-101384438D01*
X198064574Y-101584397D01*
X198142595Y-101772755D01*
X198255863Y-101942273D01*
X198400026Y-102086436D01*
X198569544Y-102199704D01*
X198757902Y-102277725D01*
X198957861Y-102317499D01*
X199161739Y-102317499D01*
X199361698Y-102277725D01*
X199550056Y-102199704D01*
X199719574Y-102086436D01*
X199738511Y-102067499D01*
X202823547Y-102067499D01*
X202842486Y-102086438D01*
X203012004Y-102199706D01*
X203200362Y-102277727D01*
X203400321Y-102317501D01*
X203604199Y-102317501D01*
X203804158Y-102277727D01*
X203992516Y-102199706D01*
X204161816Y-102086583D01*
X207625262Y-102086583D01*
X207731888Y-102360187D01*
X208036842Y-102510066D01*
X208365178Y-102597572D01*
X208704275Y-102619341D01*
X209041104Y-102574537D01*
X209362719Y-102464883D01*
X209558592Y-102360187D01*
X209665218Y-102086583D01*
X208645240Y-101066605D01*
X207625262Y-102086583D01*
X204161816Y-102086583D01*
X204162034Y-102086438D01*
X204306197Y-101942275D01*
X204419465Y-101772757D01*
X204497486Y-101584399D01*
X204537260Y-101384440D01*
X204537260Y-101180562D01*
X204497486Y-100980603D01*
X204483168Y-100946035D01*
X206912899Y-100946035D01*
X206957703Y-101282864D01*
X207067357Y-101604479D01*
X207172053Y-101800352D01*
X207445657Y-101906978D01*
X208465635Y-100887000D01*
X208824845Y-100887000D01*
X209844823Y-101906978D01*
X210118427Y-101800352D01*
X210268306Y-101495398D01*
X210355812Y-101167062D01*
X210377581Y-100827965D01*
X210332777Y-100491136D01*
X210223123Y-100169521D01*
X210118427Y-99973648D01*
X209844823Y-99867022D01*
X208824845Y-100887000D01*
X208465635Y-100887000D01*
X207445657Y-99867022D01*
X207172053Y-99973648D01*
X207022174Y-100278602D01*
X206934668Y-100606938D01*
X206912899Y-100946035D01*
X204483168Y-100946035D01*
X204419465Y-100792245D01*
X204306197Y-100622727D01*
X204162034Y-100478564D01*
X203992516Y-100365296D01*
X203804158Y-100287275D01*
X203604199Y-100247501D01*
X203400321Y-100247501D01*
X203200362Y-100287275D01*
X203012004Y-100365296D01*
X202842486Y-100478564D01*
X202823551Y-100497499D01*
X199738511Y-100497499D01*
X199719574Y-100478562D01*
X199550056Y-100365294D01*
X199361698Y-100287273D01*
X199161739Y-100247499D01*
X198957861Y-100247499D01*
X198757902Y-100287273D01*
X198569544Y-100365294D01*
X198400026Y-100478562D01*
X198255863Y-100622725D01*
X198142595Y-100792243D01*
X198064574Y-100980601D01*
X198024800Y-101180560D01*
X197708660Y-101180560D01*
X197708660Y-99687417D01*
X207625262Y-99687417D01*
X208645240Y-100707395D01*
X209665218Y-99687417D01*
X209558592Y-99413813D01*
X209253638Y-99263934D01*
X208925302Y-99176428D01*
X208586205Y-99154659D01*
X208249376Y-99199463D01*
X207927761Y-99309117D01*
X207731888Y-99413813D01*
X207625262Y-99687417D01*
X197708660Y-99687417D01*
X197708660Y-99603597D01*
X198826157Y-98486100D01*
X209134183Y-98486100D01*
X210999824Y-100351742D01*
X210986530Y-100383836D01*
X210920240Y-100717102D01*
X210920240Y-101056898D01*
X210986530Y-101390164D01*
X211116564Y-101704094D01*
X211305345Y-101986624D01*
X211545616Y-102226895D01*
X211828146Y-102415676D01*
X212142076Y-102545710D01*
X212475342Y-102612000D01*
X212815138Y-102612000D01*
X213148404Y-102545710D01*
X213462334Y-102415676D01*
X213744864Y-102226895D01*
X213985135Y-101986624D01*
X214173916Y-101704094D01*
X214303950Y-101390164D01*
X214370240Y-101056898D01*
X214370240Y-100717102D01*
X214920240Y-100717102D01*
X214920240Y-101056898D01*
X214986530Y-101390164D01*
X215116564Y-101704094D01*
X215305345Y-101986624D01*
X215545616Y-102226895D01*
X215828146Y-102415676D01*
X216142076Y-102545710D01*
X216475342Y-102612000D01*
X216815138Y-102612000D01*
X217148404Y-102545710D01*
X217462334Y-102415676D01*
X217744864Y-102226895D01*
X217985135Y-101986624D01*
X218173916Y-101704094D01*
X218303950Y-101390164D01*
X218370240Y-101056898D01*
X218370240Y-100717102D01*
X218920240Y-100717102D01*
X218920240Y-101056898D01*
X218986530Y-101390164D01*
X219116564Y-101704094D01*
X219305345Y-101986624D01*
X219545616Y-102226895D01*
X219828146Y-102415676D01*
X220142076Y-102545710D01*
X220475342Y-102612000D01*
X220815138Y-102612000D01*
X221148404Y-102545710D01*
X221462334Y-102415676D01*
X221744864Y-102226895D01*
X221985135Y-101986624D01*
X222173916Y-101704094D01*
X222303950Y-101390164D01*
X222370240Y-101056898D01*
X222370240Y-100717102D01*
X222303950Y-100383836D01*
X222173916Y-100069906D01*
X221985135Y-99787376D01*
X221744864Y-99547105D01*
X221462334Y-99358324D01*
X221148404Y-99228290D01*
X220815138Y-99162000D01*
X220475342Y-99162000D01*
X220142076Y-99228290D01*
X219828146Y-99358324D01*
X219545616Y-99547105D01*
X219305345Y-99787376D01*
X219116564Y-100069906D01*
X218986530Y-100383836D01*
X218920240Y-100717102D01*
X218370240Y-100717102D01*
X218303950Y-100383836D01*
X218173916Y-100069906D01*
X217985135Y-99787376D01*
X217744864Y-99547105D01*
X217462334Y-99358324D01*
X217148404Y-99228290D01*
X216815138Y-99162000D01*
X216475342Y-99162000D01*
X216142076Y-99228290D01*
X215828146Y-99358324D01*
X215545616Y-99547105D01*
X215305345Y-99787376D01*
X215116564Y-100069906D01*
X214986530Y-100383836D01*
X214920240Y-100717102D01*
X214370240Y-100717102D01*
X214303950Y-100383836D01*
X214173916Y-100069906D01*
X213985135Y-99787376D01*
X213744864Y-99547105D01*
X213462334Y-99358324D01*
X213148404Y-99228290D01*
X212815138Y-99162000D01*
X212475342Y-99162000D01*
X212142076Y-99228290D01*
X212109982Y-99241584D01*
X210041687Y-97173290D01*
X210017104Y-97143336D01*
X209897573Y-97045238D01*
X209761200Y-96972346D01*
X209613227Y-96927459D01*
X209497901Y-96916100D01*
X209497893Y-96916100D01*
X209459340Y-96912303D01*
X209420787Y-96916100D01*
X198539556Y-96916100D01*
X198501000Y-96912303D01*
X198462444Y-96916100D01*
X198462439Y-96916100D01*
X198422026Y-96920080D01*
X198347113Y-96927458D01*
X198199140Y-96972346D01*
X198062767Y-97045238D01*
X197943236Y-97143336D01*
X197918653Y-97173290D01*
X196395850Y-98696093D01*
X196365896Y-98720676D01*
X196267798Y-98840208D01*
X196194906Y-98976581D01*
X196150019Y-99124554D01*
X196138660Y-99239880D01*
X196138660Y-99239887D01*
X196134863Y-99278440D01*
X196138660Y-99316993D01*
X196138661Y-101544082D01*
X194843363Y-102839380D01*
X190344578Y-102839380D01*
X190343641Y-102839290D01*
X190306049Y-102839380D01*
X190268399Y-102839380D01*
X190267461Y-102839472D01*
X181894980Y-102859517D01*
X184009796Y-100744702D01*
X184039744Y-100720124D01*
X184078501Y-100672900D01*
X184116467Y-100626638D01*
X184137842Y-100600593D01*
X184210734Y-100464220D01*
X184235118Y-100383836D01*
X184255621Y-100316248D01*
X184258015Y-100291942D01*
X184266980Y-100200921D01*
X184266980Y-100200914D01*
X184270777Y-100162361D01*
X184266980Y-100123808D01*
X184266980Y-98689442D01*
X184638520Y-98689442D01*
X184638520Y-99029238D01*
X184704810Y-99362504D01*
X184834844Y-99676434D01*
X185023625Y-99958964D01*
X185263896Y-100199235D01*
X185546426Y-100388016D01*
X185860356Y-100518050D01*
X186193622Y-100584340D01*
X186533418Y-100584340D01*
X186866684Y-100518050D01*
X187180614Y-100388016D01*
X187463144Y-100199235D01*
X187703415Y-99958964D01*
X187892196Y-99676434D01*
X188022230Y-99362504D01*
X188088520Y-99029238D01*
X188088520Y-98689442D01*
X188638520Y-98689442D01*
X188638520Y-99029238D01*
X188704810Y-99362504D01*
X188834844Y-99676434D01*
X189023625Y-99958964D01*
X189263896Y-100199235D01*
X189546426Y-100388016D01*
X189860356Y-100518050D01*
X190193622Y-100584340D01*
X190533418Y-100584340D01*
X190866684Y-100518050D01*
X191180614Y-100388016D01*
X191463144Y-100199235D01*
X191603456Y-100058923D01*
X193343542Y-100058923D01*
X193450168Y-100332527D01*
X193755122Y-100482406D01*
X194083458Y-100569912D01*
X194422555Y-100591681D01*
X194759384Y-100546877D01*
X195080999Y-100437223D01*
X195276872Y-100332527D01*
X195383498Y-100058923D01*
X194363520Y-99038945D01*
X193343542Y-100058923D01*
X191603456Y-100058923D01*
X191703415Y-99958964D01*
X191892196Y-99676434D01*
X192022230Y-99362504D01*
X192088520Y-99029238D01*
X192088520Y-98918375D01*
X192631179Y-98918375D01*
X192675983Y-99255204D01*
X192785637Y-99576819D01*
X192890333Y-99772692D01*
X193163937Y-99879318D01*
X194183915Y-98859340D01*
X194543125Y-98859340D01*
X195563103Y-99879318D01*
X195836707Y-99772692D01*
X195986586Y-99467738D01*
X196074092Y-99139402D01*
X196095861Y-98800305D01*
X196051057Y-98463476D01*
X195941403Y-98141861D01*
X195836707Y-97945988D01*
X195563103Y-97839362D01*
X194543125Y-98859340D01*
X194183915Y-98859340D01*
X193163937Y-97839362D01*
X192890333Y-97945988D01*
X192740454Y-98250942D01*
X192652948Y-98579278D01*
X192631179Y-98918375D01*
X192088520Y-98918375D01*
X192088520Y-98689442D01*
X192022230Y-98356176D01*
X191892196Y-98042246D01*
X191703415Y-97759716D01*
X191603456Y-97659757D01*
X193343542Y-97659757D01*
X194363520Y-98679735D01*
X195383498Y-97659757D01*
X195276872Y-97386153D01*
X194971918Y-97236274D01*
X194643582Y-97148768D01*
X194304485Y-97126999D01*
X193967656Y-97171803D01*
X193646041Y-97281457D01*
X193450168Y-97386153D01*
X193343542Y-97659757D01*
X191603456Y-97659757D01*
X191463144Y-97519445D01*
X191180614Y-97330664D01*
X190866684Y-97200630D01*
X190533418Y-97134340D01*
X190193622Y-97134340D01*
X189860356Y-97200630D01*
X189546426Y-97330664D01*
X189263896Y-97519445D01*
X189023625Y-97759716D01*
X188834844Y-98042246D01*
X188704810Y-98356176D01*
X188638520Y-98689442D01*
X188088520Y-98689442D01*
X188022230Y-98356176D01*
X187892196Y-98042246D01*
X187703415Y-97759716D01*
X187463144Y-97519445D01*
X187180614Y-97330664D01*
X186866684Y-97200630D01*
X186533418Y-97134340D01*
X186193622Y-97134340D01*
X185860356Y-97200630D01*
X185546426Y-97330664D01*
X185263896Y-97519445D01*
X185023625Y-97759716D01*
X184834844Y-98042246D01*
X184704810Y-98356176D01*
X184638520Y-98689442D01*
X184266980Y-98689442D01*
X184266980Y-96980217D01*
X184949948Y-96297249D01*
X184986779Y-96312505D01*
X185321977Y-96379180D01*
X185663743Y-96379180D01*
X185998941Y-96312505D01*
X186314691Y-96181717D01*
X186598858Y-95991843D01*
X186840523Y-95750178D01*
X186882860Y-95686816D01*
X186925197Y-95750178D01*
X187166862Y-95991843D01*
X187451029Y-96181717D01*
X187766779Y-96312505D01*
X188101977Y-96379180D01*
X188443743Y-96379180D01*
X188778941Y-96312505D01*
X189094691Y-96181717D01*
X189378858Y-95991843D01*
X189620523Y-95750178D01*
X189784893Y-95504180D01*
X198386170Y-95504180D01*
X198471784Y-95561385D01*
X198660142Y-95639406D01*
X198860101Y-95679180D01*
X199063979Y-95679180D01*
X199263938Y-95639406D01*
X199452296Y-95561385D01*
X199537910Y-95504180D01*
X210132277Y-95504180D01*
X210993970Y-96365874D01*
X210986530Y-96383836D01*
X210920240Y-96717102D01*
X210920240Y-97056898D01*
X210986530Y-97390164D01*
X211116564Y-97704094D01*
X211305345Y-97986624D01*
X211545616Y-98226895D01*
X211828146Y-98415676D01*
X212142076Y-98545710D01*
X212475342Y-98612000D01*
X212815138Y-98612000D01*
X213148404Y-98545710D01*
X213462334Y-98415676D01*
X213744864Y-98226895D01*
X213985135Y-97986624D01*
X214173916Y-97704094D01*
X214303950Y-97390164D01*
X214370240Y-97056898D01*
X214370240Y-96717102D01*
X214303950Y-96383836D01*
X214173916Y-96069906D01*
X213985135Y-95787376D01*
X213744864Y-95547105D01*
X213462334Y-95358324D01*
X213148404Y-95228290D01*
X212815138Y-95162000D01*
X212475342Y-95162000D01*
X212264485Y-95203942D01*
X211126488Y-94065945D01*
X211099554Y-94033126D01*
X210968602Y-93925656D01*
X210819200Y-93845799D01*
X210657089Y-93796624D01*
X210530746Y-93784180D01*
X210530739Y-93784180D01*
X210488500Y-93780020D01*
X210446261Y-93784180D01*
X199537910Y-93784180D01*
X199452296Y-93726975D01*
X199263938Y-93648954D01*
X199063979Y-93609180D01*
X198860101Y-93609180D01*
X198660142Y-93648954D01*
X198471784Y-93726975D01*
X198386170Y-93784180D01*
X189784893Y-93784180D01*
X189661280Y-93599180D01*
X189833743Y-93599180D01*
X190168941Y-93532505D01*
X190484691Y-93401717D01*
X190768858Y-93211843D01*
X191010523Y-92970178D01*
X191200397Y-92686011D01*
X191331185Y-92370261D01*
X191397860Y-92035063D01*
X191397860Y-91693297D01*
X191331185Y-91358099D01*
X191200397Y-91042349D01*
X191010523Y-90758182D01*
X190768858Y-90516517D01*
X190484691Y-90326643D01*
X190168941Y-90195855D01*
X189833743Y-90129180D01*
X189491977Y-90129180D01*
X189156779Y-90195855D01*
X188841029Y-90326643D01*
X188556862Y-90516517D01*
X188315197Y-90758182D01*
X188272860Y-90821544D01*
X188230523Y-90758182D01*
X187988858Y-90516517D01*
X187704691Y-90326643D01*
X187388941Y-90195855D01*
X187053743Y-90129180D01*
X186711977Y-90129180D01*
X186376779Y-90195855D01*
X186061029Y-90326643D01*
X185776862Y-90516517D01*
X185535197Y-90758182D01*
X185492860Y-90821544D01*
X185450523Y-90758182D01*
X185208858Y-90516517D01*
X184924691Y-90326643D01*
X184608941Y-90195855D01*
X184273743Y-90129180D01*
X183931977Y-90129180D01*
X183596779Y-90195855D01*
X183281029Y-90326643D01*
X182996862Y-90516517D01*
X182755197Y-90758182D01*
X182712860Y-90821544D01*
X182670523Y-90758182D01*
X182428858Y-90516517D01*
X182306682Y-90434882D01*
X183295324Y-89446240D01*
X212615743Y-89446240D01*
X215846520Y-92677017D01*
X215846521Y-95350713D01*
X215828146Y-95358324D01*
X215545616Y-95547105D01*
X215305345Y-95787376D01*
X215116564Y-96069906D01*
X214986530Y-96383836D01*
X214920240Y-96717102D01*
X214920240Y-97056898D01*
X214986530Y-97390164D01*
X215116564Y-97704094D01*
X215305345Y-97986624D01*
X215545616Y-98226895D01*
X215828146Y-98415676D01*
X216142076Y-98545710D01*
X216475342Y-98612000D01*
X216815138Y-98612000D01*
X217148404Y-98545710D01*
X217462334Y-98415676D01*
X217744864Y-98226895D01*
X217985135Y-97986624D01*
X218173916Y-97704094D01*
X218303950Y-97390164D01*
X218370240Y-97056898D01*
X218370240Y-96717102D01*
X218303950Y-96383836D01*
X218173916Y-96069906D01*
X217985135Y-95787376D01*
X217744864Y-95547105D01*
X217462334Y-95358324D01*
X217416520Y-95339347D01*
X217416520Y-92390416D01*
X217420317Y-92351860D01*
X217416520Y-92313300D01*
X217416520Y-92313299D01*
X217411430Y-92261619D01*
X217405162Y-92197973D01*
X217360274Y-92050000D01*
X217352035Y-92034586D01*
X217287382Y-91913627D01*
X217189284Y-91794096D01*
X217159331Y-91769514D01*
X214256456Y-88866639D01*
X217989200Y-88866639D01*
X217989200Y-89070517D01*
X218028974Y-89270476D01*
X218106995Y-89458834D01*
X218220263Y-89628352D01*
X218364426Y-89772515D01*
X218533944Y-89885783D01*
X218722302Y-89963804D01*
X218922261Y-90003578D01*
X218949043Y-90003578D01*
X219882581Y-90937117D01*
X219882580Y-95335777D01*
X219828146Y-95358324D01*
X219545616Y-95547105D01*
X219305345Y-95787376D01*
X219116564Y-96069906D01*
X218986530Y-96383836D01*
X218920240Y-96717102D01*
X218920240Y-97056898D01*
X218986530Y-97390164D01*
X219116564Y-97704094D01*
X219305345Y-97986624D01*
X219545616Y-98226895D01*
X219828146Y-98415676D01*
X220142076Y-98545710D01*
X220475342Y-98612000D01*
X220815138Y-98612000D01*
X221148404Y-98545710D01*
X221462334Y-98415676D01*
X221744864Y-98226895D01*
X221985135Y-97986624D01*
X222173916Y-97704094D01*
X222303950Y-97390164D01*
X222370240Y-97056898D01*
X222370240Y-96717102D01*
X222303950Y-96383836D01*
X222173916Y-96069906D01*
X221985135Y-95787376D01*
X221744864Y-95547105D01*
X221462334Y-95358324D01*
X221452580Y-95354284D01*
X221452580Y-90650510D01*
X221456377Y-90611957D01*
X221452580Y-90573404D01*
X221452580Y-90573397D01*
X221441221Y-90458071D01*
X221396334Y-90310098D01*
X221323442Y-90173725D01*
X221225344Y-90054194D01*
X221195395Y-90029616D01*
X220059200Y-88893421D01*
X220059200Y-88866639D01*
X220019426Y-88666680D01*
X219941405Y-88478322D01*
X219828137Y-88308804D01*
X219683974Y-88164641D01*
X219514456Y-88051373D01*
X219326098Y-87973352D01*
X219126139Y-87933578D01*
X218922261Y-87933578D01*
X218722302Y-87973352D01*
X218533944Y-88051373D01*
X218364426Y-88164641D01*
X218220263Y-88308804D01*
X218106995Y-88478322D01*
X218028974Y-88666680D01*
X217989200Y-88866639D01*
X214256456Y-88866639D01*
X213523247Y-88133430D01*
X213498664Y-88103476D01*
X213379133Y-88005378D01*
X213242760Y-87932486D01*
X213094787Y-87887599D01*
X212979461Y-87876240D01*
X212979453Y-87876240D01*
X212940900Y-87872443D01*
X212902347Y-87876240D01*
X183008718Y-87876240D01*
X182970165Y-87872443D01*
X182931612Y-87876240D01*
X182931605Y-87876240D01*
X182830656Y-87886183D01*
X182816278Y-87887599D01*
X182797353Y-87893340D01*
X182668306Y-87932486D01*
X182531933Y-88005378D01*
X182482452Y-88045987D01*
X182442353Y-88078895D01*
X182442350Y-88078898D01*
X182412402Y-88103476D01*
X182387824Y-88133424D01*
X180795045Y-89726204D01*
X180765097Y-89750782D01*
X180740519Y-89780730D01*
X180740515Y-89780734D01*
X180719116Y-89806809D01*
X180666999Y-89870313D01*
X180637052Y-89926341D01*
X180594106Y-90006687D01*
X180549219Y-90154660D01*
X180534063Y-90308546D01*
X180534481Y-90312787D01*
X180501029Y-90326643D01*
X180216862Y-90516517D01*
X179975197Y-90758182D01*
X179932860Y-90821544D01*
X179890523Y-90758182D01*
X179648858Y-90516517D01*
X179364691Y-90326643D01*
X179327860Y-90311387D01*
X179327860Y-89927369D01*
X179501836Y-89855305D01*
X179671354Y-89742037D01*
X179815517Y-89597874D01*
X179928785Y-89428356D01*
X180006806Y-89239998D01*
X180046580Y-89040039D01*
X180046580Y-88836161D01*
X180006806Y-88636202D01*
X179928785Y-88447844D01*
X179815517Y-88278326D01*
X179671354Y-88134163D01*
X179501836Y-88020895D01*
X179313478Y-87942874D01*
X179113519Y-87903100D01*
X178909641Y-87903100D01*
X178709682Y-87942874D01*
X178521324Y-88020895D01*
X178351806Y-88134163D01*
X178207643Y-88278326D01*
X178094375Y-88447844D01*
X178016354Y-88636202D01*
X177976580Y-88836161D01*
X177976580Y-88859434D01*
X177960519Y-88879004D01*
X177960515Y-88879008D01*
X177928790Y-88917665D01*
X177886999Y-88968587D01*
X177848808Y-89040039D01*
X177814106Y-89104961D01*
X177769219Y-89252934D01*
X177754063Y-89406820D01*
X177757861Y-89445383D01*
X177757861Y-90311387D01*
X177721029Y-90326643D01*
X177436862Y-90516517D01*
X177195197Y-90758182D01*
X177152860Y-90821544D01*
X177110523Y-90758182D01*
X176868858Y-90516517D01*
X176584691Y-90326643D01*
X176268941Y-90195855D01*
X175933743Y-90129180D01*
X175591977Y-90129180D01*
X175256779Y-90195855D01*
X174941029Y-90326643D01*
X174656862Y-90516517D01*
X174415197Y-90758182D01*
X174372860Y-90821544D01*
X174330523Y-90758182D01*
X174088858Y-90516517D01*
X173804691Y-90326643D01*
X173488941Y-90195855D01*
X173153743Y-90129180D01*
X172811977Y-90129180D01*
X172476779Y-90195855D01*
X172161029Y-90326643D01*
X171876862Y-90516517D01*
X171635197Y-90758182D01*
X171546547Y-90890857D01*
X171409572Y-90837073D01*
X170382465Y-91864180D01*
X170396608Y-91878323D01*
X170217003Y-92057928D01*
X170202860Y-92043785D01*
X169175753Y-93070892D01*
X142301850Y-93070892D01*
X141466487Y-92235530D01*
X141441904Y-92205576D01*
X141322373Y-92107478D01*
X141186000Y-92034586D01*
X141038027Y-91989699D01*
X140922701Y-91978340D01*
X140922693Y-91978340D01*
X140884140Y-91974543D01*
X140845587Y-91978340D01*
X110391396Y-91978340D01*
X110352840Y-91974543D01*
X110314284Y-91978340D01*
X110314279Y-91978340D01*
X110273866Y-91982320D01*
X110198953Y-91989698D01*
X110050980Y-92034586D01*
X109914607Y-92107478D01*
X109795076Y-92205576D01*
X109770493Y-92235530D01*
X106762125Y-95243898D01*
X106724444Y-95228290D01*
X106391178Y-95162000D01*
X106051382Y-95162000D01*
X105718116Y-95228290D01*
X105404186Y-95358324D01*
X105121656Y-95547105D01*
X104881385Y-95787376D01*
X104692604Y-96069906D01*
X104562570Y-96383836D01*
X104496280Y-96717102D01*
X104496280Y-97056898D01*
X104562570Y-97390164D01*
X104692604Y-97704094D01*
X104881385Y-97986624D01*
X104943701Y-98048940D01*
X103498859Y-98048940D01*
X103561175Y-97986624D01*
X103749956Y-97704094D01*
X103879990Y-97390164D01*
X103946280Y-97056898D01*
X103946280Y-96717102D01*
X103879990Y-96383836D01*
X103749956Y-96069906D01*
X103561175Y-95787376D01*
X103320904Y-95547105D01*
X103038374Y-95358324D01*
X102724444Y-95228290D01*
X102391178Y-95162000D01*
X102051382Y-95162000D01*
X101718116Y-95228290D01*
X101404186Y-95358324D01*
X101121656Y-95547105D01*
X100881385Y-95787376D01*
X100692604Y-96069906D01*
X100562570Y-96383836D01*
X100496280Y-96717102D01*
X100496280Y-97056898D01*
X100562570Y-97390164D01*
X100692604Y-97704094D01*
X100881385Y-97986624D01*
X100943701Y-98048940D01*
X100540857Y-98048940D01*
X99880337Y-97388420D01*
X99946280Y-97056898D01*
X99946280Y-96717102D01*
X99879990Y-96383836D01*
X99749956Y-96069906D01*
X99561175Y-95787376D01*
X99320904Y-95547105D01*
X99038374Y-95358324D01*
X98724444Y-95228290D01*
X98391178Y-95162000D01*
X98051382Y-95162000D01*
X97718116Y-95228290D01*
X97404186Y-95358324D01*
X97121656Y-95547105D01*
X96881385Y-95787376D01*
X96692604Y-96069906D01*
X96562570Y-96383836D01*
X96496280Y-96717102D01*
X90908448Y-96717102D01*
X90963376Y-96530474D01*
X90974577Y-96471755D01*
X90986614Y-96413118D01*
X90987513Y-96403947D01*
X91007596Y-96183271D01*
X91007178Y-96123454D01*
X91007596Y-96063637D01*
X91006697Y-96054466D01*
X90983535Y-95834092D01*
X90971508Y-95775505D01*
X90960298Y-95716735D01*
X90957634Y-95707913D01*
X90892109Y-95496236D01*
X90868924Y-95441081D01*
X90846520Y-95385628D01*
X90842193Y-95377492D01*
X90842193Y-95377491D01*
X90842190Y-95377487D01*
X90736801Y-95182573D01*
X90703363Y-95132999D01*
X90670596Y-95082925D01*
X90664772Y-95075784D01*
X90523527Y-94905048D01*
X90481092Y-94862909D01*
X90439229Y-94820159D01*
X90432128Y-94814285D01*
X90260410Y-94674235D01*
X90210599Y-94641141D01*
X90161227Y-94607335D01*
X90153121Y-94602952D01*
X89957471Y-94498924D01*
X89902191Y-94476139D01*
X89847185Y-94452563D01*
X89838382Y-94449838D01*
X89626251Y-94385792D01*
X89567542Y-94374167D01*
X89509059Y-94361736D01*
X89499895Y-94360773D01*
X89280522Y-94339264D01*
X89249674Y-94336117D01*
X88414733Y-94333213D01*
X88415733Y-91922819D01*
X168460451Y-91922819D01*
X168505371Y-92261619D01*
X168615524Y-92585146D01*
X168721522Y-92783454D01*
X168996148Y-92891287D01*
X170023255Y-91864180D01*
X168996148Y-90837073D01*
X168721522Y-90944906D01*
X168570644Y-91251564D01*
X168482491Y-91581765D01*
X168460451Y-91922819D01*
X88415733Y-91922819D01*
X88416258Y-90657468D01*
X169175753Y-90657468D01*
X170202860Y-91684575D01*
X171229967Y-90657468D01*
X171122134Y-90382842D01*
X170815476Y-90231964D01*
X170485275Y-90143811D01*
X170144221Y-90121771D01*
X169805421Y-90166691D01*
X169481894Y-90276844D01*
X169283586Y-90382842D01*
X169175753Y-90657468D01*
X88416258Y-90657468D01*
X88416986Y-88907020D01*
X88441929Y-88652633D01*
X88506392Y-88439121D01*
X88611096Y-88242201D01*
X88752062Y-88069360D01*
X88923908Y-87927197D01*
X89120099Y-87821117D01*
X89333154Y-87755165D01*
X89585342Y-87728659D01*
X229207642Y-87726999D01*
X229471659Y-87755059D01*
G36*
X181365197Y-95750178D02*
G01*
X181606862Y-95991843D01*
X181891029Y-96181717D01*
X181927860Y-96196973D01*
X181927861Y-99310921D01*
X180085963Y-101152820D01*
X177208711Y-101152820D01*
X177189774Y-101133883D01*
X177020256Y-101020615D01*
X176831898Y-100942594D01*
X176631939Y-100902820D01*
X176428061Y-100902820D01*
X176228102Y-100942594D01*
X176039744Y-101020615D01*
X175870226Y-101133883D01*
X175726063Y-101278046D01*
X175612795Y-101447564D01*
X175534774Y-101635922D01*
X175508933Y-101765833D01*
X175318782Y-101803656D01*
X175130424Y-101881677D01*
X174960906Y-101994945D01*
X174816743Y-102139108D01*
X174703475Y-102308626D01*
X174625454Y-102496984D01*
X174585680Y-102696943D01*
X174585680Y-102877017D01*
X173656519Y-102879242D01*
X172654100Y-101876823D01*
X172654100Y-100398998D01*
X172680614Y-100388016D01*
X172963144Y-100199235D01*
X173203415Y-99958964D01*
X173392196Y-99676434D01*
X173522230Y-99362504D01*
X173588520Y-99029238D01*
X173588520Y-98689442D01*
X173522230Y-98356176D01*
X173392196Y-98042246D01*
X173203415Y-97759716D01*
X172963144Y-97519445D01*
X172680614Y-97330664D01*
X172654100Y-97319682D01*
X172654100Y-96514606D01*
X172657897Y-96476053D01*
X172654100Y-96437500D01*
X172654100Y-96437493D01*
X172642741Y-96322167D01*
X172641666Y-96318621D01*
X172631418Y-96284839D01*
X172597854Y-96174194D01*
X172552616Y-96089559D01*
X172698858Y-95991843D01*
X172940523Y-95750178D01*
X172982860Y-95686816D01*
X173025197Y-95750178D01*
X173266862Y-95991843D01*
X173551029Y-96181717D01*
X173866779Y-96312505D01*
X174201977Y-96379180D01*
X174543743Y-96379180D01*
X174878941Y-96312505D01*
X175194691Y-96181717D01*
X175478858Y-95991843D01*
X175720523Y-95750178D01*
X175762860Y-95686816D01*
X175805197Y-95750178D01*
X176046862Y-95991843D01*
X176331029Y-96181717D01*
X176646779Y-96312505D01*
X176981977Y-96379180D01*
X177254842Y-96379180D01*
X176413854Y-97220168D01*
X176366684Y-97200630D01*
X176033418Y-97134340D01*
X175693622Y-97134340D01*
X175360356Y-97200630D01*
X175046426Y-97330664D01*
X174763896Y-97519445D01*
X174523625Y-97759716D01*
X174334844Y-98042246D01*
X174204810Y-98356176D01*
X174138520Y-98689442D01*
X174138520Y-99029238D01*
X174204810Y-99362504D01*
X174334844Y-99676434D01*
X174523625Y-99958964D01*
X174763896Y-100199235D01*
X175046426Y-100388016D01*
X175360356Y-100518050D01*
X175693622Y-100584340D01*
X176033418Y-100584340D01*
X176366684Y-100518050D01*
X176680614Y-100388016D01*
X176963144Y-100199235D01*
X177203415Y-99958964D01*
X177392196Y-99676434D01*
X177522230Y-99362504D01*
X177588520Y-99029238D01*
X177588520Y-98689442D01*
X178138520Y-98689442D01*
X178138520Y-99029238D01*
X178204810Y-99362504D01*
X178334844Y-99676434D01*
X178523625Y-99958964D01*
X178763896Y-100199235D01*
X179046426Y-100388016D01*
X179360356Y-100518050D01*
X179693622Y-100584340D01*
X180033418Y-100584340D01*
X180366684Y-100518050D01*
X180680614Y-100388016D01*
X180963144Y-100199235D01*
X181203415Y-99958964D01*
X181392196Y-99676434D01*
X181522230Y-99362504D01*
X181588520Y-99029238D01*
X181588520Y-98689442D01*
X181522230Y-98356176D01*
X181392196Y-98042246D01*
X181203415Y-97759716D01*
X180963144Y-97519445D01*
X180680614Y-97330664D01*
X180366684Y-97200630D01*
X180033418Y-97134340D01*
X179693622Y-97134340D01*
X179360356Y-97200630D01*
X179046426Y-97330664D01*
X178763896Y-97519445D01*
X178523625Y-97759716D01*
X178334844Y-98042246D01*
X178204810Y-98356176D01*
X178138520Y-98689442D01*
X177588520Y-98689442D01*
X177522230Y-98356176D01*
X177515180Y-98339157D01*
X179360677Y-96493661D01*
X179390625Y-96469083D01*
X179416690Y-96437324D01*
X179439311Y-96409760D01*
X179488723Y-96349552D01*
X179500669Y-96327203D01*
X179761977Y-96379180D01*
X180103743Y-96379180D01*
X180438941Y-96312505D01*
X180754691Y-96181717D01*
X181038858Y-95991843D01*
X181280523Y-95750178D01*
X181322860Y-95686816D01*
X181365197Y-95750178D01*
G37*
X181365197Y-95750178D02*
X181606862Y-95991843D01*
X181891029Y-96181717D01*
X181927860Y-96196973D01*
X181927861Y-99310921D01*
X180085963Y-101152820D01*
X177208711Y-101152820D01*
X177189774Y-101133883D01*
X177020256Y-101020615D01*
X176831898Y-100942594D01*
X176631939Y-100902820D01*
X176428061Y-100902820D01*
X176228102Y-100942594D01*
X176039744Y-101020615D01*
X175870226Y-101133883D01*
X175726063Y-101278046D01*
X175612795Y-101447564D01*
X175534774Y-101635922D01*
X175508933Y-101765833D01*
X175318782Y-101803656D01*
X175130424Y-101881677D01*
X174960906Y-101994945D01*
X174816743Y-102139108D01*
X174703475Y-102308626D01*
X174625454Y-102496984D01*
X174585680Y-102696943D01*
X174585680Y-102877017D01*
X173656519Y-102879242D01*
X172654100Y-101876823D01*
X172654100Y-100398998D01*
X172680614Y-100388016D01*
X172963144Y-100199235D01*
X173203415Y-99958964D01*
X173392196Y-99676434D01*
X173522230Y-99362504D01*
X173588520Y-99029238D01*
X173588520Y-98689442D01*
X173522230Y-98356176D01*
X173392196Y-98042246D01*
X173203415Y-97759716D01*
X172963144Y-97519445D01*
X172680614Y-97330664D01*
X172654100Y-97319682D01*
X172654100Y-96514606D01*
X172657897Y-96476053D01*
X172654100Y-96437500D01*
X172654100Y-96437493D01*
X172642741Y-96322167D01*
X172641666Y-96318621D01*
X172631418Y-96284839D01*
X172597854Y-96174194D01*
X172552616Y-96089559D01*
X172698858Y-95991843D01*
X172940523Y-95750178D01*
X172982860Y-95686816D01*
X173025197Y-95750178D01*
X173266862Y-95991843D01*
X173551029Y-96181717D01*
X173866779Y-96312505D01*
X174201977Y-96379180D01*
X174543743Y-96379180D01*
X174878941Y-96312505D01*
X175194691Y-96181717D01*
X175478858Y-95991843D01*
X175720523Y-95750178D01*
X175762860Y-95686816D01*
X175805197Y-95750178D01*
X176046862Y-95991843D01*
X176331029Y-96181717D01*
X176646779Y-96312505D01*
X176981977Y-96379180D01*
X177254842Y-96379180D01*
X176413854Y-97220168D01*
X176366684Y-97200630D01*
X176033418Y-97134340D01*
X175693622Y-97134340D01*
X175360356Y-97200630D01*
X175046426Y-97330664D01*
X174763896Y-97519445D01*
X174523625Y-97759716D01*
X174334844Y-98042246D01*
X174204810Y-98356176D01*
X174138520Y-98689442D01*
X174138520Y-99029238D01*
X174204810Y-99362504D01*
X174334844Y-99676434D01*
X174523625Y-99958964D01*
X174763896Y-100199235D01*
X175046426Y-100388016D01*
X175360356Y-100518050D01*
X175693622Y-100584340D01*
X176033418Y-100584340D01*
X176366684Y-100518050D01*
X176680614Y-100388016D01*
X176963144Y-100199235D01*
X177203415Y-99958964D01*
X177392196Y-99676434D01*
X177522230Y-99362504D01*
X177588520Y-99029238D01*
X177588520Y-98689442D01*
X178138520Y-98689442D01*
X178138520Y-99029238D01*
X178204810Y-99362504D01*
X178334844Y-99676434D01*
X178523625Y-99958964D01*
X178763896Y-100199235D01*
X179046426Y-100388016D01*
X179360356Y-100518050D01*
X179693622Y-100584340D01*
X180033418Y-100584340D01*
X180366684Y-100518050D01*
X180680614Y-100388016D01*
X180963144Y-100199235D01*
X181203415Y-99958964D01*
X181392196Y-99676434D01*
X181522230Y-99362504D01*
X181588520Y-99029238D01*
X181588520Y-98689442D01*
X181522230Y-98356176D01*
X181392196Y-98042246D01*
X181203415Y-97759716D01*
X180963144Y-97519445D01*
X180680614Y-97330664D01*
X180366684Y-97200630D01*
X180033418Y-97134340D01*
X179693622Y-97134340D01*
X179360356Y-97200630D01*
X179046426Y-97330664D01*
X178763896Y-97519445D01*
X178523625Y-97759716D01*
X178334844Y-98042246D01*
X178204810Y-98356176D01*
X178138520Y-98689442D01*
X177588520Y-98689442D01*
X177522230Y-98356176D01*
X177515180Y-98339157D01*
X179360677Y-96493661D01*
X179390625Y-96469083D01*
X179416690Y-96437324D01*
X179439311Y-96409760D01*
X179488723Y-96349552D01*
X179500669Y-96327203D01*
X179761977Y-96379180D01*
X180103743Y-96379180D01*
X180438941Y-96312505D01*
X180754691Y-96181717D01*
X181038858Y-95991843D01*
X181280523Y-95750178D01*
X181322860Y-95686816D01*
X181365197Y-95750178D01*
M02*
