M48
; DRILL file {KiCad (5.1.5-0-10_14)} date Tuesday, November 03, 2020 at 08:34:41 pm
; FORMAT={-:-/ absolute / inch / decimal}
; #@! TF.CreationDate,2020-11-03T20:34:41-05:00
; #@! TF.GenerationSoftware,Kicad,Pcbnew,(5.1.5-0-10_14)
FMAT,2
INCH
T1C0.0157
T2C0.0429
T3C0.0673
%
G90
G05
T1
X3.4993Y-3.5605
X3.4993Y-3.6183
X3.4993Y-3.676
X3.5673Y-3.9249
X3.6216Y-3.9642
X3.674Y-4.0022
X4.1116Y-3.7449
X4.3057Y-3.9621
X4.3517Y-3.4662
X4.4383Y-4.1327
X4.4494Y-3.4662
X4.5345Y-4.134
X4.5385Y-4.0082
X4.547Y-3.4662
X4.6307Y-4.0082
X4.6359Y-4.1353
X4.6447Y-3.4662
X4.6767Y-3.8651
X4.6771Y-3.5772
X4.6786Y-3.7265
X4.7346Y-4.1366
X4.8709Y-3.5772
X4.8724Y-3.7265
X5.0647Y-3.5772
X5.0662Y-3.7265
X5.0844Y-4.0082
X5.1717Y-4.0082
X5.2585Y-3.5772
X5.26Y-3.7265
X5.3558Y-3.8626
X5.4224Y-4.0071
X5.4614Y-3.8041
X5.4766Y-3.4657
X5.5539Y-3.9551
X5.5664Y-3.4657
X5.5718Y-3.7473
X5.6563Y-3.4657
X5.6773Y-3.6937
X5.7066Y-3.9551
X5.8641Y-3.9551
X5.9916Y-3.7611
X5.9982Y-4.1383
X6.0299Y-4.005
X6.0768Y-3.8488
X6.0955Y-4.1383
X6.1004Y-3.7611
X6.1724Y-3.9351
X6.184Y-3.8488
X6.1928Y-4.1383
X6.2554Y-4.0485
X6.2764Y-3.9335
X6.2901Y-4.1383
X6.3675Y-4.0501
X6.3874Y-4.1383
X6.4206Y-3.8483
X6.4817Y-4.0214
X6.5009Y-3.7611
X6.5027Y-3.934
X6.578Y-3.7611
X6.6049Y-4.0445
X6.689Y-3.9385
X6.6995Y-4.0437
X6.8173Y-3.4599
X6.8871Y-3.4599
X6.9142Y-4.0472
X6.9244Y-3.8053
X6.95Y-4.0133
X6.9569Y-3.4599
X7.0477Y-3.5015
X7.0849Y-3.5535
X7.1161Y-3.8095
X7.243Y-4.035
X7.3744Y-4.035
X7.4138Y-3.8242
X7.5098Y-4.035
X7.5269Y-3.6767
X7.5269Y-3.7898
X7.6407Y-4.1399
X7.6437Y-3.6623
X7.7298Y-4.1399
X7.758Y-3.7927
X7.8107Y-3.5569
X7.8117Y-3.4563
X7.8121Y-3.6608
X7.819Y-4.1399
X7.8332Y-3.7261
X7.837Y-3.9875
X7.8464Y-3.9136
X7.8729Y-3.5569
X7.8739Y-3.4563
X7.8743Y-3.6608
X7.9081Y-4.1399
X7.9323Y-3.5569
X7.9337Y-3.6608
X7.9361Y-3.4563
X7.9968Y-3.9136
X8.0119Y-3.9875
X8.0128Y-3.7866
X8.1643Y-3.7866
X8.1647Y-3.6519
X8.2719Y-3.6532
X8.4515Y-3.8928
X8.4679Y-3.6544
X8.5503Y-3.5419
X8.6084Y-3.6538
X8.6085Y-3.8928
X8.6102Y-4.068
X8.623Y-3.5027
X8.7192Y-3.4648
X8.7424Y-3.7177
X8.7494Y-3.5359
X8.8581Y-3.7193
X8.8632Y-4.0019
X8.9188Y-3.9609
X8.9837Y-3.9199
X9.0473Y-3.5491
X9.0473Y-3.6087
X9.0473Y-3.6696
T2
X3.867Y-3.8144
X3.867Y-3.9719
X4.0245Y-3.8144
X4.0245Y-3.9719
X4.1819Y-3.8144
X4.1819Y-3.9719
X4.3394Y-3.8144
X6.6088Y-3.8921
X6.7663Y-3.8921
X6.9238Y-3.8921
X7.0812Y-3.8921
X7.3371Y-3.8921
X7.4946Y-3.8921
X7.6521Y-3.8921
X8.2144Y-3.9719
X8.3719Y-3.8144
X8.3719Y-3.9719
X8.5293Y-3.8144
X8.5293Y-3.9719
X8.6868Y-3.8144
X8.6868Y-3.9719
X4.9012Y-3.8925
X5.0587Y-3.8925
X5.2162Y-3.8925
X5.4721Y-3.8925
X5.6295Y-3.8925
X5.787Y-3.8925
X5.9445Y-3.8925
T3
X6.7009Y-3.6167
X6.7556Y-3.7261
X6.8103Y-3.6167
X6.8651Y-3.7261
X6.9198Y-3.6167
X6.9745Y-3.7261
X7.0292Y-3.6167
X7.084Y-3.7261
X7.1387Y-3.6167
X7.1934Y-3.7261
X7.2481Y-3.6167
X7.3029Y-3.7261
X7.3576Y-3.6167
X7.4123Y-3.7261
X7.467Y-3.6167
T0
M30
