G04 #@! TF.GenerationSoftware,KiCad,Pcbnew,(5.1.5-0-10_14)*
G04 #@! TF.CreationDate,2020-11-03T20:34:37-05:00*
G04 #@! TF.ProjectId,FamiCoun,46616d69-436f-4756-9e2e-6b696361645f,rev?*
G04 #@! TF.SameCoordinates,Original*
G04 #@! TF.FileFunction,Profile,NP*
%FSLAX46Y46*%
G04 Gerber Fmt 4.6, Leading zero omitted, Abs format (unit mm)*
G04 Created by KiCad (PCBNEW (5.1.5-0-10_14)) date 2020-11-03 20:34:37*
%MOMM*%
%LPD*%
G04 APERTURE LIST*
%ADD10C,0.050000*%
G04 APERTURE END LIST*
D10*
X87757000Y-88874600D02*
G75*
G02X89562940Y-87068660I1805940J0D01*
G01*
X98524060Y-105966396D02*
G75*
G02X97406460Y-105600500I2540J1897516D01*
G01*
X88497656Y-99583847D02*
G75*
G02X87767160Y-98137980I1100844J1463647D01*
G01*
X88497656Y-99583847D02*
X97406460Y-105600500D01*
X231095807Y-98216720D02*
G75*
G02X230370380Y-99664520I-1807467J0D01*
G01*
X221252827Y-105770838D02*
G75*
G02X220454221Y-105966259I-742727J1305718D01*
G01*
X229242620Y-87066998D02*
G75*
G02X231096820Y-88857806I-15240J-1871102D01*
G01*
X229242620Y-87066999D02*
X89562940Y-87068660D01*
X231096820Y-94983300D02*
X231096820Y-88857806D01*
X229631240Y-97289620D02*
G75*
G02X229631240Y-94983300I0J1153160D01*
G01*
X231096820Y-97289620D02*
X231095807Y-98216720D01*
X231096820Y-97289620D02*
X229631240Y-97289620D01*
X231096820Y-94983300D02*
X229631240Y-94983300D01*
X230370380Y-99664520D02*
X221252827Y-105770837D01*
X98526600Y-105966260D02*
X220454221Y-105966259D01*
X87767160Y-97266760D02*
X87767160Y-98137980D01*
X89214960Y-97266760D02*
X87767160Y-97266760D01*
X89214960Y-94996000D02*
G75*
G02X89214960Y-97266760I0J-1135380D01*
G01*
X87754460Y-94990920D02*
X89214960Y-94996000D01*
X87754460Y-94990920D02*
X87757000Y-88874600D01*
M02*
