G04 #@! TF.GenerationSoftware,KiCad,Pcbnew,(5.1.5-0-10_14)*
G04 #@! TF.CreationDate,2020-11-03T20:34:37-05:00*
G04 #@! TF.ProjectId,FamiCoun,46616d69-436f-4756-9e2e-6b696361645f,rev?*
G04 #@! TF.SameCoordinates,Original*
G04 #@! TF.FileFunction,Soldermask,Top*
G04 #@! TF.FilePolarity,Negative*
%FSLAX46Y46*%
G04 Gerber Fmt 4.6, Leading zero omitted, Abs format (unit mm)*
G04 Created by KiCad (PCBNEW (5.1.5-0-10_14)) date 2020-11-03 20:34:37*
%MOMM*%
%LPD*%
G04 APERTURE LIST*
%ADD10C,0.150000*%
%ADD11C,0.100000*%
G04 APERTURE END LIST*
D10*
X90601588Y-90459299D02*
X90649207Y-90411680D01*
X90744445Y-90364060D01*
X90982540Y-90364060D01*
X91077779Y-90411680D01*
X91125398Y-90459299D01*
X91173017Y-90554537D01*
X91173017Y-90649775D01*
X91125398Y-90792632D01*
X90553969Y-91364060D01*
X91173017Y-91364060D01*
X91792064Y-90364060D02*
X91887302Y-90364060D01*
X91982540Y-90411680D01*
X92030160Y-90459299D01*
X92077779Y-90554537D01*
X92125398Y-90745013D01*
X92125398Y-90983108D01*
X92077779Y-91173584D01*
X92030160Y-91268822D01*
X91982540Y-91316441D01*
X91887302Y-91364060D01*
X91792064Y-91364060D01*
X91696826Y-91316441D01*
X91649207Y-91268822D01*
X91601588Y-91173584D01*
X91553969Y-90983108D01*
X91553969Y-90745013D01*
X91601588Y-90554537D01*
X91649207Y-90459299D01*
X91696826Y-90411680D01*
X91792064Y-90364060D01*
X92506350Y-90459299D02*
X92553969Y-90411680D01*
X92649207Y-90364060D01*
X92887302Y-90364060D01*
X92982540Y-90411680D01*
X93030160Y-90459299D01*
X93077779Y-90554537D01*
X93077779Y-90649775D01*
X93030160Y-90792632D01*
X92458731Y-91364060D01*
X93077779Y-91364060D01*
X93696826Y-90364060D02*
X93792064Y-90364060D01*
X93887302Y-90411680D01*
X93934921Y-90459299D01*
X93982540Y-90554537D01*
X94030160Y-90745013D01*
X94030160Y-90983108D01*
X93982540Y-91173584D01*
X93934921Y-91268822D01*
X93887302Y-91316441D01*
X93792064Y-91364060D01*
X93696826Y-91364060D01*
X93601588Y-91316441D01*
X93553969Y-91268822D01*
X93506350Y-91173584D01*
X93458731Y-90983108D01*
X93458731Y-90745013D01*
X93506350Y-90554537D01*
X93553969Y-90459299D01*
X93601588Y-90411680D01*
X93696826Y-90364060D01*
X94458731Y-91268822D02*
X94506350Y-91316441D01*
X94458731Y-91364060D01*
X94411112Y-91316441D01*
X94458731Y-91268822D01*
X94458731Y-91364060D01*
X95982540Y-90364060D02*
X95982540Y-91078346D01*
X95934921Y-91221203D01*
X95839683Y-91316441D01*
X95696826Y-91364060D01*
X95601588Y-91364060D01*
X96839683Y-91316441D02*
X96744445Y-91364060D01*
X96553969Y-91364060D01*
X96458731Y-91316441D01*
X96411112Y-91221203D01*
X96411112Y-90840251D01*
X96458731Y-90745013D01*
X96553969Y-90697394D01*
X96744445Y-90697394D01*
X96839683Y-90745013D01*
X96887302Y-90840251D01*
X96887302Y-90935489D01*
X96411112Y-91030727D01*
X97173017Y-90697394D02*
X97553969Y-90697394D01*
X97315874Y-91364060D02*
X97315874Y-90506918D01*
X97363493Y-90411680D01*
X97458731Y-90364060D01*
X97553969Y-90364060D01*
X97744445Y-90697394D02*
X98125398Y-90697394D01*
X97887302Y-91364060D02*
X97887302Y-90506918D01*
X97934921Y-90411680D01*
X98030160Y-90364060D01*
X98125398Y-90364060D01*
X99792064Y-91268822D02*
X99744445Y-91316441D01*
X99601588Y-91364060D01*
X99506350Y-91364060D01*
X99363493Y-91316441D01*
X99268255Y-91221203D01*
X99220636Y-91125965D01*
X99173017Y-90935489D01*
X99173017Y-90792632D01*
X99220636Y-90602156D01*
X99268255Y-90506918D01*
X99363493Y-90411680D01*
X99506350Y-90364060D01*
X99601588Y-90364060D01*
X99744445Y-90411680D01*
X99792064Y-90459299D01*
X100220636Y-91364060D02*
X100220636Y-90364060D01*
X100649207Y-91364060D02*
X100649207Y-90840251D01*
X100601588Y-90745013D01*
X100506350Y-90697394D01*
X100363493Y-90697394D01*
X100268255Y-90745013D01*
X100220636Y-90792632D01*
X101506350Y-91316441D02*
X101411112Y-91364060D01*
X101220636Y-91364060D01*
X101125398Y-91316441D01*
X101077779Y-91221203D01*
X101077779Y-90840251D01*
X101125398Y-90745013D01*
X101220636Y-90697394D01*
X101411112Y-90697394D01*
X101506350Y-90745013D01*
X101553969Y-90840251D01*
X101553969Y-90935489D01*
X101077779Y-91030727D01*
X101982540Y-90697394D02*
X101982540Y-91364060D01*
X101982540Y-90792632D02*
X102030160Y-90745013D01*
X102125398Y-90697394D01*
X102268255Y-90697394D01*
X102363493Y-90745013D01*
X102411112Y-90840251D01*
X102411112Y-91364060D01*
X89880187Y-88525100D02*
X89880187Y-88715577D01*
X90261140Y-88525100D02*
X90261140Y-88715577D01*
X91023044Y-89001291D02*
X90689711Y-89001291D01*
X90689711Y-89525100D02*
X90689711Y-88525100D01*
X91165901Y-88525100D01*
X91975425Y-89525100D02*
X91975425Y-89001291D01*
X91927806Y-88906053D01*
X91832568Y-88858434D01*
X91642092Y-88858434D01*
X91546854Y-88906053D01*
X91975425Y-89477481D02*
X91880187Y-89525100D01*
X91642092Y-89525100D01*
X91546854Y-89477481D01*
X91499235Y-89382243D01*
X91499235Y-89287005D01*
X91546854Y-89191767D01*
X91642092Y-89144148D01*
X91880187Y-89144148D01*
X91975425Y-89096529D01*
X92451616Y-89525100D02*
X92451616Y-88858434D01*
X92451616Y-88953672D02*
X92499235Y-88906053D01*
X92594473Y-88858434D01*
X92737330Y-88858434D01*
X92832568Y-88906053D01*
X92880187Y-89001291D01*
X92880187Y-89525100D01*
X92880187Y-89001291D02*
X92927806Y-88906053D01*
X93023044Y-88858434D01*
X93165901Y-88858434D01*
X93261140Y-88906053D01*
X93308759Y-89001291D01*
X93308759Y-89525100D01*
X93784949Y-89525100D02*
X93784949Y-88858434D01*
X93784949Y-88525100D02*
X93737330Y-88572720D01*
X93784949Y-88620339D01*
X93832568Y-88572720D01*
X93784949Y-88525100D01*
X93784949Y-88620339D01*
X94832568Y-89429862D02*
X94784949Y-89477481D01*
X94642092Y-89525100D01*
X94546854Y-89525100D01*
X94403997Y-89477481D01*
X94308759Y-89382243D01*
X94261140Y-89287005D01*
X94213520Y-89096529D01*
X94213520Y-88953672D01*
X94261140Y-88763196D01*
X94308759Y-88667958D01*
X94403997Y-88572720D01*
X94546854Y-88525100D01*
X94642092Y-88525100D01*
X94784949Y-88572720D01*
X94832568Y-88620339D01*
X95403997Y-89525100D02*
X95308759Y-89477481D01*
X95261140Y-89429862D01*
X95213520Y-89334624D01*
X95213520Y-89048910D01*
X95261140Y-88953672D01*
X95308759Y-88906053D01*
X95403997Y-88858434D01*
X95546854Y-88858434D01*
X95642092Y-88906053D01*
X95689711Y-88953672D01*
X95737330Y-89048910D01*
X95737330Y-89334624D01*
X95689711Y-89429862D01*
X95642092Y-89477481D01*
X95546854Y-89525100D01*
X95403997Y-89525100D01*
X96594473Y-88858434D02*
X96594473Y-89525100D01*
X96165901Y-88858434D02*
X96165901Y-89382243D01*
X96213520Y-89477481D01*
X96308759Y-89525100D01*
X96451616Y-89525100D01*
X96546854Y-89477481D01*
X96594473Y-89429862D01*
X97070663Y-88858434D02*
X97070663Y-89525100D01*
X97070663Y-88953672D02*
X97118282Y-88906053D01*
X97213520Y-88858434D01*
X97356378Y-88858434D01*
X97451616Y-88906053D01*
X97499235Y-89001291D01*
X97499235Y-89525100D01*
X97927806Y-88525100D02*
X97927806Y-88715577D01*
X98308759Y-88525100D02*
X98308759Y-88715577D01*
X99832568Y-89001291D02*
X99499235Y-89001291D01*
X99499235Y-89525100D02*
X99499235Y-88525100D01*
X99975425Y-88525100D01*
X100784949Y-89525100D02*
X100784949Y-89001291D01*
X100737330Y-88906053D01*
X100642092Y-88858434D01*
X100451616Y-88858434D01*
X100356378Y-88906053D01*
X100784949Y-89477481D02*
X100689711Y-89525100D01*
X100451616Y-89525100D01*
X100356378Y-89477481D01*
X100308759Y-89382243D01*
X100308759Y-89287005D01*
X100356378Y-89191767D01*
X100451616Y-89144148D01*
X100689711Y-89144148D01*
X100784949Y-89096529D01*
X101261140Y-89525100D02*
X101261140Y-88858434D01*
X101261140Y-88953672D02*
X101308759Y-88906053D01*
X101403997Y-88858434D01*
X101546854Y-88858434D01*
X101642092Y-88906053D01*
X101689711Y-89001291D01*
X101689711Y-89525100D01*
X101689711Y-89001291D02*
X101737330Y-88906053D01*
X101832568Y-88858434D01*
X101975425Y-88858434D01*
X102070663Y-88906053D01*
X102118282Y-89001291D01*
X102118282Y-89525100D01*
X102594473Y-89525100D02*
X102594473Y-88858434D01*
X102594473Y-88525100D02*
X102546854Y-88572720D01*
X102594473Y-88620339D01*
X102642092Y-88572720D01*
X102594473Y-88525100D01*
X102594473Y-88620339D01*
X103499235Y-89477481D02*
X103403997Y-89525100D01*
X103213520Y-89525100D01*
X103118282Y-89477481D01*
X103070663Y-89429862D01*
X103023044Y-89334624D01*
X103023044Y-89048910D01*
X103070663Y-88953672D01*
X103118282Y-88906053D01*
X103213520Y-88858434D01*
X103403997Y-88858434D01*
X103499235Y-88906053D01*
X104070663Y-89525100D02*
X103975425Y-89477481D01*
X103927806Y-89429862D01*
X103880187Y-89334624D01*
X103880187Y-89048910D01*
X103927806Y-88953672D01*
X103975425Y-88906053D01*
X104070663Y-88858434D01*
X104213520Y-88858434D01*
X104308759Y-88906053D01*
X104356378Y-88953672D01*
X104403997Y-89048910D01*
X104403997Y-89334624D01*
X104356378Y-89429862D01*
X104308759Y-89477481D01*
X104213520Y-89525100D01*
X104070663Y-89525100D01*
X104832568Y-89525100D02*
X104832568Y-88858434D01*
X104832568Y-88953672D02*
X104880187Y-88906053D01*
X104975425Y-88858434D01*
X105118282Y-88858434D01*
X105213520Y-88906053D01*
X105261140Y-89001291D01*
X105261140Y-89525100D01*
X105261140Y-89001291D02*
X105308759Y-88906053D01*
X105403997Y-88858434D01*
X105546854Y-88858434D01*
X105642092Y-88906053D01*
X105689711Y-89001291D01*
X105689711Y-89525100D01*
X107261140Y-89001291D02*
X106927806Y-89001291D01*
X106927806Y-89525100D02*
X106927806Y-88525100D01*
X107403997Y-88525100D01*
X107784949Y-89525100D02*
X107784949Y-88858434D01*
X107784949Y-89048910D02*
X107832568Y-88953672D01*
X107880187Y-88906053D01*
X107975425Y-88858434D01*
X108070663Y-88858434D01*
X108546854Y-89525100D02*
X108451616Y-89477481D01*
X108403997Y-89429862D01*
X108356378Y-89334624D01*
X108356378Y-89048910D01*
X108403997Y-88953672D01*
X108451616Y-88906053D01*
X108546854Y-88858434D01*
X108689711Y-88858434D01*
X108784949Y-88906053D01*
X108832568Y-88953672D01*
X108880187Y-89048910D01*
X108880187Y-89334624D01*
X108832568Y-89429862D01*
X108784949Y-89477481D01*
X108689711Y-89525100D01*
X108546854Y-89525100D01*
X109308759Y-88858434D02*
X109308759Y-89525100D01*
X109308759Y-88953672D02*
X109356378Y-88906053D01*
X109451616Y-88858434D01*
X109594473Y-88858434D01*
X109689711Y-88906053D01*
X109737330Y-89001291D01*
X109737330Y-89525100D01*
X110070663Y-88858434D02*
X110451616Y-88858434D01*
X110213520Y-88525100D02*
X110213520Y-89382243D01*
X110261140Y-89477481D01*
X110356378Y-89525100D01*
X110451616Y-89525100D01*
X111546854Y-89001291D02*
X111880187Y-89001291D01*
X112023044Y-89525100D02*
X111546854Y-89525100D01*
X111546854Y-88525100D01*
X112023044Y-88525100D01*
X112356378Y-89525100D02*
X112880187Y-88858434D01*
X112356378Y-88858434D02*
X112880187Y-89525100D01*
X113261140Y-88858434D02*
X113261140Y-89858434D01*
X113261140Y-88906053D02*
X113356378Y-88858434D01*
X113546854Y-88858434D01*
X113642092Y-88906053D01*
X113689711Y-88953672D01*
X113737330Y-89048910D01*
X113737330Y-89334624D01*
X113689711Y-89429862D01*
X113642092Y-89477481D01*
X113546854Y-89525100D01*
X113356378Y-89525100D01*
X113261140Y-89477481D01*
X114594473Y-89525100D02*
X114594473Y-89001291D01*
X114546854Y-88906053D01*
X114451616Y-88858434D01*
X114261140Y-88858434D01*
X114165901Y-88906053D01*
X114594473Y-89477481D02*
X114499235Y-89525100D01*
X114261140Y-89525100D01*
X114165901Y-89477481D01*
X114118282Y-89382243D01*
X114118282Y-89287005D01*
X114165901Y-89191767D01*
X114261140Y-89144148D01*
X114499235Y-89144148D01*
X114594473Y-89096529D01*
X115070663Y-88858434D02*
X115070663Y-89525100D01*
X115070663Y-88953672D02*
X115118282Y-88906053D01*
X115213520Y-88858434D01*
X115356378Y-88858434D01*
X115451616Y-88906053D01*
X115499235Y-89001291D01*
X115499235Y-89525100D01*
X115927806Y-89477481D02*
X116023044Y-89525100D01*
X116213520Y-89525100D01*
X116308759Y-89477481D01*
X116356378Y-89382243D01*
X116356378Y-89334624D01*
X116308759Y-89239386D01*
X116213520Y-89191767D01*
X116070663Y-89191767D01*
X115975425Y-89144148D01*
X115927806Y-89048910D01*
X115927806Y-89001291D01*
X115975425Y-88906053D01*
X116070663Y-88858434D01*
X116213520Y-88858434D01*
X116308759Y-88906053D01*
X116784949Y-89525100D02*
X116784949Y-88858434D01*
X116784949Y-88525100D02*
X116737330Y-88572720D01*
X116784949Y-88620339D01*
X116832568Y-88572720D01*
X116784949Y-88525100D01*
X116784949Y-88620339D01*
X117403997Y-89525100D02*
X117308759Y-89477481D01*
X117261140Y-89429862D01*
X117213520Y-89334624D01*
X117213520Y-89048910D01*
X117261140Y-88953672D01*
X117308759Y-88906053D01*
X117403997Y-88858434D01*
X117546854Y-88858434D01*
X117642092Y-88906053D01*
X117689711Y-88953672D01*
X117737330Y-89048910D01*
X117737330Y-89334624D01*
X117689711Y-89429862D01*
X117642092Y-89477481D01*
X117546854Y-89525100D01*
X117403997Y-89525100D01*
X118165901Y-88858434D02*
X118165901Y-89525100D01*
X118165901Y-88953672D02*
X118213520Y-88906053D01*
X118308759Y-88858434D01*
X118451616Y-88858434D01*
X118546854Y-88906053D01*
X118594473Y-89001291D01*
X118594473Y-89525100D01*
X119689711Y-88858434D02*
X120070663Y-88858434D01*
X119832568Y-88525100D02*
X119832568Y-89382243D01*
X119880187Y-89477481D01*
X119975425Y-89525100D01*
X120070663Y-89525100D01*
X120546854Y-89525100D02*
X120451616Y-89477481D01*
X120403997Y-89429862D01*
X120356378Y-89334624D01*
X120356378Y-89048910D01*
X120403997Y-88953672D01*
X120451616Y-88906053D01*
X120546854Y-88858434D01*
X120689711Y-88858434D01*
X120784949Y-88906053D01*
X120832568Y-88953672D01*
X120880187Y-89048910D01*
X120880187Y-89334624D01*
X120832568Y-89429862D01*
X120784949Y-89477481D01*
X120689711Y-89525100D01*
X120546854Y-89525100D01*
X122070663Y-89525100D02*
X122070663Y-88525100D01*
X122642092Y-89525100D01*
X122642092Y-88525100D01*
X123118282Y-89001291D02*
X123451616Y-89001291D01*
X123594473Y-89525100D02*
X123118282Y-89525100D01*
X123118282Y-88525100D01*
X123594473Y-88525100D01*
X123975425Y-89477481D02*
X124118282Y-89525100D01*
X124356378Y-89525100D01*
X124451616Y-89477481D01*
X124499235Y-89429862D01*
X124546854Y-89334624D01*
X124546854Y-89239386D01*
X124499235Y-89144148D01*
X124451616Y-89096529D01*
X124356378Y-89048910D01*
X124165901Y-89001291D01*
X124070663Y-88953672D01*
X124023044Y-88906053D01*
X123975425Y-88810815D01*
X123975425Y-88715577D01*
X124023044Y-88620339D01*
X124070663Y-88572720D01*
X124165901Y-88525100D01*
X124403997Y-88525100D01*
X124546854Y-88572720D01*
X125689711Y-88477481D02*
X124832568Y-89763196D01*
X125975425Y-89477481D02*
X126118282Y-89525100D01*
X126356378Y-89525100D01*
X126451616Y-89477481D01*
X126499235Y-89429862D01*
X126546854Y-89334624D01*
X126546854Y-89239386D01*
X126499235Y-89144148D01*
X126451616Y-89096529D01*
X126356378Y-89048910D01*
X126165901Y-89001291D01*
X126070663Y-88953672D01*
X126023044Y-88906053D01*
X125975425Y-88810815D01*
X125975425Y-88715577D01*
X126023044Y-88620339D01*
X126070663Y-88572720D01*
X126165901Y-88525100D01*
X126403997Y-88525100D01*
X126546854Y-88572720D01*
X126975425Y-89525100D02*
X126975425Y-88525100D01*
X127546854Y-89525100D01*
X127546854Y-88525100D01*
X128023044Y-89001291D02*
X128356378Y-89001291D01*
X128499235Y-89525100D02*
X128023044Y-89525100D01*
X128023044Y-88525100D01*
X128499235Y-88525100D01*
X128880187Y-89477481D02*
X129023044Y-89525100D01*
X129261139Y-89525100D01*
X129356378Y-89477481D01*
X129403997Y-89429862D01*
X129451616Y-89334624D01*
X129451616Y-89239386D01*
X129403997Y-89144148D01*
X129356378Y-89096529D01*
X129261139Y-89048910D01*
X129070663Y-89001291D01*
X128975425Y-88953672D01*
X128927806Y-88906053D01*
X128880187Y-88810815D01*
X128880187Y-88715577D01*
X128927806Y-88620339D01*
X128975425Y-88572720D01*
X129070663Y-88525100D01*
X129308759Y-88525100D01*
X129451616Y-88572720D01*
X130642092Y-89001291D02*
X130975425Y-89001291D01*
X131118282Y-89525100D02*
X130642092Y-89525100D01*
X130642092Y-88525100D01*
X131118282Y-88525100D01*
X131451616Y-89525100D02*
X131975425Y-88858434D01*
X131451616Y-88858434D02*
X131975425Y-89525100D01*
X132213520Y-88858434D02*
X132594473Y-88858434D01*
X132356378Y-88525100D02*
X132356378Y-89382243D01*
X132403997Y-89477481D01*
X132499235Y-89525100D01*
X132594473Y-89525100D01*
X133308759Y-89477481D02*
X133213520Y-89525100D01*
X133023044Y-89525100D01*
X132927806Y-89477481D01*
X132880187Y-89382243D01*
X132880187Y-89001291D01*
X132927806Y-88906053D01*
X133023044Y-88858434D01*
X133213520Y-88858434D01*
X133308759Y-88906053D01*
X133356378Y-89001291D01*
X133356378Y-89096529D01*
X132880187Y-89191767D01*
X133784949Y-88858434D02*
X133784949Y-89525100D01*
X133784949Y-88953672D02*
X133832568Y-88906053D01*
X133927806Y-88858434D01*
X134070663Y-88858434D01*
X134165901Y-88906053D01*
X134213520Y-89001291D01*
X134213520Y-89525100D01*
X135118282Y-89525100D02*
X135118282Y-88525100D01*
X135118282Y-89477481D02*
X135023044Y-89525100D01*
X134832568Y-89525100D01*
X134737330Y-89477481D01*
X134689711Y-89429862D01*
X134642092Y-89334624D01*
X134642092Y-89048910D01*
X134689711Y-88953672D01*
X134737330Y-88906053D01*
X134832568Y-88858434D01*
X135023044Y-88858434D01*
X135118282Y-88906053D01*
X135975425Y-89477481D02*
X135880187Y-89525100D01*
X135689711Y-89525100D01*
X135594473Y-89477481D01*
X135546854Y-89382243D01*
X135546854Y-89001291D01*
X135594473Y-88906053D01*
X135689711Y-88858434D01*
X135880187Y-88858434D01*
X135975425Y-88906053D01*
X136023044Y-89001291D01*
X136023044Y-89096529D01*
X135546854Y-89191767D01*
X136451616Y-89525100D02*
X136451616Y-88858434D01*
X136451616Y-89048910D02*
X136499235Y-88953672D01*
X136546854Y-88906053D01*
X136642092Y-88858434D01*
X136737330Y-88858434D01*
X152818737Y-90794114D02*
X152056737Y-90794114D01*
X152056737Y-91991542D02*
X152056737Y-89705542D01*
X153145308Y-89705542D01*
X155322451Y-91991542D02*
X154560451Y-90902971D01*
X154016165Y-91991542D02*
X154016165Y-89705542D01*
X154887022Y-89705542D01*
X155104737Y-89814400D01*
X155213594Y-89923257D01*
X155322451Y-90140971D01*
X155322451Y-90467542D01*
X155213594Y-90685257D01*
X155104737Y-90794114D01*
X154887022Y-90902971D01*
X154016165Y-90902971D01*
X156737594Y-89705542D02*
X157173022Y-89705542D01*
X157390737Y-89814400D01*
X157608451Y-90032114D01*
X157717308Y-90467542D01*
X157717308Y-91229542D01*
X157608451Y-91664971D01*
X157390737Y-91882685D01*
X157173022Y-91991542D01*
X156737594Y-91991542D01*
X156519880Y-91882685D01*
X156302165Y-91664971D01*
X156193308Y-91229542D01*
X156193308Y-90467542D01*
X156302165Y-90032114D01*
X156519880Y-89814400D01*
X156737594Y-89705542D01*
X158697022Y-91991542D02*
X158697022Y-89705542D01*
X160003308Y-91991542D01*
X160003308Y-89705542D01*
X160765308Y-89705542D02*
X162071594Y-89705542D01*
X161418451Y-91991542D02*
X161418451Y-89705542D01*
D11*
G36*
X220977999Y-99790040D02*
G01*
X221185612Y-99876036D01*
X221372458Y-100000883D01*
X221531357Y-100159782D01*
X221656204Y-100346628D01*
X221742200Y-100554241D01*
X221786040Y-100774641D01*
X221786040Y-100999359D01*
X221742200Y-101219759D01*
X221656204Y-101427372D01*
X221531357Y-101614218D01*
X221372458Y-101773117D01*
X221185612Y-101897964D01*
X220977999Y-101983960D01*
X220757599Y-102027800D01*
X220532881Y-102027800D01*
X220312481Y-101983960D01*
X220104868Y-101897964D01*
X219918022Y-101773117D01*
X219759123Y-101614218D01*
X219634276Y-101427372D01*
X219548280Y-101219759D01*
X219504440Y-100999359D01*
X219504440Y-100774641D01*
X219548280Y-100554241D01*
X219634276Y-100346628D01*
X219759123Y-100159782D01*
X219918022Y-100000883D01*
X220104868Y-99876036D01*
X220312481Y-99790040D01*
X220532881Y-99746200D01*
X220757599Y-99746200D01*
X220977999Y-99790040D01*
G37*
G36*
X216977999Y-99790040D02*
G01*
X217185612Y-99876036D01*
X217372458Y-100000883D01*
X217531357Y-100159782D01*
X217656204Y-100346628D01*
X217742200Y-100554241D01*
X217786040Y-100774641D01*
X217786040Y-100999359D01*
X217742200Y-101219759D01*
X217656204Y-101427372D01*
X217531357Y-101614218D01*
X217372458Y-101773117D01*
X217185612Y-101897964D01*
X216977999Y-101983960D01*
X216757599Y-102027800D01*
X216532881Y-102027800D01*
X216312481Y-101983960D01*
X216104868Y-101897964D01*
X215918022Y-101773117D01*
X215759123Y-101614218D01*
X215634276Y-101427372D01*
X215548280Y-101219759D01*
X215504440Y-100999359D01*
X215504440Y-100774641D01*
X215548280Y-100554241D01*
X215634276Y-100346628D01*
X215759123Y-100159782D01*
X215918022Y-100000883D01*
X216104868Y-99876036D01*
X216312481Y-99790040D01*
X216532881Y-99746200D01*
X216757599Y-99746200D01*
X216977999Y-99790040D01*
G37*
G36*
X212977999Y-99790040D02*
G01*
X213185612Y-99876036D01*
X213372458Y-100000883D01*
X213531357Y-100159782D01*
X213656204Y-100346628D01*
X213742200Y-100554241D01*
X213786040Y-100774641D01*
X213786040Y-100999359D01*
X213742200Y-101219759D01*
X213656204Y-101427372D01*
X213531357Y-101614218D01*
X213372458Y-101773117D01*
X213185612Y-101897964D01*
X212977999Y-101983960D01*
X212757599Y-102027800D01*
X212532881Y-102027800D01*
X212312481Y-101983960D01*
X212104868Y-101897964D01*
X211918022Y-101773117D01*
X211759123Y-101614218D01*
X211634276Y-101427372D01*
X211548280Y-101219759D01*
X211504440Y-100999359D01*
X211504440Y-100774641D01*
X211548280Y-100554241D01*
X211634276Y-100346628D01*
X211759123Y-100159782D01*
X211918022Y-100000883D01*
X212104868Y-99876036D01*
X212312481Y-99790040D01*
X212532881Y-99746200D01*
X212757599Y-99746200D01*
X212977999Y-99790040D01*
G37*
G36*
X208977999Y-99790040D02*
G01*
X209185612Y-99876036D01*
X209372458Y-100000883D01*
X209531357Y-100159782D01*
X209656204Y-100346628D01*
X209742200Y-100554241D01*
X209786040Y-100774641D01*
X209786040Y-100999359D01*
X209742200Y-101219759D01*
X209656204Y-101427372D01*
X209531357Y-101614218D01*
X209372458Y-101773117D01*
X209185612Y-101897964D01*
X208977999Y-101983960D01*
X208757599Y-102027800D01*
X208532881Y-102027800D01*
X208312481Y-101983960D01*
X208104868Y-101897964D01*
X207918022Y-101773117D01*
X207759123Y-101614218D01*
X207634276Y-101427372D01*
X207548280Y-101219759D01*
X207504440Y-100999359D01*
X207504440Y-100774641D01*
X207548280Y-100554241D01*
X207634276Y-100346628D01*
X207759123Y-100159782D01*
X207918022Y-100000883D01*
X208104868Y-99876036D01*
X208312481Y-99790040D01*
X208532881Y-99746200D01*
X208757599Y-99746200D01*
X208977999Y-99790040D01*
G37*
G36*
X106554039Y-99790040D02*
G01*
X106761652Y-99876036D01*
X106948498Y-100000883D01*
X107107397Y-100159782D01*
X107232244Y-100346628D01*
X107318240Y-100554241D01*
X107362080Y-100774641D01*
X107362080Y-100999359D01*
X107318240Y-101219759D01*
X107232244Y-101427372D01*
X107107397Y-101614218D01*
X106948498Y-101773117D01*
X106761652Y-101897964D01*
X106554039Y-101983960D01*
X106333639Y-102027800D01*
X106108921Y-102027800D01*
X105888521Y-101983960D01*
X105680908Y-101897964D01*
X105494062Y-101773117D01*
X105335163Y-101614218D01*
X105210316Y-101427372D01*
X105124320Y-101219759D01*
X105080480Y-100999359D01*
X105080480Y-100774641D01*
X105124320Y-100554241D01*
X105210316Y-100346628D01*
X105335163Y-100159782D01*
X105494062Y-100000883D01*
X105680908Y-99876036D01*
X105888521Y-99790040D01*
X106108921Y-99746200D01*
X106333639Y-99746200D01*
X106554039Y-99790040D01*
G37*
G36*
X102554039Y-99790040D02*
G01*
X102761652Y-99876036D01*
X102948498Y-100000883D01*
X103107397Y-100159782D01*
X103232244Y-100346628D01*
X103318240Y-100554241D01*
X103362080Y-100774641D01*
X103362080Y-100999359D01*
X103318240Y-101219759D01*
X103232244Y-101427372D01*
X103107397Y-101614218D01*
X102948498Y-101773117D01*
X102761652Y-101897964D01*
X102554039Y-101983960D01*
X102333639Y-102027800D01*
X102108921Y-102027800D01*
X101888521Y-101983960D01*
X101680908Y-101897964D01*
X101494062Y-101773117D01*
X101335163Y-101614218D01*
X101210316Y-101427372D01*
X101124320Y-101219759D01*
X101080480Y-100999359D01*
X101080480Y-100774641D01*
X101124320Y-100554241D01*
X101210316Y-100346628D01*
X101335163Y-100159782D01*
X101494062Y-100000883D01*
X101680908Y-99876036D01*
X101888521Y-99790040D01*
X102108921Y-99746200D01*
X102333639Y-99746200D01*
X102554039Y-99790040D01*
G37*
G36*
X98554039Y-99790040D02*
G01*
X98761652Y-99876036D01*
X98948498Y-100000883D01*
X99107397Y-100159782D01*
X99232244Y-100346628D01*
X99318240Y-100554241D01*
X99362080Y-100774641D01*
X99362080Y-100999359D01*
X99318240Y-101219759D01*
X99232244Y-101427372D01*
X99107397Y-101614218D01*
X98948498Y-101773117D01*
X98761652Y-101897964D01*
X98554039Y-101983960D01*
X98333639Y-102027800D01*
X98108921Y-102027800D01*
X97888521Y-101983960D01*
X97680908Y-101897964D01*
X97494062Y-101773117D01*
X97335163Y-101614218D01*
X97210316Y-101427372D01*
X97124320Y-101219759D01*
X97080480Y-100999359D01*
X97080480Y-100774641D01*
X97124320Y-100554241D01*
X97210316Y-100346628D01*
X97335163Y-100159782D01*
X97494062Y-100000883D01*
X97680908Y-99876036D01*
X97888521Y-99790040D01*
X98108921Y-99746200D01*
X98333639Y-99746200D01*
X98554039Y-99790040D01*
G37*
G36*
X151323059Y-97772540D02*
G01*
X151530672Y-97858536D01*
X151717518Y-97983383D01*
X151876417Y-98142282D01*
X152001264Y-98329128D01*
X152087260Y-98536741D01*
X152131100Y-98757141D01*
X152131100Y-98981859D01*
X152087260Y-99202259D01*
X152001264Y-99409872D01*
X151876417Y-99596718D01*
X151717518Y-99755617D01*
X151530672Y-99880464D01*
X151323059Y-99966460D01*
X151102659Y-100010300D01*
X150877941Y-100010300D01*
X150657541Y-99966460D01*
X150449928Y-99880464D01*
X150263082Y-99755617D01*
X150104183Y-99596718D01*
X149979336Y-99409872D01*
X149893340Y-99202259D01*
X149849500Y-98981859D01*
X149849500Y-98757141D01*
X149893340Y-98536741D01*
X149979336Y-98329128D01*
X150104183Y-98142282D01*
X150263082Y-97983383D01*
X150449928Y-97858536D01*
X150657541Y-97772540D01*
X150877941Y-97728700D01*
X151102659Y-97728700D01*
X151323059Y-97772540D01*
G37*
G36*
X147323059Y-97772540D02*
G01*
X147530672Y-97858536D01*
X147717518Y-97983383D01*
X147876417Y-98142282D01*
X148001264Y-98329128D01*
X148087260Y-98536741D01*
X148131100Y-98757141D01*
X148131100Y-98981859D01*
X148087260Y-99202259D01*
X148001264Y-99409872D01*
X147876417Y-99596718D01*
X147717518Y-99755617D01*
X147530672Y-99880464D01*
X147323059Y-99966460D01*
X147102659Y-100010300D01*
X146877941Y-100010300D01*
X146657541Y-99966460D01*
X146449928Y-99880464D01*
X146263082Y-99755617D01*
X146104183Y-99596718D01*
X145979336Y-99409872D01*
X145893340Y-99202259D01*
X145849500Y-98981859D01*
X145849500Y-98757141D01*
X145893340Y-98536741D01*
X145979336Y-98329128D01*
X146104183Y-98142282D01*
X146263082Y-97983383D01*
X146449928Y-97858536D01*
X146657541Y-97772540D01*
X146877941Y-97728700D01*
X147102659Y-97728700D01*
X147323059Y-97772540D01*
G37*
G36*
X143323059Y-97772540D02*
G01*
X143530672Y-97858536D01*
X143717518Y-97983383D01*
X143876417Y-98142282D01*
X144001264Y-98329128D01*
X144087260Y-98536741D01*
X144131100Y-98757141D01*
X144131100Y-98981859D01*
X144087260Y-99202259D01*
X144001264Y-99409872D01*
X143876417Y-99596718D01*
X143717518Y-99755617D01*
X143530672Y-99880464D01*
X143323059Y-99966460D01*
X143102659Y-100010300D01*
X142877941Y-100010300D01*
X142657541Y-99966460D01*
X142449928Y-99880464D01*
X142263082Y-99755617D01*
X142104183Y-99596718D01*
X141979336Y-99409872D01*
X141893340Y-99202259D01*
X141849500Y-98981859D01*
X141849500Y-98757141D01*
X141893340Y-98536741D01*
X141979336Y-98329128D01*
X142104183Y-98142282D01*
X142263082Y-97983383D01*
X142449928Y-97858536D01*
X142657541Y-97772540D01*
X142877941Y-97728700D01*
X143102659Y-97728700D01*
X143323059Y-97772540D01*
G37*
G36*
X139323059Y-97772540D02*
G01*
X139530672Y-97858536D01*
X139717518Y-97983383D01*
X139876417Y-98142282D01*
X140001264Y-98329128D01*
X140087260Y-98536741D01*
X140131100Y-98757141D01*
X140131100Y-98981859D01*
X140087260Y-99202259D01*
X140001264Y-99409872D01*
X139876417Y-99596718D01*
X139717518Y-99755617D01*
X139530672Y-99880464D01*
X139323059Y-99966460D01*
X139102659Y-100010300D01*
X138877941Y-100010300D01*
X138657541Y-99966460D01*
X138449928Y-99880464D01*
X138263082Y-99755617D01*
X138104183Y-99596718D01*
X137979336Y-99409872D01*
X137893340Y-99202259D01*
X137849500Y-98981859D01*
X137849500Y-98757141D01*
X137893340Y-98536741D01*
X137979336Y-98329128D01*
X138104183Y-98142282D01*
X138263082Y-97983383D01*
X138449928Y-97858536D01*
X138657541Y-97772540D01*
X138877941Y-97728700D01*
X139102659Y-97728700D01*
X139323059Y-97772540D01*
G37*
G36*
X132823059Y-97772540D02*
G01*
X133030672Y-97858536D01*
X133217518Y-97983383D01*
X133376417Y-98142282D01*
X133501264Y-98329128D01*
X133587260Y-98536741D01*
X133631100Y-98757141D01*
X133631100Y-98981859D01*
X133587260Y-99202259D01*
X133501264Y-99409872D01*
X133376417Y-99596718D01*
X133217518Y-99755617D01*
X133030672Y-99880464D01*
X132823059Y-99966460D01*
X132602659Y-100010300D01*
X132377941Y-100010300D01*
X132157541Y-99966460D01*
X131949928Y-99880464D01*
X131763082Y-99755617D01*
X131604183Y-99596718D01*
X131479336Y-99409872D01*
X131393340Y-99202259D01*
X131349500Y-98981859D01*
X131349500Y-98757141D01*
X131393340Y-98536741D01*
X131479336Y-98329128D01*
X131604183Y-98142282D01*
X131763082Y-97983383D01*
X131949928Y-97858536D01*
X132157541Y-97772540D01*
X132377941Y-97728700D01*
X132602659Y-97728700D01*
X132823059Y-97772540D01*
G37*
G36*
X128823059Y-97772540D02*
G01*
X129030672Y-97858536D01*
X129217518Y-97983383D01*
X129376417Y-98142282D01*
X129501264Y-98329128D01*
X129587260Y-98536741D01*
X129631100Y-98757141D01*
X129631100Y-98981859D01*
X129587260Y-99202259D01*
X129501264Y-99409872D01*
X129376417Y-99596718D01*
X129217518Y-99755617D01*
X129030672Y-99880464D01*
X128823059Y-99966460D01*
X128602659Y-100010300D01*
X128377941Y-100010300D01*
X128157541Y-99966460D01*
X127949928Y-99880464D01*
X127763082Y-99755617D01*
X127604183Y-99596718D01*
X127479336Y-99409872D01*
X127393340Y-99202259D01*
X127349500Y-98981859D01*
X127349500Y-98757141D01*
X127393340Y-98536741D01*
X127479336Y-98329128D01*
X127604183Y-98142282D01*
X127763082Y-97983383D01*
X127949928Y-97858536D01*
X128157541Y-97772540D01*
X128377941Y-97728700D01*
X128602659Y-97728700D01*
X128823059Y-97772540D01*
G37*
G36*
X124823059Y-97772540D02*
G01*
X125030672Y-97858536D01*
X125217518Y-97983383D01*
X125376417Y-98142282D01*
X125501264Y-98329128D01*
X125587260Y-98536741D01*
X125631100Y-98757141D01*
X125631100Y-98981859D01*
X125587260Y-99202259D01*
X125501264Y-99409872D01*
X125376417Y-99596718D01*
X125217518Y-99755617D01*
X125030672Y-99880464D01*
X124823059Y-99966460D01*
X124602659Y-100010300D01*
X124377941Y-100010300D01*
X124157541Y-99966460D01*
X123949928Y-99880464D01*
X123763082Y-99755617D01*
X123604183Y-99596718D01*
X123479336Y-99409872D01*
X123393340Y-99202259D01*
X123349500Y-98981859D01*
X123349500Y-98757141D01*
X123393340Y-98536741D01*
X123479336Y-98329128D01*
X123604183Y-98142282D01*
X123763082Y-97983383D01*
X123949928Y-97858536D01*
X124157541Y-97772540D01*
X124377941Y-97728700D01*
X124602659Y-97728700D01*
X124823059Y-97772540D01*
G37*
G36*
X168196279Y-97762380D02*
G01*
X168403892Y-97848376D01*
X168590738Y-97973223D01*
X168749637Y-98132122D01*
X168874484Y-98318968D01*
X168960480Y-98526581D01*
X169004320Y-98746981D01*
X169004320Y-98971699D01*
X168960480Y-99192099D01*
X168874484Y-99399712D01*
X168749637Y-99586558D01*
X168590738Y-99745457D01*
X168403892Y-99870304D01*
X168196279Y-99956300D01*
X167975879Y-100000140D01*
X167751161Y-100000140D01*
X167530761Y-99956300D01*
X167323148Y-99870304D01*
X167136302Y-99745457D01*
X166977403Y-99586558D01*
X166852556Y-99399712D01*
X166766560Y-99192099D01*
X166722720Y-98971699D01*
X166722720Y-98746981D01*
X166766560Y-98526581D01*
X166852556Y-98318968D01*
X166977403Y-98132122D01*
X167136302Y-97973223D01*
X167323148Y-97848376D01*
X167530761Y-97762380D01*
X167751161Y-97718540D01*
X167975879Y-97718540D01*
X168196279Y-97762380D01*
G37*
G36*
X172196279Y-97762380D02*
G01*
X172403892Y-97848376D01*
X172590738Y-97973223D01*
X172749637Y-98132122D01*
X172874484Y-98318968D01*
X172960480Y-98526581D01*
X173004320Y-98746981D01*
X173004320Y-98971699D01*
X172960480Y-99192099D01*
X172874484Y-99399712D01*
X172749637Y-99586558D01*
X172590738Y-99745457D01*
X172403892Y-99870304D01*
X172196279Y-99956300D01*
X171975879Y-100000140D01*
X171751161Y-100000140D01*
X171530761Y-99956300D01*
X171323148Y-99870304D01*
X171136302Y-99745457D01*
X170977403Y-99586558D01*
X170852556Y-99399712D01*
X170766560Y-99192099D01*
X170722720Y-98971699D01*
X170722720Y-98746981D01*
X170766560Y-98526581D01*
X170852556Y-98318968D01*
X170977403Y-98132122D01*
X171136302Y-97973223D01*
X171323148Y-97848376D01*
X171530761Y-97762380D01*
X171751161Y-97718540D01*
X171975879Y-97718540D01*
X172196279Y-97762380D01*
G37*
G36*
X176196279Y-97762380D02*
G01*
X176403892Y-97848376D01*
X176590738Y-97973223D01*
X176749637Y-98132122D01*
X176874484Y-98318968D01*
X176960480Y-98526581D01*
X177004320Y-98746981D01*
X177004320Y-98971699D01*
X176960480Y-99192099D01*
X176874484Y-99399712D01*
X176749637Y-99586558D01*
X176590738Y-99745457D01*
X176403892Y-99870304D01*
X176196279Y-99956300D01*
X175975879Y-100000140D01*
X175751161Y-100000140D01*
X175530761Y-99956300D01*
X175323148Y-99870304D01*
X175136302Y-99745457D01*
X174977403Y-99586558D01*
X174852556Y-99399712D01*
X174766560Y-99192099D01*
X174722720Y-98971699D01*
X174722720Y-98746981D01*
X174766560Y-98526581D01*
X174852556Y-98318968D01*
X174977403Y-98132122D01*
X175136302Y-97973223D01*
X175323148Y-97848376D01*
X175530761Y-97762380D01*
X175751161Y-97718540D01*
X175975879Y-97718540D01*
X176196279Y-97762380D01*
G37*
G36*
X180196279Y-97762380D02*
G01*
X180403892Y-97848376D01*
X180590738Y-97973223D01*
X180749637Y-98132122D01*
X180874484Y-98318968D01*
X180960480Y-98526581D01*
X181004320Y-98746981D01*
X181004320Y-98971699D01*
X180960480Y-99192099D01*
X180874484Y-99399712D01*
X180749637Y-99586558D01*
X180590738Y-99745457D01*
X180403892Y-99870304D01*
X180196279Y-99956300D01*
X179975879Y-100000140D01*
X179751161Y-100000140D01*
X179530761Y-99956300D01*
X179323148Y-99870304D01*
X179136302Y-99745457D01*
X178977403Y-99586558D01*
X178852556Y-99399712D01*
X178766560Y-99192099D01*
X178722720Y-98971699D01*
X178722720Y-98746981D01*
X178766560Y-98526581D01*
X178852556Y-98318968D01*
X178977403Y-98132122D01*
X179136302Y-97973223D01*
X179323148Y-97848376D01*
X179530761Y-97762380D01*
X179751161Y-97718540D01*
X179975879Y-97718540D01*
X180196279Y-97762380D01*
G37*
G36*
X186696279Y-97762380D02*
G01*
X186903892Y-97848376D01*
X187090738Y-97973223D01*
X187249637Y-98132122D01*
X187374484Y-98318968D01*
X187460480Y-98526581D01*
X187504320Y-98746981D01*
X187504320Y-98971699D01*
X187460480Y-99192099D01*
X187374484Y-99399712D01*
X187249637Y-99586558D01*
X187090738Y-99745457D01*
X186903892Y-99870304D01*
X186696279Y-99956300D01*
X186475879Y-100000140D01*
X186251161Y-100000140D01*
X186030761Y-99956300D01*
X185823148Y-99870304D01*
X185636302Y-99745457D01*
X185477403Y-99586558D01*
X185352556Y-99399712D01*
X185266560Y-99192099D01*
X185222720Y-98971699D01*
X185222720Y-98746981D01*
X185266560Y-98526581D01*
X185352556Y-98318968D01*
X185477403Y-98132122D01*
X185636302Y-97973223D01*
X185823148Y-97848376D01*
X186030761Y-97762380D01*
X186251161Y-97718540D01*
X186475879Y-97718540D01*
X186696279Y-97762380D01*
G37*
G36*
X190696279Y-97762380D02*
G01*
X190903892Y-97848376D01*
X191090738Y-97973223D01*
X191249637Y-98132122D01*
X191374484Y-98318968D01*
X191460480Y-98526581D01*
X191504320Y-98746981D01*
X191504320Y-98971699D01*
X191460480Y-99192099D01*
X191374484Y-99399712D01*
X191249637Y-99586558D01*
X191090738Y-99745457D01*
X190903892Y-99870304D01*
X190696279Y-99956300D01*
X190475879Y-100000140D01*
X190251161Y-100000140D01*
X190030761Y-99956300D01*
X189823148Y-99870304D01*
X189636302Y-99745457D01*
X189477403Y-99586558D01*
X189352556Y-99399712D01*
X189266560Y-99192099D01*
X189222720Y-98971699D01*
X189222720Y-98746981D01*
X189266560Y-98526581D01*
X189352556Y-98318968D01*
X189477403Y-98132122D01*
X189636302Y-97973223D01*
X189823148Y-97848376D01*
X190030761Y-97762380D01*
X190251161Y-97718540D01*
X190475879Y-97718540D01*
X190696279Y-97762380D01*
G37*
G36*
X194696279Y-97762380D02*
G01*
X194903892Y-97848376D01*
X195090738Y-97973223D01*
X195249637Y-98132122D01*
X195374484Y-98318968D01*
X195460480Y-98526581D01*
X195504320Y-98746981D01*
X195504320Y-98971699D01*
X195460480Y-99192099D01*
X195374484Y-99399712D01*
X195249637Y-99586558D01*
X195090738Y-99745457D01*
X194903892Y-99870304D01*
X194696279Y-99956300D01*
X194475879Y-100000140D01*
X194251161Y-100000140D01*
X194030761Y-99956300D01*
X193823148Y-99870304D01*
X193636302Y-99745457D01*
X193477403Y-99586558D01*
X193352556Y-99399712D01*
X193266560Y-99192099D01*
X193222720Y-98971699D01*
X193222720Y-98746981D01*
X193266560Y-98526581D01*
X193352556Y-98318968D01*
X193477403Y-98132122D01*
X193636302Y-97973223D01*
X193823148Y-97848376D01*
X194030761Y-97762380D01*
X194251161Y-97718540D01*
X194475879Y-97718540D01*
X194696279Y-97762380D01*
G37*
G36*
X212977999Y-95790040D02*
G01*
X213185612Y-95876036D01*
X213372458Y-96000883D01*
X213531357Y-96159782D01*
X213656204Y-96346628D01*
X213742200Y-96554241D01*
X213786040Y-96774641D01*
X213786040Y-96999359D01*
X213742200Y-97219759D01*
X213656204Y-97427372D01*
X213531357Y-97614218D01*
X213372458Y-97773117D01*
X213185612Y-97897964D01*
X212977999Y-97983960D01*
X212757599Y-98027800D01*
X212532881Y-98027800D01*
X212312481Y-97983960D01*
X212104868Y-97897964D01*
X211918022Y-97773117D01*
X211759123Y-97614218D01*
X211634276Y-97427372D01*
X211548280Y-97219759D01*
X211504440Y-96999359D01*
X211504440Y-96774641D01*
X211548280Y-96554241D01*
X211634276Y-96346628D01*
X211759123Y-96159782D01*
X211918022Y-96000883D01*
X212104868Y-95876036D01*
X212312481Y-95790040D01*
X212532881Y-95746200D01*
X212757599Y-95746200D01*
X212977999Y-95790040D01*
G37*
G36*
X216977999Y-95790040D02*
G01*
X217185612Y-95876036D01*
X217372458Y-96000883D01*
X217531357Y-96159782D01*
X217656204Y-96346628D01*
X217742200Y-96554241D01*
X217786040Y-96774641D01*
X217786040Y-96999359D01*
X217742200Y-97219759D01*
X217656204Y-97427372D01*
X217531357Y-97614218D01*
X217372458Y-97773117D01*
X217185612Y-97897964D01*
X216977999Y-97983960D01*
X216757599Y-98027800D01*
X216532881Y-98027800D01*
X216312481Y-97983960D01*
X216104868Y-97897964D01*
X215918022Y-97773117D01*
X215759123Y-97614218D01*
X215634276Y-97427372D01*
X215548280Y-97219759D01*
X215504440Y-96999359D01*
X215504440Y-96774641D01*
X215548280Y-96554241D01*
X215634276Y-96346628D01*
X215759123Y-96159782D01*
X215918022Y-96000883D01*
X216104868Y-95876036D01*
X216312481Y-95790040D01*
X216532881Y-95746200D01*
X216757599Y-95746200D01*
X216977999Y-95790040D01*
G37*
G36*
X220977999Y-95790040D02*
G01*
X221185612Y-95876036D01*
X221372458Y-96000883D01*
X221531357Y-96159782D01*
X221656204Y-96346628D01*
X221742200Y-96554241D01*
X221786040Y-96774641D01*
X221786040Y-96999359D01*
X221742200Y-97219759D01*
X221656204Y-97427372D01*
X221531357Y-97614218D01*
X221372458Y-97773117D01*
X221185612Y-97897964D01*
X220977999Y-97983960D01*
X220757599Y-98027800D01*
X220532881Y-98027800D01*
X220312481Y-97983960D01*
X220104868Y-97897964D01*
X219918022Y-97773117D01*
X219759123Y-97614218D01*
X219634276Y-97427372D01*
X219548280Y-97219759D01*
X219504440Y-96999359D01*
X219504440Y-96774641D01*
X219548280Y-96554241D01*
X219634276Y-96346628D01*
X219759123Y-96159782D01*
X219918022Y-96000883D01*
X220104868Y-95876036D01*
X220312481Y-95790040D01*
X220532881Y-95746200D01*
X220757599Y-95746200D01*
X220977999Y-95790040D01*
G37*
G36*
X110554039Y-95790040D02*
G01*
X110761652Y-95876036D01*
X110948498Y-96000883D01*
X111107397Y-96159782D01*
X111232244Y-96346628D01*
X111318240Y-96554241D01*
X111362080Y-96774641D01*
X111362080Y-96999359D01*
X111318240Y-97219759D01*
X111232244Y-97427372D01*
X111107397Y-97614218D01*
X110948498Y-97773117D01*
X110761652Y-97897964D01*
X110554039Y-97983960D01*
X110333639Y-98027800D01*
X110108921Y-98027800D01*
X109888521Y-97983960D01*
X109680908Y-97897964D01*
X109494062Y-97773117D01*
X109335163Y-97614218D01*
X109210316Y-97427372D01*
X109124320Y-97219759D01*
X109080480Y-96999359D01*
X109080480Y-96774641D01*
X109124320Y-96554241D01*
X109210316Y-96346628D01*
X109335163Y-96159782D01*
X109494062Y-96000883D01*
X109680908Y-95876036D01*
X109888521Y-95790040D01*
X110108921Y-95746200D01*
X110333639Y-95746200D01*
X110554039Y-95790040D01*
G37*
G36*
X106554039Y-95790040D02*
G01*
X106761652Y-95876036D01*
X106948498Y-96000883D01*
X107107397Y-96159782D01*
X107232244Y-96346628D01*
X107318240Y-96554241D01*
X107362080Y-96774641D01*
X107362080Y-96999359D01*
X107318240Y-97219759D01*
X107232244Y-97427372D01*
X107107397Y-97614218D01*
X106948498Y-97773117D01*
X106761652Y-97897964D01*
X106554039Y-97983960D01*
X106333639Y-98027800D01*
X106108921Y-98027800D01*
X105888521Y-97983960D01*
X105680908Y-97897964D01*
X105494062Y-97773117D01*
X105335163Y-97614218D01*
X105210316Y-97427372D01*
X105124320Y-97219759D01*
X105080480Y-96999359D01*
X105080480Y-96774641D01*
X105124320Y-96554241D01*
X105210316Y-96346628D01*
X105335163Y-96159782D01*
X105494062Y-96000883D01*
X105680908Y-95876036D01*
X105888521Y-95790040D01*
X106108921Y-95746200D01*
X106333639Y-95746200D01*
X106554039Y-95790040D01*
G37*
G36*
X102554039Y-95790040D02*
G01*
X102761652Y-95876036D01*
X102948498Y-96000883D01*
X103107397Y-96159782D01*
X103232244Y-96346628D01*
X103318240Y-96554241D01*
X103362080Y-96774641D01*
X103362080Y-96999359D01*
X103318240Y-97219759D01*
X103232244Y-97427372D01*
X103107397Y-97614218D01*
X102948498Y-97773117D01*
X102761652Y-97897964D01*
X102554039Y-97983960D01*
X102333639Y-98027800D01*
X102108921Y-98027800D01*
X101888521Y-97983960D01*
X101680908Y-97897964D01*
X101494062Y-97773117D01*
X101335163Y-97614218D01*
X101210316Y-97427372D01*
X101124320Y-97219759D01*
X101080480Y-96999359D01*
X101080480Y-96774641D01*
X101124320Y-96554241D01*
X101210316Y-96346628D01*
X101335163Y-96159782D01*
X101494062Y-96000883D01*
X101680908Y-95876036D01*
X101888521Y-95790040D01*
X102108921Y-95746200D01*
X102333639Y-95746200D01*
X102554039Y-95790040D01*
G37*
G36*
X98554039Y-95790040D02*
G01*
X98761652Y-95876036D01*
X98948498Y-96000883D01*
X99107397Y-96159782D01*
X99232244Y-96346628D01*
X99318240Y-96554241D01*
X99362080Y-96774641D01*
X99362080Y-96999359D01*
X99318240Y-97219759D01*
X99232244Y-97427372D01*
X99107397Y-97614218D01*
X98948498Y-97773117D01*
X98761652Y-97897964D01*
X98554039Y-97983960D01*
X98333639Y-98027800D01*
X98108921Y-98027800D01*
X97888521Y-97983960D01*
X97680908Y-97897964D01*
X97494062Y-97773117D01*
X97335163Y-97614218D01*
X97210316Y-97427372D01*
X97124320Y-97219759D01*
X97080480Y-96999359D01*
X97080480Y-96774641D01*
X97124320Y-96554241D01*
X97210316Y-96346628D01*
X97335163Y-96159782D01*
X97494062Y-96000883D01*
X97680908Y-95876036D01*
X97888521Y-95790040D01*
X98108921Y-95746200D01*
X98333639Y-95746200D01*
X98554039Y-95790040D01*
G37*
G36*
X171780315Y-93508122D02*
G01*
X171928538Y-93537605D01*
X172137969Y-93624354D01*
X172326453Y-93750295D01*
X172486745Y-93910587D01*
X172612686Y-94099071D01*
X172699435Y-94308502D01*
X172743660Y-94530837D01*
X172743660Y-94757523D01*
X172699435Y-94979858D01*
X172612686Y-95189289D01*
X172486745Y-95377773D01*
X172326453Y-95538065D01*
X172137969Y-95664006D01*
X171928538Y-95750755D01*
X171780315Y-95780238D01*
X171706204Y-95794980D01*
X171479516Y-95794980D01*
X171405405Y-95780238D01*
X171257182Y-95750755D01*
X171047751Y-95664006D01*
X170859267Y-95538065D01*
X170698975Y-95377773D01*
X170573034Y-95189289D01*
X170486285Y-94979858D01*
X170442060Y-94757523D01*
X170442060Y-94530837D01*
X170486285Y-94308502D01*
X170573034Y-94099071D01*
X170698975Y-93910587D01*
X170859267Y-93750295D01*
X171047751Y-93624354D01*
X171257182Y-93537605D01*
X171405405Y-93508122D01*
X171479516Y-93493380D01*
X171706204Y-93493380D01*
X171780315Y-93508122D01*
G37*
G36*
X188460315Y-93508122D02*
G01*
X188608538Y-93537605D01*
X188817969Y-93624354D01*
X189006453Y-93750295D01*
X189166745Y-93910587D01*
X189292686Y-94099071D01*
X189379435Y-94308502D01*
X189423660Y-94530837D01*
X189423660Y-94757523D01*
X189379435Y-94979858D01*
X189292686Y-95189289D01*
X189166745Y-95377773D01*
X189006453Y-95538065D01*
X188817969Y-95664006D01*
X188608538Y-95750755D01*
X188460315Y-95780238D01*
X188386204Y-95794980D01*
X188159516Y-95794980D01*
X188085405Y-95780238D01*
X187937182Y-95750755D01*
X187727751Y-95664006D01*
X187539267Y-95538065D01*
X187378975Y-95377773D01*
X187253034Y-95189289D01*
X187166285Y-94979858D01*
X187122060Y-94757523D01*
X187122060Y-94530837D01*
X187166285Y-94308502D01*
X187253034Y-94099071D01*
X187378975Y-93910587D01*
X187539267Y-93750295D01*
X187727751Y-93624354D01*
X187937182Y-93537605D01*
X188085405Y-93508122D01*
X188159516Y-93493380D01*
X188386204Y-93493380D01*
X188460315Y-93508122D01*
G37*
G36*
X185680315Y-93508122D02*
G01*
X185828538Y-93537605D01*
X186037969Y-93624354D01*
X186226453Y-93750295D01*
X186386745Y-93910587D01*
X186512686Y-94099071D01*
X186599435Y-94308502D01*
X186643660Y-94530837D01*
X186643660Y-94757523D01*
X186599435Y-94979858D01*
X186512686Y-95189289D01*
X186386745Y-95377773D01*
X186226453Y-95538065D01*
X186037969Y-95664006D01*
X185828538Y-95750755D01*
X185680315Y-95780238D01*
X185606204Y-95794980D01*
X185379516Y-95794980D01*
X185305405Y-95780238D01*
X185157182Y-95750755D01*
X184947751Y-95664006D01*
X184759267Y-95538065D01*
X184598975Y-95377773D01*
X184473034Y-95189289D01*
X184386285Y-94979858D01*
X184342060Y-94757523D01*
X184342060Y-94530837D01*
X184386285Y-94308502D01*
X184473034Y-94099071D01*
X184598975Y-93910587D01*
X184759267Y-93750295D01*
X184947751Y-93624354D01*
X185157182Y-93537605D01*
X185305405Y-93508122D01*
X185379516Y-93493380D01*
X185606204Y-93493380D01*
X185680315Y-93508122D01*
G37*
G36*
X182900315Y-93508122D02*
G01*
X183048538Y-93537605D01*
X183257969Y-93624354D01*
X183446453Y-93750295D01*
X183606745Y-93910587D01*
X183732686Y-94099071D01*
X183819435Y-94308502D01*
X183863660Y-94530837D01*
X183863660Y-94757523D01*
X183819435Y-94979858D01*
X183732686Y-95189289D01*
X183606745Y-95377773D01*
X183446453Y-95538065D01*
X183257969Y-95664006D01*
X183048538Y-95750755D01*
X182900315Y-95780238D01*
X182826204Y-95794980D01*
X182599516Y-95794980D01*
X182525405Y-95780238D01*
X182377182Y-95750755D01*
X182167751Y-95664006D01*
X181979267Y-95538065D01*
X181818975Y-95377773D01*
X181693034Y-95189289D01*
X181606285Y-94979858D01*
X181562060Y-94757523D01*
X181562060Y-94530837D01*
X181606285Y-94308502D01*
X181693034Y-94099071D01*
X181818975Y-93910587D01*
X181979267Y-93750295D01*
X182167751Y-93624354D01*
X182377182Y-93537605D01*
X182525405Y-93508122D01*
X182599516Y-93493380D01*
X182826204Y-93493380D01*
X182900315Y-93508122D01*
G37*
G36*
X180120315Y-93508122D02*
G01*
X180268538Y-93537605D01*
X180477969Y-93624354D01*
X180666453Y-93750295D01*
X180826745Y-93910587D01*
X180952686Y-94099071D01*
X181039435Y-94308502D01*
X181083660Y-94530837D01*
X181083660Y-94757523D01*
X181039435Y-94979858D01*
X180952686Y-95189289D01*
X180826745Y-95377773D01*
X180666453Y-95538065D01*
X180477969Y-95664006D01*
X180268538Y-95750755D01*
X180120315Y-95780238D01*
X180046204Y-95794980D01*
X179819516Y-95794980D01*
X179745405Y-95780238D01*
X179597182Y-95750755D01*
X179387751Y-95664006D01*
X179199267Y-95538065D01*
X179038975Y-95377773D01*
X178913034Y-95189289D01*
X178826285Y-94979858D01*
X178782060Y-94757523D01*
X178782060Y-94530837D01*
X178826285Y-94308502D01*
X178913034Y-94099071D01*
X179038975Y-93910587D01*
X179199267Y-93750295D01*
X179387751Y-93624354D01*
X179597182Y-93537605D01*
X179745405Y-93508122D01*
X179819516Y-93493380D01*
X180046204Y-93493380D01*
X180120315Y-93508122D01*
G37*
G36*
X177340315Y-93508122D02*
G01*
X177488538Y-93537605D01*
X177697969Y-93624354D01*
X177886453Y-93750295D01*
X178046745Y-93910587D01*
X178172686Y-94099071D01*
X178259435Y-94308502D01*
X178303660Y-94530837D01*
X178303660Y-94757523D01*
X178259435Y-94979858D01*
X178172686Y-95189289D01*
X178046745Y-95377773D01*
X177886453Y-95538065D01*
X177697969Y-95664006D01*
X177488538Y-95750755D01*
X177340315Y-95780238D01*
X177266204Y-95794980D01*
X177039516Y-95794980D01*
X176965405Y-95780238D01*
X176817182Y-95750755D01*
X176607751Y-95664006D01*
X176419267Y-95538065D01*
X176258975Y-95377773D01*
X176133034Y-95189289D01*
X176046285Y-94979858D01*
X176002060Y-94757523D01*
X176002060Y-94530837D01*
X176046285Y-94308502D01*
X176133034Y-94099071D01*
X176258975Y-93910587D01*
X176419267Y-93750295D01*
X176607751Y-93624354D01*
X176817182Y-93537605D01*
X176965405Y-93508122D01*
X177039516Y-93493380D01*
X177266204Y-93493380D01*
X177340315Y-93508122D01*
G37*
G36*
X174560315Y-93508122D02*
G01*
X174708538Y-93537605D01*
X174917969Y-93624354D01*
X175106453Y-93750295D01*
X175266745Y-93910587D01*
X175392686Y-94099071D01*
X175479435Y-94308502D01*
X175523660Y-94530837D01*
X175523660Y-94757523D01*
X175479435Y-94979858D01*
X175392686Y-95189289D01*
X175266745Y-95377773D01*
X175106453Y-95538065D01*
X174917969Y-95664006D01*
X174708538Y-95750755D01*
X174560315Y-95780238D01*
X174486204Y-95794980D01*
X174259516Y-95794980D01*
X174185405Y-95780238D01*
X174037182Y-95750755D01*
X173827751Y-95664006D01*
X173639267Y-95538065D01*
X173478975Y-95377773D01*
X173353034Y-95189289D01*
X173266285Y-94979858D01*
X173222060Y-94757523D01*
X173222060Y-94530837D01*
X173266285Y-94308502D01*
X173353034Y-94099071D01*
X173478975Y-93910587D01*
X173639267Y-93750295D01*
X173827751Y-93624354D01*
X174037182Y-93537605D01*
X174185405Y-93508122D01*
X174259516Y-93493380D01*
X174486204Y-93493380D01*
X174560315Y-93508122D01*
G37*
G36*
X173170315Y-90728122D02*
G01*
X173318538Y-90757605D01*
X173527969Y-90844354D01*
X173716453Y-90970295D01*
X173876745Y-91130587D01*
X174002686Y-91319071D01*
X174089435Y-91528502D01*
X174133660Y-91750837D01*
X174133660Y-91977523D01*
X174089435Y-92199858D01*
X174002686Y-92409289D01*
X173876745Y-92597773D01*
X173716453Y-92758065D01*
X173527969Y-92884006D01*
X173318538Y-92970755D01*
X173170315Y-93000238D01*
X173096204Y-93014980D01*
X172869516Y-93014980D01*
X172795405Y-93000238D01*
X172647182Y-92970755D01*
X172437751Y-92884006D01*
X172249267Y-92758065D01*
X172088975Y-92597773D01*
X171963034Y-92409289D01*
X171876285Y-92199858D01*
X171832060Y-91977523D01*
X171832060Y-91750837D01*
X171876285Y-91528502D01*
X171963034Y-91319071D01*
X172088975Y-91130587D01*
X172249267Y-90970295D01*
X172437751Y-90844354D01*
X172647182Y-90757605D01*
X172795405Y-90728122D01*
X172869516Y-90713380D01*
X173096204Y-90713380D01*
X173170315Y-90728122D01*
G37*
G36*
X175950315Y-90728122D02*
G01*
X176098538Y-90757605D01*
X176307969Y-90844354D01*
X176496453Y-90970295D01*
X176656745Y-91130587D01*
X176782686Y-91319071D01*
X176869435Y-91528502D01*
X176913660Y-91750837D01*
X176913660Y-91977523D01*
X176869435Y-92199858D01*
X176782686Y-92409289D01*
X176656745Y-92597773D01*
X176496453Y-92758065D01*
X176307969Y-92884006D01*
X176098538Y-92970755D01*
X175950315Y-93000238D01*
X175876204Y-93014980D01*
X175649516Y-93014980D01*
X175575405Y-93000238D01*
X175427182Y-92970755D01*
X175217751Y-92884006D01*
X175029267Y-92758065D01*
X174868975Y-92597773D01*
X174743034Y-92409289D01*
X174656285Y-92199858D01*
X174612060Y-91977523D01*
X174612060Y-91750837D01*
X174656285Y-91528502D01*
X174743034Y-91319071D01*
X174868975Y-91130587D01*
X175029267Y-90970295D01*
X175217751Y-90844354D01*
X175427182Y-90757605D01*
X175575405Y-90728122D01*
X175649516Y-90713380D01*
X175876204Y-90713380D01*
X175950315Y-90728122D01*
G37*
G36*
X178730315Y-90728122D02*
G01*
X178878538Y-90757605D01*
X179087969Y-90844354D01*
X179276453Y-90970295D01*
X179436745Y-91130587D01*
X179562686Y-91319071D01*
X179649435Y-91528502D01*
X179693660Y-91750837D01*
X179693660Y-91977523D01*
X179649435Y-92199858D01*
X179562686Y-92409289D01*
X179436745Y-92597773D01*
X179276453Y-92758065D01*
X179087969Y-92884006D01*
X178878538Y-92970755D01*
X178730315Y-93000238D01*
X178656204Y-93014980D01*
X178429516Y-93014980D01*
X178355405Y-93000238D01*
X178207182Y-92970755D01*
X177997751Y-92884006D01*
X177809267Y-92758065D01*
X177648975Y-92597773D01*
X177523034Y-92409289D01*
X177436285Y-92199858D01*
X177392060Y-91977523D01*
X177392060Y-91750837D01*
X177436285Y-91528502D01*
X177523034Y-91319071D01*
X177648975Y-91130587D01*
X177809267Y-90970295D01*
X177997751Y-90844354D01*
X178207182Y-90757605D01*
X178355405Y-90728122D01*
X178429516Y-90713380D01*
X178656204Y-90713380D01*
X178730315Y-90728122D01*
G37*
G36*
X181510315Y-90728122D02*
G01*
X181658538Y-90757605D01*
X181867969Y-90844354D01*
X182056453Y-90970295D01*
X182216745Y-91130587D01*
X182342686Y-91319071D01*
X182429435Y-91528502D01*
X182473660Y-91750837D01*
X182473660Y-91977523D01*
X182429435Y-92199858D01*
X182342686Y-92409289D01*
X182216745Y-92597773D01*
X182056453Y-92758065D01*
X181867969Y-92884006D01*
X181658538Y-92970755D01*
X181510315Y-93000238D01*
X181436204Y-93014980D01*
X181209516Y-93014980D01*
X181135405Y-93000238D01*
X180987182Y-92970755D01*
X180777751Y-92884006D01*
X180589267Y-92758065D01*
X180428975Y-92597773D01*
X180303034Y-92409289D01*
X180216285Y-92199858D01*
X180172060Y-91977523D01*
X180172060Y-91750837D01*
X180216285Y-91528502D01*
X180303034Y-91319071D01*
X180428975Y-91130587D01*
X180589267Y-90970295D01*
X180777751Y-90844354D01*
X180987182Y-90757605D01*
X181135405Y-90728122D01*
X181209516Y-90713380D01*
X181436204Y-90713380D01*
X181510315Y-90728122D01*
G37*
G36*
X184290315Y-90728122D02*
G01*
X184438538Y-90757605D01*
X184647969Y-90844354D01*
X184836453Y-90970295D01*
X184996745Y-91130587D01*
X185122686Y-91319071D01*
X185209435Y-91528502D01*
X185253660Y-91750837D01*
X185253660Y-91977523D01*
X185209435Y-92199858D01*
X185122686Y-92409289D01*
X184996745Y-92597773D01*
X184836453Y-92758065D01*
X184647969Y-92884006D01*
X184438538Y-92970755D01*
X184290315Y-93000238D01*
X184216204Y-93014980D01*
X183989516Y-93014980D01*
X183915405Y-93000238D01*
X183767182Y-92970755D01*
X183557751Y-92884006D01*
X183369267Y-92758065D01*
X183208975Y-92597773D01*
X183083034Y-92409289D01*
X182996285Y-92199858D01*
X182952060Y-91977523D01*
X182952060Y-91750837D01*
X182996285Y-91528502D01*
X183083034Y-91319071D01*
X183208975Y-91130587D01*
X183369267Y-90970295D01*
X183557751Y-90844354D01*
X183767182Y-90757605D01*
X183915405Y-90728122D01*
X183989516Y-90713380D01*
X184216204Y-90713380D01*
X184290315Y-90728122D01*
G37*
G36*
X187070315Y-90728122D02*
G01*
X187218538Y-90757605D01*
X187427969Y-90844354D01*
X187616453Y-90970295D01*
X187776745Y-91130587D01*
X187902686Y-91319071D01*
X187989435Y-91528502D01*
X188033660Y-91750837D01*
X188033660Y-91977523D01*
X187989435Y-92199858D01*
X187902686Y-92409289D01*
X187776745Y-92597773D01*
X187616453Y-92758065D01*
X187427969Y-92884006D01*
X187218538Y-92970755D01*
X187070315Y-93000238D01*
X186996204Y-93014980D01*
X186769516Y-93014980D01*
X186695405Y-93000238D01*
X186547182Y-92970755D01*
X186337751Y-92884006D01*
X186149267Y-92758065D01*
X185988975Y-92597773D01*
X185863034Y-92409289D01*
X185776285Y-92199858D01*
X185732060Y-91977523D01*
X185732060Y-91750837D01*
X185776285Y-91528502D01*
X185863034Y-91319071D01*
X185988975Y-91130587D01*
X186149267Y-90970295D01*
X186337751Y-90844354D01*
X186547182Y-90757605D01*
X186695405Y-90728122D01*
X186769516Y-90713380D01*
X186996204Y-90713380D01*
X187070315Y-90728122D01*
G37*
G36*
X189850315Y-90728122D02*
G01*
X189998538Y-90757605D01*
X190207969Y-90844354D01*
X190396453Y-90970295D01*
X190556745Y-91130587D01*
X190682686Y-91319071D01*
X190769435Y-91528502D01*
X190813660Y-91750837D01*
X190813660Y-91977523D01*
X190769435Y-92199858D01*
X190682686Y-92409289D01*
X190556745Y-92597773D01*
X190396453Y-92758065D01*
X190207969Y-92884006D01*
X189998538Y-92970755D01*
X189850315Y-93000238D01*
X189776204Y-93014980D01*
X189549516Y-93014980D01*
X189475405Y-93000238D01*
X189327182Y-92970755D01*
X189117751Y-92884006D01*
X188929267Y-92758065D01*
X188768975Y-92597773D01*
X188643034Y-92409289D01*
X188556285Y-92199858D01*
X188512060Y-91977523D01*
X188512060Y-91750837D01*
X188556285Y-91528502D01*
X188643034Y-91319071D01*
X188768975Y-91130587D01*
X188929267Y-90970295D01*
X189117751Y-90844354D01*
X189327182Y-90757605D01*
X189475405Y-90728122D01*
X189549516Y-90713380D01*
X189776204Y-90713380D01*
X189850315Y-90728122D01*
G37*
G36*
X170390315Y-90728122D02*
G01*
X170538538Y-90757605D01*
X170747969Y-90844354D01*
X170936453Y-90970295D01*
X171096745Y-91130587D01*
X171222686Y-91319071D01*
X171309435Y-91528502D01*
X171353660Y-91750837D01*
X171353660Y-91977523D01*
X171309435Y-92199858D01*
X171222686Y-92409289D01*
X171096745Y-92597773D01*
X170936453Y-92758065D01*
X170747969Y-92884006D01*
X170538538Y-92970755D01*
X170390315Y-93000238D01*
X170316204Y-93014980D01*
X170089516Y-93014980D01*
X170015405Y-93000238D01*
X169867182Y-92970755D01*
X169657751Y-92884006D01*
X169469267Y-92758065D01*
X169308975Y-92597773D01*
X169183034Y-92409289D01*
X169096285Y-92199858D01*
X169052060Y-91977523D01*
X169052060Y-91750837D01*
X169096285Y-91528502D01*
X169183034Y-91319071D01*
X169308975Y-91130587D01*
X169469267Y-90970295D01*
X169657751Y-90844354D01*
X169867182Y-90757605D01*
X170015405Y-90728122D01*
X170089516Y-90713380D01*
X170316204Y-90713380D01*
X170390315Y-90728122D01*
G37*
M02*
